<svg width="424" height="319" viewBox="0 0 424 319" fill="none" xmlns="http://www.w3.org/2000/svg">
<g clip-path="url(#clip0_3_1166)" filter="url(#filter0_bd_3_1166)">
<rect width="416" height="311" transform="matrix(-1 0 0 1 420 0)" fill="white" fill-opacity="0.09"/>
<path d="M311.849 58.8579C311.849 60.4114 311.422 61.9649 310.57 63.3807C308.865 66.2123 305.811 67.9035 302.401 67.9035H252.808C249.398 67.9035 246.344 66.2123 244.639 63.3807C243.787 61.9649 243.36 60.4114 243.36 58.8579C243.36 57.3044 243.787 55.751 244.639 54.3351L269.436 13.1468C271.141 10.3152 274.194 8.62402 277.605 8.62402C281.014 8.62402 284.068 10.3152 285.773 13.1468L310.57 54.3351C311.422 55.751 311.849 57.3044 311.849 58.8579H311.849Z" fill="#F2F2F2"/>
<path d="M221.896 92.621C221.896 93.4974 221.655 94.3737 221.175 95.1724C220.213 96.7698 218.49 97.7238 216.566 97.7238H188.59C186.666 97.7238 184.943 96.7698 183.981 95.1724C183.501 94.3737 183.26 93.4974 183.26 92.621C183.26 91.7446 183.501 90.8683 183.981 90.0696L197.97 66.8341C198.931 65.2367 200.654 64.2827 202.578 64.2827C204.501 64.2827 206.224 65.2367 207.186 66.8341L221.175 90.0696C221.655 90.8683 221.896 91.7446 221.896 92.621Z" fill="#F2F2F2"/>
<path d="M402.913 91.9347C402.913 92.8111 402.672 93.6874 402.191 94.4861C401.23 96.0835 399.507 97.0376 397.583 97.0376H369.607C367.683 97.0376 365.96 96.0835 364.998 94.4861C364.518 93.6874 364.277 92.8111 364.277 91.9347C364.277 91.0584 364.518 90.182 364.998 89.3833L378.987 66.1479C379.948 64.5505 381.671 63.5964 383.595 63.5964C385.518 63.5964 387.241 64.5505 388.203 66.1479L402.191 89.3833C402.672 90.182 402.913 91.0584 402.913 91.9347Z" fill="#3F3D56"/>
<path d="M69.4983 67.2332C69.4983 68.0966 69.2647 68.96 68.7979 69.7491C67.8263 71.3919 65.9339 72.336 63.9645 72.336H52.1366C50.1672 72.336 48.2748 71.3919 47.3032 69.7491C46.8364 68.96 46.6029 68.0966 46.6029 67.2332C46.6029 66.3568 46.8435 65.4804 47.3243 64.6817L53.3229 49.1925C54.3151 47.5444 56.1234 46.4234 58.1077 46.4429C60.008 46.4616 61.7061 47.4124 62.6587 48.994L68.7768 64.6817C69.2576 65.4804 69.4983 66.3568 69.4983 67.2332Z" fill="#3F3D56"/>
<path d="M189.305 97.7237H217.282C219.404 97.7237 221.325 97.0329 222.42 95.8757C223.013 95.2488 223.327 94.5281 223.327 93.7917C223.327 93.0557 223.013 92.335 222.42 91.7078L208.431 76.9286C207.335 75.7714 205.415 75.0806 203.293 75.0806C201.171 75.0806 199.25 75.7714 198.155 76.9286L184.167 91.7078C183.574 92.335 183.26 93.0557 183.26 93.7917C183.26 94.5281 183.574 95.2488 184.167 95.8757C185.262 97.0329 187.183 97.7237 189.305 97.7237ZM203.293 76.4529C205.018 76.4529 206.543 76.9755 207.372 77.851C209.549 84.1303 214.124 89.1046 221.36 92.6298C221.716 93.0057 221.896 93.3967 221.896 93.7917C221.896 94.1871 221.716 94.5777 221.36 94.9536C220.532 95.8288 219.007 96.3514 217.282 96.3514H189.305C187.58 96.3514 186.055 95.8288 185.226 94.9536C184.871 94.5777 184.691 94.1871 184.691 93.7917C184.691 93.3967 184.871 93.0057 185.227 92.6298L199.215 77.8507C200.043 76.9755 201.568 76.4529 203.293 76.4529Z" fill="#3F3D56"/>
<path d="M270.436 67.9901C272.53 67.9901 274.607 67.389 276.429 66.2024L317.46 39.4886C320.66 37.4052 322.403 33.9522 322.123 30.2522C321.985 28.4396 321.36 26.7018 320.316 25.2266C319.272 23.7525 317.819 22.554 316.112 21.7617L271.473 1.04158C267.991 -0.576213 264.001 -0.295891 260.801 1.78812C257.6 3.87213 255.857 7.32509 256.139 11.0245L259.747 58.4591C259.885 60.2723 260.509 62.01 261.553 63.4841C262.598 64.9594 264.051 66.1579 265.757 66.9489C267.257 67.6456 268.852 67.99 270.436 67.99V67.9901ZM266.798 2.43726C268.007 2.43726 269.223 2.69976 270.368 3.2313C281.209 13.6763 292.454 23.7674 315.007 23.9508C316.313 24.5578 317.423 25.4712 318.217 26.5925C319.011 27.715 319.487 29.0418 319.592 30.4292C319.807 33.252 318.477 35.8865 316.036 37.4764L275.005 64.1903C272.563 65.7795 269.521 65.9922 266.862 64.7598C265.557 64.1534 264.447 63.24 263.651 62.1175C262.857 60.9962 262.382 59.6701 262.277 58.2821L258.669 10.8475C258.454 8.02471 259.784 5.39074 262.226 3.80026C263.615 2.89575 265.2 2.43726 266.798 2.43726Z" fill="#3F3D56"/>
<path d="M40.1635 96.3516H420V97.7239H40.1635V96.3516Z" fill="#3F3D56"/>
<path d="M339.536 44.7287C356.838 49.4889 364.518 64.3521 364.596 64.5052L363.308 65.1032C363.233 64.956 355.878 50.7532 339.358 46.1044L340.629 52.1367C337.939 49.1107 333.33 45.9587 329.533 43.955C333.774 43.0995 339.139 41.3708 342.632 39.2271L339.536 44.7287Z" fill="#C408BC"/>
<path d="M244.554 30.7439L244.925 32.0693C244.76 32.1117 228.833 36.3756 220.973 51.0651L227.39 50.9996C223.786 52.9661 219.693 56.716 216.928 59.9172C216.848 55.7617 216.084 50.383 214.543 46.6911L219.597 50.639C227.719 35.2345 244.383 30.7877 244.554 30.7439V30.7439Z" fill="#C408BC"/>
<path d="M150.38 48.5591C154.174 46.5501 158.776 43.3902 161.461 40.3596L160.181 46.4892C178.173 46.1796 190.06 58.2367 190.181 58.361L189.132 59.2944C189.016 59.1749 177.652 47.6676 160.431 47.8553L163.488 53.2657C159.992 51.128 154.623 49.4085 150.38 48.5591Z" fill="#C408BC"/>
<path d="M140.263 297.932L146.217 297.884L148.853 275.343L140.065 275.414L140.263 297.932Z" fill="#A0616A"/>
<path d="M137.573 309.485L138.681 295.301L140.236 295.201L146.579 294.785L148.62 294.654L148.658 298.736L158.169 304.925C158.888 305.397 159.329 306.18 159.335 307.012C159.348 308.174 158.538 309.168 157.431 309.485C157.197 309.554 156.951 309.591 156.692 309.591L144.855 309.684L144.752 309.485L142.782 305.658L142.063 309.485L142.024 309.709L137.554 309.746L137.573 309.485Z" fill="#2F2E41"/>
<path d="M54.846 294.367L60.6158 295.78L69.1702 274.634L60.6544 272.549L54.846 294.367Z" fill="#A0616A"/>
<path d="M49.1675 304.878L54.018 291.436L55.5477 291.721L61.7908 292.873L63.7986 293.247L62.7485 297.203L70.2947 305.516C70.8642 306.149 71.0815 307.014 70.866 307.82C70.5689 308.947 69.5211 309.709 68.3656 309.744C68.1218 309.753 67.8739 309.729 67.6234 309.666L56.1548 306.855L56.1076 306.637L55.2232 302.455L53.5082 305.979L53.411 306.185L49.0791 305.126L49.1674 304.878H49.1675Z" fill="#2F2E41"/>
<path d="M133.71 109.112L98.5595 114.983V120.235C98.5595 120.235 96.1446 119.919 96.1446 121.463V124.174L94.1903 126.048C94.1903 126.048 75.2155 147.71 78.4354 173.443L75.7521 195.573L73.0689 200.204L74.1422 205.351C74.1422 205.351 70.3857 208.953 70.3857 209.468C70.3857 209.983 71.459 214.614 71.459 214.614C71.459 214.614 66.0925 216.673 66.6292 217.188C67.1658 217.702 66.0925 220.79 66.0925 220.79C66.0925 220.79 52.6764 258.36 56.4329 284.092L65.5559 286.665L96.6812 217.188L114.927 167.267L130.311 202.263V209.03L129.774 210.497V211.527L131.384 215.129L130.311 217.188L132.457 223.364V231.083C132.457 231.083 132.1 272.255 139.613 285.636H148.736L157.859 206.38L156.249 198.146L155.712 194.029L153.029 192.999L155.712 189.911L146.589 135.359L133.71 109.112L133.71 109.112Z" fill="#2F2E41"/>
<path d="M125.145 46.8032H106.134L103.7 54.5396L96.1621 57.4021C90.9369 59.3863 87.6351 64.3682 87.98 69.7476L88.095 71.5422L86.1392 82.5252C86.1392 82.5252 88.4607 86.7246 89.6195 87.6251C90.7783 88.5256 95.2935 107.296 95.2935 107.296L86.6699 136.149L98.2913 129.697L137.469 115.564L137.466 108.082L135.279 102.633L133.921 101.331L139.803 91.0016L144.853 60.7288L129.61 55.653L125.145 46.8032V46.8032Z" fill="#C408BC"/>
<path d="M181.945 76.4039L178.644 52.8001L178.598 52.8087C178.995 51.725 178.976 50.4998 178.442 49.3716C177.342 47.0509 174.489 46.0246 172.069 47.0792C169.649 48.1339 168.579 50.8701 169.679 53.1908C170.183 54.2538 171.056 55.0409 172.086 55.4851L174.48 72.7601L142.949 61.2472C142.949 61.2472 130.652 67.6101 135.287 69.2772C138.303 70.3621 171.13 82.2285 177.131 81.9503C180.12 81.8118 182.343 79.248 181.945 76.4039L181.945 76.4039Z" fill="#A0616A"/>
<path d="M135.458 63.6405L131.33 69.3263C138.109 74.0031 170.363 85.2063 170.486 83.8044C170.609 82.4025 172.215 83.6753 172.379 84.2164C172.543 84.7575 174.377 83.9479 174.366 84.5841C174.355 85.2203 175.895 84.8276 176.665 84.9291C176.665 84.9291 182.64 82.981 183.54 79.7373C184.441 76.4936 183.348 72.816 183.348 72.816L184.691 69.391L169.773 66.7237L172.535 71.0396L142.302 59.7188L135.458 63.6405V63.6405Z" fill="#C408BC"/>
<path d="M68.6183 96.0717L55.259 76.014L55.2997 75.9923C54.0118 75.2664 53.0691 73.9722 52.9339 72.3418C52.7828 70.5191 53.8269 68.737 55.5302 67.9155C58.3301 66.5652 61.557 68.0244 62.3641 70.7655C62.6947 71.8886 62.5574 73.0298 62.0706 74.0057L71.8648 88.6717L84.9851 65.9242C87.4137 61.7136 92.1612 59.1268 97.1619 59.5215C99.0829 59.6732 100.308 60.2694 99.4352 61.7644C97.8632 64.4584 80.7911 93.8258 76.0233 97.3269C73.6489 99.0703 70.228 98.4886 68.6183 96.0717Z" fill="#A0616A"/>
<path d="M95.5121 57.5686L102.488 59.3539C100.46 67.1178 83.3793 95.6244 82.3423 94.6306C81.3052 93.6367 80.9363 95.6015 81.1749 96.1161C81.4136 96.6306 79.4693 97.1474 79.9055 97.6263C80.3417 98.1051 78.9026 98.7579 78.3828 99.312C78.3828 99.312 72.5126 101.521 69.6431 99.603C66.7736 97.6845 65.1339 94.2012 65.1339 94.2012L61.8046 92.4183L71.3964 81.1524L72.1911 86.1559L84.6185 64.1728C86.5312 60.7894 89.9673 58.4439 93.9271 57.8188L95.5121 57.5686V57.5686Z" fill="#C408BC"/>
<path d="M120.048 43.3494C111.803 43.3494 105.119 36.9391 105.119 29.0315C105.119 21.124 111.803 14.7136 120.048 14.7136C128.294 14.7136 134.978 21.124 134.978 29.0315C134.978 36.9391 128.294 43.3494 120.048 43.3494Z" fill="#A0616A"/>
<path d="M139.641 22.8217C139.799 15.8153 136.623 14.0344 131.98 13.9231C122.395 10.436 120.464 11.8006 117.659 12.6114L116.58 12.5126C113.268 12.2093 110.092 12.8546 107.346 14.2192C101.554 17.0917 98.253 23.0957 98.5697 29.341C98.7887 33.6463 100.599 38.3261 98.4412 42.0852C96.636 45.2238 94.7315 48.3226 98.4479 48.663L108.178 49.5542C108.878 48.466 109.407 47.3486 109.992 45.9572C110.428 47.091 110.624 48.4233 110.634 49.7792C114.189 51.006 117.938 51.2576 121.825 50.8041C122.353 49.9342 122.805 48.9808 122.608 47.986C122.947 48.9668 123.334 49.9385 123.504 50.9579C125.766 49.1718 127.843 49.3883 129.742 51.5292C133.424 47.8289 132.835 40.3651 127.76 39.0496C123.466 37.9366 128.589 26.1897 132.973 25.469C133.001 25.4644 134.696 29.5928 134.728 29.508C135.205 28.244 134.84 27.6215 135.425 26.2301C135.789 27.1863 135.99 28.2805 136.047 29.411C137.071 29.0727 138.096 28.6309 139.117 28.0808C140.165 26.318 140.439 24.5639 139.641 22.8217V22.8217Z" fill="#2F2E41"/>
<path d="M42.8212 299.107C41.3431 299.196 40.5262 297.434 41.6445 296.408L41.7557 295.984C41.7411 295.95 41.7264 295.916 41.7115 295.882C40.2167 292.464 35.1506 292.487 33.6685 295.911C32.353 298.949 30.6782 301.993 30.2658 305.205C30.081 306.623 30.1641 308.068 30.4922 309.46C27.4099 303.003 25.7879 295.952 25.7879 288.861C25.7879 287.079 25.8895 285.298 26.0975 283.521C26.2685 282.067 26.5041 280.622 26.8092 279.191C28.4589 271.453 32.0311 264.083 37.1837 257.927C39.6607 256.628 41.7264 254.599 42.9741 252.166C43.4223 251.288 43.7736 250.344 43.9399 249.382C43.6581 249.418 42.877 245.301 43.0897 245.048C42.6968 244.476 41.9937 244.192 41.5647 243.634C39.4309 240.86 36.491 241.344 34.9563 245.115C31.6778 246.701 31.6461 249.333 33.6578 251.864C34.9376 253.475 35.1134 255.653 36.2364 257.377C36.1209 257.519 36.0007 257.657 35.8852 257.798C33.7666 260.404 31.9342 263.205 30.3895 266.148C30.8261 262.878 30.1816 258.938 29.0828 256.398C27.832 253.504 25.4875 251.067 23.423 248.565C20.9431 245.561 15.8579 246.872 15.421 250.681C15.4168 250.718 15.4127 250.755 15.4086 250.792C15.7153 250.958 16.0157 251.134 16.3092 251.32C17.983 252.382 17.4046 254.87 15.4212 255.164L15.3763 255.17C15.4872 256.23 15.6767 257.28 15.9539 258.313C13.3054 268.135 19.0234 271.713 27.188 271.874C27.3683 271.962 27.5439 272.051 27.7242 272.135C26.8969 274.369 26.2361 276.66 25.7463 278.982C25.3073 281.034 25.0022 283.108 24.8313 285.191C24.6187 287.819 24.6372 290.461 24.8683 293.084L24.8544 292.991C24.2675 290.102 22.6316 287.403 20.2563 285.533C16.7178 282.745 11.7186 281.718 7.90115 279.478C6.06355 278.399 3.70878 279.793 4.02949 281.836L4.04512 281.934C4.61353 282.156 5.16802 282.413 5.70409 282.701C6.01075 282.867 6.31118 283.043 6.60464 283.229C8.27851 284.291 7.7 286.779 5.71667 287.073L5.67173 287.079C5.63939 287.084 5.61166 287.088 5.57937 287.093C6.55444 289.313 7.91305 291.374 9.61365 293.151C11.2697 301.726 18.3826 302.539 25.9912 300.042H25.9958C26.8276 303.517 28.043 306.912 29.605 310.147H42.4981C42.5443 310.009 42.5859 309.868 42.6275 309.73C41.4353 309.801 40.2338 309.735 39.06 309.526C40.0166 308.401 40.9731 307.266 41.9297 306.14C41.9528 306.118 41.9713 306.096 41.9898 306.074C42.475 305.498 42.9649 304.926 43.4501 304.35L43.4504 304.349C43.4807 302.581 43.2597 300.818 42.8216 299.107L42.8212 299.107V299.107Z" fill="#F2F2F2"/>
<path d="M187.028 310.183C187.028 310.636 186.648 311 186.176 311H4.95175C4.47955 311 4.10033 310.636 4.10033 310.183C4.10033 309.731 4.47955 309.367 4.95175 309.367H186.176C186.648 309.367 187.028 309.731 187.028 310.183Z" fill="#CCCCCC"/>
<path d="M278.419 105.271C273.677 105.271 269.833 101.585 269.833 97.0376C269.833 92.4901 273.677 88.8037 278.419 88.8037C283.161 88.8037 287.005 92.4901 287.005 97.0376C287.005 101.585 283.161 105.271 278.419 105.271Z" fill="#CCCCCC"/>
<path d="M203.293 106.644C198.552 106.644 194.708 102.957 194.708 98.4099C194.708 93.8625 198.552 90.176 203.293 90.176C208.035 90.176 211.879 93.8625 211.879 98.4099C211.879 102.957 208.035 106.644 203.293 106.644Z" fill="#CCCCCC"/>
<path d="M57.3351 110.075C52.5933 110.075 48.7493 106.388 48.7493 101.841C48.7493 97.2934 52.5933 93.6069 57.3351 93.6069C62.0769 93.6069 65.9209 97.2934 65.9209 101.841C65.9209 106.388 62.0769 110.075 57.3351 110.075Z" fill="#CCCCCC"/>
<path d="M383.595 105.271C378.853 105.271 375.009 101.585 375.009 97.0376C375.009 92.4901 378.853 88.8037 383.595 88.8037C388.337 88.8037 392.181 92.4901 392.181 97.0376C392.181 101.585 388.337 105.271 383.595 105.271Z" fill="#CCCCCC"/>
<path d="M380.451 99.2446C380.796 99.2442 381.14 99.2399 381.485 99.2356C381.474 99.1725 381.461 99.1091 381.451 99.0468C381.293 98.0371 381.22 97.0144 381.228 95.9934C381.235 95.0179 381.283 93.9689 381.618 93.0394C381.863 92.3598 382.536 92.1449 383.194 92.4242C384.353 92.916 385.351 93.8959 386.266 94.5227C386.737 94.8452 386.963 95.42 386.651 95.9308C386.379 96.3773 385.657 96.6248 385.183 96.3001C384.541 95.8604 383.998 95.3925 383.418 94.9723C383.398 95.2259 383.384 95.48 383.378 95.7341C383.358 96.6095 383.399 97.4892 383.504 98.3591C383.509 98.4014 383.535 98.5793 383.532 98.5639C383.54 98.6154 383.548 98.667 383.557 98.7184C383.587 98.8851 383.622 99.0514 383.669 99.2145L383.674 99.2293C384.18 99.2366 384.686 99.2509 385.192 99.2879C385.722 99.3268 386.18 99.6494 386.246 100.18C386.307 100.678 386.003 101.177 385.477 101.31C384.591 101.532 383.579 101.716 382.732 101.282C381.972 101.286 381.211 101.302 380.451 101.303C379.871 101.304 379.378 100.829 379.378 100.274C379.378 99.715 379.869 99.2455 380.451 99.2446H380.451Z" fill="white"/>
<path d="M277.451 93.7993L277.456 93.7957C277.442 93.8082 277.431 93.8182 277.423 93.824C277.433 93.8159 277.442 93.8076 277.451 93.7993Z" fill="white"/>
<path d="M275.084 99.4392C275.993 99.4423 276.9 99.5067 277.809 99.5211C277.934 99.523 278.049 99.5219 278.168 99.5222C277.721 99.1812 277.271 98.8429 276.84 98.4819C275.706 97.5305 274.482 96.2123 274.656 94.6545C274.83 93.0883 276.318 91.4306 278.081 91.5959C279.488 91.7277 280.657 92.7845 281.058 94.0634C281.282 94.7756 281.204 95.5651 280.722 96.1616C280.165 96.8521 279.242 97.0667 278.367 97.0248C278.434 97.0811 278.497 97.142 278.565 97.1973C279.107 97.6378 279.676 98.0467 280.224 98.4806C280.692 98.8515 281.175 99.2558 281.479 99.7683C281.824 100.35 281.508 101.096 280.838 101.28C278.967 101.794 276.995 101.504 275.084 101.498C274.504 101.496 274.011 101.026 274.011 100.468C274.011 99.9118 274.502 99.4372 275.084 99.4392ZM277.26 95.9606L277.26 95.9588C277.234 95.9246 277.236 95.93 277.26 95.9606ZM277.657 93.6815C277.711 93.6546 277.76 93.6253 277.657 93.6815V93.6815ZM277.592 93.7055C277.594 93.7101 277.616 93.7012 277.641 93.6894C277.613 93.6974 277.591 93.7041 277.592 93.7055ZM279.044 94.8721L279.043 94.8789L279.047 94.8702L279.044 94.8721H279.044ZM279.058 94.8633L279.052 94.8814C279.074 94.8602 279.093 94.8415 279.094 94.8414C279.078 94.8426 279.07 94.8548 279.058 94.8633ZM279.049 94.891L279.048 94.8939C279.143 94.8486 279.101 94.8628 279.049 94.891ZM279.043 94.9055L279.043 94.9074L279.043 94.9055ZM278.772 94.9688C278.781 94.9685 278.79 94.9676 278.799 94.9666C278.847 94.9529 278.9 94.9426 278.95 94.9326C278.934 94.9412 278.918 94.9493 278.91 94.9621C278.916 94.9524 278.941 94.9401 278.966 94.9288L278.969 94.9281C278.989 94.9239 278.99 94.9222 279.002 94.9189C278.981 94.9335 278.967 94.9478 278.971 94.9577C278.972 94.9587 278.993 94.9381 279.017 94.9149C278.999 94.9676 279.006 95.0109 279.022 94.9245C279.022 94.9204 279.022 94.9176 279.022 94.9132L279.028 94.9117L279.028 94.9102L279.028 94.9041L279.029 94.9033L279.028 94.9031L279.029 94.9023L279.032 94.9009L279.033 94.8996L279.033 94.8992L279.029 94.9023L279.031 94.8798C279.026 94.8867 279.026 94.8941 279.023 94.9016C279.023 94.8573 279.026 94.8009 279.028 94.7624C279.022 94.7337 279.016 94.705 279.008 94.677C278.997 94.6367 278.949 94.5155 278.934 94.4717C278.904 94.4173 278.874 94.3627 278.841 94.3096C278.819 94.2733 278.742 94.1717 278.713 94.1291C278.665 94.0781 278.601 94.0088 278.576 93.985C278.533 93.9434 278.487 93.9044 278.442 93.8646C278.404 93.8308 278.289 93.7043 278.408 93.8345C278.519 93.9539 278.425 93.8467 278.368 93.8144C278.316 93.7847 278.266 93.7534 278.213 93.7259L278.193 93.7182C278.226 93.7239 278.233 93.7172 278.141 93.693L278.124 93.6883C278.103 93.679 278.08 93.6694 278.075 93.6604C278.08 93.6698 278.095 93.6763 278.107 93.6837L277.998 93.6545C278.009 93.6527 278.022 93.6546 278.031 93.6491C278.028 93.6508 278.01 93.6518 277.992 93.6529L277.971 93.6472C277.829 93.6091 277.872 93.6413 277.936 93.6548C277.892 93.6557 277.845 93.6558 277.802 93.6548C277.874 93.6425 277.94 93.6059 277.801 93.6453L277.769 93.6538C277.746 93.6528 277.726 93.6515 277.724 93.6495C277.733 93.656 277.75 93.6545 277.765 93.655C277.731 93.6641 277.683 93.6773 277.645 93.6883L277.639 93.6915C277.586 93.7204 277.534 93.7494 277.482 93.7792C277.47 93.7863 277.466 93.7898 277.456 93.7957C277.468 93.7858 277.477 93.7783 277.492 93.7638C277.479 93.7765 277.464 93.7874 277.451 93.7994C277.402 93.831 277.396 93.8418 277.422 93.8241C277.385 93.8552 277.347 93.8864 277.312 93.9194C277.25 93.978 277.195 94.0413 277.135 94.1019C277.126 94.1115 277.121 94.1153 277.115 94.1211L277.103 94.1396C277.017 94.268 276.945 94.4026 276.863 94.5326C276.859 94.5411 276.856 94.5494 276.853 94.558C276.835 94.6195 276.819 94.683 276.799 94.7439C276.795 94.7544 276.794 94.7574 276.791 94.7652C276.789 94.8294 276.783 94.8932 276.785 94.9577L276.787 95.0062C276.792 95.0403 276.798 95.0819 276.803 95.1002C276.817 95.1594 276.834 95.2178 276.853 95.2756C276.861 95.2982 276.87 95.3209 276.877 95.3436C277.001 95.5511 277.124 95.7517 277.261 95.9518C277.286 95.4348 277.763 94.9337 278.329 94.9657C278.477 94.9741 278.624 94.9723 278.772 94.9688L278.772 94.9688Z" fill="white"/>
<path d="M279.023 94.9016L279.022 94.9048L279.023 94.9047L279.022 94.9048L279.022 94.9061L279.026 94.9037L279.028 94.9032V94.9042L279.022 94.9101L279.022 94.9133L279.018 94.9145L279.017 94.915L279.017 94.9146L279.002 94.919L279.02 94.9075L279.021 94.9054C279.005 94.912 278.988 94.9191 278.966 94.9288L278.95 94.9326C278.974 94.9187 279 94.9089 279.021 94.9052L279.022 94.9016H279.023Z" fill="white"/>
<path d="M277.936 93.6548C277.959 93.6544 277.976 93.6538 277.992 93.6528L277.998 93.6544C277.976 93.6578 277.958 93.6593 277.936 93.6548Z" fill="white"/>
<path d="M277.766 93.655L277.77 93.6538L277.802 93.6548C277.788 93.6572 277.779 93.6554 277.766 93.655Z" fill="white"/>
<path d="M279.027 94.9037L279.023 94.9047L279.028 94.9023L279.027 94.9037Z" fill="white"/>
<path d="M278.107 93.6836L278.124 93.6882C278.151 93.6999 278.172 93.7097 278.193 93.7181C278.169 93.7137 278.135 93.7009 278.107 93.6836Z" fill="white"/>
<path d="M199.525 98.5106C199.564 98.4645 199.613 98.4282 199.654 98.3843C199.511 98.2457 199.381 98.0894 199.287 97.8936C198.757 96.7936 199.372 95.6052 200.151 94.7752C201.605 93.2259 204.396 92.8598 206.235 93.9499C206.712 94.2328 206.94 94.883 206.62 95.3581C206.311 95.8172 205.663 96.0302 205.152 95.7273C205.073 95.6804 204.991 95.6386 204.911 95.5946C204.887 95.5817 204.875 95.5741 204.862 95.5666C204.85 95.563 204.843 95.5612 204.827 95.5555C204.648 95.4955 204.468 95.4519 204.284 95.4121C204.26 95.407 204.246 95.4034 204.235 95.4002C204.222 95.3999 204.212 95.3999 204.192 95.399C204.097 95.3944 204.001 95.3862 203.905 95.3847C203.733 95.382 203.564 95.3951 203.394 95.4079C203.355 95.4142 203.316 95.4207 203.277 95.4284C203.182 95.4465 203.088 95.4675 202.994 95.4916C202.843 95.5305 202.694 95.5793 202.548 95.6343C202.507 95.6533 202.425 95.6889 202.402 95.7003C202.319 95.7417 202.236 95.7858 202.156 95.8328C202.077 95.8793 202.003 95.9343 201.924 95.9808C202.126 95.8619 201.948 95.9644 201.899 96.0071C201.782 96.1097 201.677 96.2228 201.574 96.3388C201.561 96.355 201.546 96.374 201.532 96.394C201.48 96.4669 201.431 96.5415 201.385 96.6183C201.376 96.6328 201.335 96.7097 201.307 96.759C201.292 96.7984 201.262 96.8687 201.257 96.8843C201.249 96.9099 201.244 96.9333 201.24 96.9545C201.268 96.9652 201.297 96.9758 201.316 96.9807C201.374 96.9949 201.432 97.0043 201.49 97.0144C201.517 97.0177 201.566 97.0237 201.617 97.027C201.782 97.0379 201.948 97.04 202.113 97.0403C202.649 97.0412 203.097 97.4313 203.168 97.9327C203.242 98.4641 202.907 98.883 202.399 99.062C202.398 99.0624 202.341 99.0831 202.297 99.099C202.255 99.1172 202.185 99.1463 202.171 99.1528C202.034 99.2165 201.899 99.2858 201.768 99.3614C201.688 99.4071 201.613 99.4565 201.535 99.5046L201.503 99.5247C201.399 99.605 201.298 99.69 201.206 99.7829C201.154 99.8364 201.052 100.011 201.163 99.8208C201.138 99.8637 201.106 99.9094 201.077 99.9495C201.07 99.959 201.067 99.9616 201.061 99.9681L201.061 99.9706C201.06 99.9751 201.054 99.9936 201.047 100.015C201.064 100.046 201.082 100.077 201.103 100.106C201.026 99.9786 201.096 100.098 201.155 100.156C201.288 100.288 201.357 100.336 201.5 100.42C201.57 100.461 201.644 100.499 201.719 100.534C201.739 100.539 201.821 100.569 201.853 100.578C201.919 100.597 201.986 100.611 202.054 100.624C202.079 100.627 202.136 100.634 202.177 100.635C202.261 100.638 202.345 100.634 202.43 100.632C202.452 100.632 202.467 100.632 202.48 100.632L202.497 100.627C202.665 100.587 202.832 100.556 202.997 100.505C203.08 100.479 203.162 100.449 203.245 100.421C203.281 100.408 203.295 100.404 203.306 100.4C203.3 100.402 203.3 100.4 203.333 100.386C203.677 100.234 204.01 100.061 204.34 99.8822C204.83 99.6178 205.535 99.7548 205.809 100.251C206.077 100.738 205.946 101.377 205.424 101.66C204.492 102.163 203.515 102.629 202.43 102.691C201.263 102.757 200.095 102.201 199.387 101.323C198.675 100.439 198.822 99.3463 199.525 98.5106V98.5106ZM201.207 96.9879C201.19 96.9656 201.191 96.9632 201.183 96.9503C201.166 96.9301 201.162 96.9264 201.207 96.9879ZM201.17 96.9292L201.163 96.9173C201.154 96.9186 201.132 96.9115 201.073 96.8757C201.105 96.8952 201.138 96.9117 201.17 96.9292ZM201.029 100.076C201.025 100.093 201.022 100.107 201.025 100.108L201.029 100.076Z" fill="white"/>
<path d="M53.0495 101.302C53.1854 100.899 53.5829 100.569 54.0268 100.544C54.0823 100.048 54.1226 99.55 54.1266 99.0474C54.131 98.5091 54.6172 97.9931 55.1999 98.0181C55.7777 98.0429 56.2777 98.4704 56.2731 99.0474C56.2687 99.5998 56.2243 100.144 56.1614 100.685C56.57 100.661 56.9791 100.633 57.3876 100.647C57.8785 100.664 58.3653 100.739 58.8551 100.771C58.925 100.776 58.9946 100.77 59.0643 100.773C58.9961 100.578 58.9278 100.383 58.8466 100.193C58.833 100.164 58.8141 100.123 58.798 100.091C58.7672 100.029 58.7353 99.9669 58.7022 99.9058C58.631 99.7746 58.5545 99.646 58.4697 99.5224C58.4412 99.4809 58.2749 99.2893 58.4478 99.4798C58.3963 99.4231 58.3478 99.3653 58.2933 99.3111C58.254 99.272 58.2116 99.2364 58.17 99.1999C58.1539 99.1884 58.1334 99.1745 58.106 99.158C57.631 98.8719 57.4 98.2274 57.721 97.7499C58.0278 97.2936 58.6808 97.0742 59.1894 97.3806C60.5804 98.2187 61.052 99.881 61.4841 101.304C61.6173 101.743 61.3953 102.236 60.9909 102.466C59.9084 103.082 58.6412 102.767 57.4669 102.709C56.9354 102.683 56.3983 102.725 55.8627 102.751C55.7075 103.748 55.5662 104.744 55.5633 105.758C55.5617 106.296 55.0708 106.812 54.49 106.787C53.9099 106.762 53.4151 106.335 53.4168 105.758C53.4199 104.665 53.5777 103.602 53.7434 102.545C53.2415 102.353 52.8705 101.833 53.0495 101.302V101.302ZM58.1752 99.2033C58.211 99.2333 58.2121 99.2298 58.1752 99.2033V99.2033Z" fill="white"/>
</g>
<defs>
<filter id="filter0_bd_3_1166" x="-8" y="-12" width="440" height="335" filterUnits="userSpaceOnUse" color-interpolation-filters="sRGB">
<feFlood flood-opacity="0" result="BackgroundImageFix"/>
<feGaussianBlur in="BackgroundImageFix" stdDeviation="6"/>
<feComposite in2="SourceAlpha" operator="in" result="effect1_backgroundBlur_3_1166"/>
<feColorMatrix in="SourceAlpha" type="matrix" values="0 0 0 0 0 0 0 0 0 0 0 0 0 0 0 0 0 0 127 0" result="hardAlpha"/>
<feOffset dy="4"/>
<feGaussianBlur stdDeviation="2"/>
<feComposite in2="hardAlpha" operator="out"/>
<feColorMatrix type="matrix" values="0 0 0 0 0 0 0 0 0 0 0 0 0 0 0 0 0 0 0.25 0"/>
<feBlend mode="normal" in2="effect1_backgroundBlur_3_1166" result="effect2_dropShadow_3_1166"/>
<feBlend mode="normal" in="SourceGraphic" in2="effect2_dropShadow_3_1166" result="shape"/>
</filter>
<clipPath id="clip0_3_1166">
<rect width="416" height="311" fill="white" transform="matrix(-1 0 0 1 420 0)"/>
</clipPath>
</defs>
</svg>
