<svg width="369" height="328" viewBox="0 0 369 328" fill="none" xmlns="http://www.w3.org/2000/svg">
<g clip-path="url(#clip0_3_966)" filter="url(#filter0_d_3_966)">
<path d="M15.809 197.897C15.753 197.836 15.7133 197.764 15.693 197.687C8.15517 168.843 9.42249 138.627 19.3534 110.412C29.2843 82.1978 47.4877 57.097 71.9298 37.9143C96.3719 18.7315 126.09 6.2223 157.764 1.78422C189.438 -2.65385 221.82 1.15402 251.292 12.7824C251.359 12.8086 251.419 12.8467 251.47 12.8945C251.52 12.9424 251.56 12.999 251.588 13.0611C251.615 13.1233 251.628 13.1897 251.627 13.2568C251.627 13.3238 251.612 13.39 251.584 13.4517C251.555 13.5133 251.514 13.5692 251.463 13.6162C251.411 13.6631 251.35 13.7002 251.283 13.7253C251.216 13.7503 251.144 13.7629 251.072 13.7623C250.999 13.7616 250.928 13.7478 250.861 13.7216C190.563 -10.0312 122.141 -0.350891 72.2964 38.9849C22.7559 78.0806 1.47734 138.799 16.7644 197.447C16.7935 197.558 16.7811 197.676 16.7293 197.78C16.6775 197.884 16.5892 197.969 16.4787 198.021C16.3683 198.074 16.2421 198.09 16.1206 198.067C15.999 198.045 15.8893 197.985 15.809 197.897Z" fill="#E6E6E6"/>
<path d="M116.515 307.417C116.434 307.33 116.388 307.22 116.383 307.105C116.378 306.99 116.416 306.877 116.489 306.784C116.562 306.692 116.667 306.625 116.786 306.594C116.906 306.563 117.033 306.57 117.147 306.615C177.218 329.921 245.311 320.112 294.852 281.016C345.166 241.31 366.532 180.275 350.613 121.729C350.595 121.664 350.592 121.597 350.602 121.53C350.613 121.464 350.637 121.4 350.675 121.343C350.712 121.285 350.761 121.235 350.819 121.195C350.877 121.155 350.943 121.126 351.013 121.11C351.083 121.094 351.156 121.09 351.228 121.1C351.299 121.11 351.368 121.132 351.43 121.167C351.492 121.201 351.547 121.247 351.59 121.3C351.633 121.354 351.664 121.415 351.682 121.48C359.407 149.93 358.427 179.81 348.853 207.772C338.94 236.588 320.474 262.24 295.567 281.793C271.247 300.995 241.654 313.57 210.079 318.118C178.504 322.667 146.186 319.01 116.721 307.556C116.641 307.526 116.571 307.478 116.515 307.417Z" fill="#E6E6E6"/>
<path d="M103.783 316.476C103.736 316.425 103.701 316.366 103.679 316.302C103.656 316.238 103.648 316.171 103.653 316.104C103.659 316.037 103.679 315.972 103.712 315.912C103.745 315.853 103.79 315.8 103.846 315.756L364.092 110.379C364.203 110.291 364.347 110.248 364.493 110.258C364.639 110.269 364.774 110.333 364.868 110.436C364.963 110.539 365.01 110.673 364.998 110.808C364.986 110.943 364.917 111.068 364.806 111.156L104.56 316.533C104.505 316.577 104.441 316.61 104.372 316.63C104.303 316.651 104.231 316.659 104.159 316.653C104.087 316.648 104.016 316.63 103.952 316.599C103.888 316.569 103.83 316.527 103.783 316.476Z" fill="#E6E6E6"/>
<path d="M4.13159 208.104C4.08466 208.053 4.04904 207.994 4.02676 207.93C4.00449 207.866 3.99598 207.799 4.00175 207.732C4.00752 207.665 4.02745 207.6 4.06038 207.54C4.09332 207.481 4.13863 207.428 4.19371 207.384L264.44 2.00677C264.551 1.91916 264.695 1.87605 264.841 1.8869C264.987 1.89776 265.121 1.96169 265.216 2.06466C265.311 2.16763 265.358 2.30121 265.346 2.43604C265.334 2.57088 265.266 2.69595 265.154 2.78376L4.90819 208.161C4.85312 208.205 4.78935 208.238 4.72052 208.258C4.65169 208.279 4.57914 208.287 4.50702 208.281C4.4349 208.276 4.36463 208.258 4.30021 208.227C4.23579 208.197 4.17849 208.155 4.13159 208.104Z" fill="#E6E6E6"/>
<path d="M103.783 316.476C103.736 316.425 103.701 316.366 103.679 316.302C103.656 316.238 103.648 316.171 103.653 316.104C103.659 316.037 103.679 315.972 103.712 315.912C103.745 315.853 103.79 315.8 103.846 315.756L364.092 110.379C364.203 110.291 364.347 110.248 364.493 110.258C364.639 110.269 364.774 110.333 364.868 110.436C364.963 110.539 365.01 110.673 364.998 110.808C364.986 110.943 364.917 111.068 364.806 111.156L104.56 316.533C104.505 316.577 104.441 316.61 104.372 316.63C104.303 316.651 104.231 316.659 104.159 316.653C104.087 316.648 104.016 316.63 103.952 316.599C103.888 316.569 103.83 316.527 103.783 316.476Z" fill="#E6E6E6"/>
<path d="M308.267 84.6495H207.543V84.1609C207.543 83.7805 207.38 83.4156 207.09 83.1465C206.799 82.8775 206.406 82.7263 205.995 82.7263H163.42C163.009 82.7263 162.615 82.8775 162.325 83.1465C162.035 83.4156 161.872 83.7805 161.872 84.1609V84.6495H60.7329C58.9259 84.6495 57.1929 85.3145 55.9152 86.4982C54.6375 87.6819 53.9197 89.2873 53.9197 90.9613V218.732C53.9197 220.406 54.6375 222.011 55.9152 223.195C57.1929 224.379 58.9259 225.044 60.7329 225.044H308.267C310.074 225.044 311.807 224.379 313.084 223.195C314.362 222.011 315.08 220.406 315.08 218.732V90.9613C315.08 89.2873 314.362 87.6819 313.085 86.4982C311.807 85.3145 310.074 84.6495 308.267 84.6495Z" fill="#3F3D56"/>
<path d="M66.1513 98.0825C65.9822 98.0827 65.8202 98.1451 65.7007 98.2558C65.5812 98.3666 65.514 98.5167 65.5138 98.6733V219.867C65.514 220.023 65.5812 220.173 65.7007 220.284C65.8202 220.395 65.9823 220.457 66.1513 220.457H302.849C303.018 220.457 303.18 220.395 303.299 220.284C303.419 220.173 303.486 220.023 303.486 219.867V98.6733C303.486 98.5167 303.419 98.3665 303.299 98.2558C303.18 98.145 303.018 98.0827 302.849 98.0825H66.1513Z" fill="#E81DC7"/>
<path d="M184.292 92.3423C185.668 92.3423 186.784 91.309 186.784 90.0344C186.784 88.7598 185.668 87.7266 184.292 87.7266C182.916 87.7266 181.801 88.7598 181.801 90.0344C181.801 91.309 182.916 92.3423 184.292 92.3423Z" fill="#6C63FF"/>
<path d="M319.616 216.432H295.912V214.164C295.912 214.04 295.76 213.939 295.573 213.939H287.446C287.259 213.939 287.107 214.04 287.107 214.164V216.432H282.028V214.164C282.028 214.04 281.876 213.939 281.689 213.939H273.562C273.374 213.939 273.223 214.04 273.223 214.164V216.432H268.143V214.164C268.143 214.04 267.992 213.939 267.805 213.939H259.677C259.49 213.939 259.339 214.04 259.339 214.164V216.432H254.259V214.164C254.259 214.04 254.108 213.939 253.921 213.939H245.793C245.606 213.939 245.455 214.04 245.455 214.164V216.432H240.375V214.164C240.375 214.04 240.223 213.939 240.036 213.939H231.909C231.722 213.939 231.57 214.04 231.57 214.164V216.432H226.491V214.164C226.491 214.04 226.339 213.939 226.152 213.939H218.025C217.838 213.939 217.686 214.04 217.686 214.164V216.432H212.607V214.164C212.607 214.04 212.455 213.939 212.268 213.939H148.604C148.417 213.939 148.266 214.04 148.266 214.164V216.432H143.186V214.164C143.186 214.04 143.034 213.939 142.847 213.939H134.72C134.533 213.939 134.381 214.04 134.381 214.164V216.432H129.302V214.164C129.302 214.04 129.15 213.939 128.963 213.939H120.836C120.649 213.939 120.497 214.04 120.497 214.164V216.432H115.418V214.164C115.418 214.04 115.266 213.939 115.079 213.939H106.952C106.765 213.939 106.613 214.04 106.613 214.164V216.432H101.534V214.164C101.534 214.04 101.382 213.939 101.195 213.939H93.0677C92.8806 213.939 92.729 214.04 92.729 214.164V216.432H87.6495V214.164C87.6495 214.04 87.4979 213.939 87.3108 213.939H79.1835C78.9965 213.939 78.8449 214.04 78.8449 214.164V216.432H73.7653V214.164C73.7653 214.04 73.6137 213.939 73.4267 213.939H65.2994C65.1123 213.939 64.9607 214.04 64.9607 214.164V216.432H49.3834C44.8948 216.432 41.2561 218.856 41.2561 221.845V224.292C41.2561 227.281 44.8948 229.705 49.3834 229.705H319.616C324.105 229.705 327.744 227.281 327.744 224.292V221.845C327.744 218.856 324.105 216.432 319.616 216.432Z" fill="#3F3D56"/>
<path d="M156.942 149.07H86.9795C86.8334 149.07 86.6933 149.017 86.5899 148.921C86.4866 148.825 86.4286 148.695 86.4286 148.56C86.4286 148.425 86.4866 148.295 86.5899 148.199C86.6933 148.104 86.8334 148.05 86.9795 148.05H156.942C157.088 148.05 157.228 148.104 157.331 148.199C157.435 148.295 157.493 148.425 157.493 148.56C157.493 148.695 157.435 148.825 157.331 148.921C157.228 149.017 157.088 149.07 156.942 149.07Z" fill="#F2F2F2"/>
<path d="M156.942 160.298H86.9795C86.8334 160.298 86.6933 160.244 86.5899 160.149C86.4866 160.053 86.4286 159.923 86.4286 159.788C86.4286 159.652 86.4866 159.523 86.5899 159.427C86.6933 159.331 86.8334 159.277 86.9795 159.277H156.942C157.088 159.277 157.228 159.331 157.331 159.427C157.435 159.523 157.493 159.652 157.493 159.788C157.493 159.923 157.435 160.053 157.331 160.149C157.228 160.244 157.088 160.298 156.942 160.298Z" fill="#F2F2F2"/>
<path d="M156.942 171.526H86.9794C86.9069 171.526 86.8351 171.513 86.7681 171.487C86.7011 171.462 86.6401 171.424 86.5888 171.377C86.5375 171.329 86.4968 171.273 86.469 171.211C86.4412 171.149 86.4269 171.082 86.4269 171.015C86.4269 170.948 86.4412 170.882 86.469 170.82C86.4968 170.758 86.5375 170.701 86.5888 170.654C86.6401 170.606 86.7011 170.569 86.7681 170.543C86.8351 170.518 86.9069 170.505 86.9794 170.505H156.942C157.014 170.505 157.086 170.518 157.153 170.543C157.22 170.569 157.281 170.606 157.332 170.654C157.384 170.701 157.424 170.758 157.452 170.82C157.48 170.882 157.494 170.948 157.494 171.015C157.494 171.082 157.48 171.149 157.452 171.211C157.424 171.273 157.384 171.329 157.332 171.377C157.281 171.424 157.22 171.462 157.153 171.487C157.086 171.513 157.014 171.526 156.942 171.526Z" fill="#F2F2F2"/>
<path d="M275.658 119.726H189.169C188.256 119.726 187.516 120.412 187.516 121.257V198.319C187.516 199.164 188.256 199.85 189.169 199.85H275.658C276.57 199.85 277.31 199.164 277.31 198.319V121.257C277.31 120.412 276.57 119.726 275.658 119.726Z" fill="white"/>
<path d="M205.496 162.13C205.793 157.277 207.94 152.679 211.555 149.156C215.17 145.634 220.018 143.415 225.235 142.896C230.452 142.376 235.698 143.59 240.039 146.321C244.379 149.052 247.532 153.122 248.934 157.806C249.202 157.797 249.47 157.787 249.741 157.787C250.664 157.795 251.58 157.939 252.454 158.214C263.466 161.564 260.566 176.796 248.975 176.796H220.489C218.474 176.801 216.479 176.43 214.623 175.704C212.767 174.978 211.088 173.913 209.687 172.572C208.285 171.231 207.191 169.642 206.468 167.899C205.745 166.157 205.41 164.298 205.481 162.432C205.485 162.332 205.49 162.231 205.496 162.13Z" fill="#6C63FF"/>
<path d="M231.461 161.81V153.416H226.582V161.81H222.687L225.854 166.894L229.022 171.976L232.189 166.894L235.357 161.81H231.461Z" fill="white"/>
</g>
<defs>
<filter id="filter0_d_3_966" x="0" y="0" width="369" height="328" filterUnits="userSpaceOnUse" color-interpolation-filters="sRGB">
<feFlood flood-opacity="0" result="BackgroundImageFix"/>
<feColorMatrix in="SourceAlpha" type="matrix" values="0 0 0 0 0 0 0 0 0 0 0 0 0 0 0 0 0 0 127 0" result="hardAlpha"/>
<feOffset dy="4"/>
<feGaussianBlur stdDeviation="2"/>
<feComposite in2="hardAlpha" operator="out"/>
<feColorMatrix type="matrix" values="0 0 0 0 0 0 0 0 0 0 0 0 0 0 0 0 0 0 0.25 0"/>
<feBlend mode="normal" in2="BackgroundImageFix" result="effect1_dropShadow_3_966"/>
<feBlend mode="normal" in="SourceGraphic" in2="effect1_dropShadow_3_966" result="shape"/>
</filter>
<clipPath id="clip0_3_966">
<rect width="361" height="320" fill="white" transform="translate(4)"/>
</clipPath>
</defs>
</svg>
