<svg width="517" height="344" viewBox="0 0 517 344" fill="none" xmlns="http://www.w3.org/2000/svg">
<g clip-path="url(#clip0_3_1129)" filter="url(#filter0_d_3_1129)">
<path d="M347.194 211.058C346.817 209.922 346.902 208.682 347.431 207.608C347.96 206.534 348.89 205.712 350.021 205.32C350.252 205.243 350.49 205.186 350.731 205.149L353.166 195.143L359.513 195.163L355.88 209.243C355.968 210.252 355.717 211.26 355.167 212.11C354.617 212.959 353.799 213.599 352.844 213.929C352.285 214.115 351.695 214.189 351.107 214.146C350.519 214.102 349.946 213.942 349.421 213.675C348.895 213.408 348.428 213.039 348.046 212.59C347.663 212.141 347.374 211.62 347.194 211.058Z" fill="#9F616A"/>
<path d="M357.911 204.583L348.189 203.899L352.898 175.402L349.901 144.023L359.729 139.931L366.282 174.777L366.264 174.841L357.911 204.583Z" fill="#C308BC"/>
<path d="M282.741 201.243C282.72 200.048 283.173 198.894 284.001 198.033C284.829 197.173 285.964 196.677 287.157 196.655C287.401 196.654 287.644 196.673 287.885 196.712L293.21 187.938L299.249 189.924L291.558 202.207C291.325 203.286 290.701 204.24 289.807 204.886C288.913 205.531 287.812 205.822 286.716 205.702C285.621 205.582 284.608 205.06 283.874 204.237C283.14 203.414 282.737 202.347 282.741 201.243Z" fill="#9F616A"/>
<path d="M312.721 310.946H307.55L305.09 290.687L312.722 290.687L312.721 310.946Z" fill="#9F616A"/>
<path d="M314.04 316.037L297.365 316.037V315.822C297.359 314.078 298.042 312.402 299.266 311.161C299.864 310.549 300.578 310.063 301.366 309.731C302.154 309.4 303.001 309.229 303.856 309.231H303.856L314.04 309.231L314.04 316.037Z" fill="#C308BC"/>
<path d="M348.799 310.946H343.628L341.168 290.687L348.8 290.687L348.799 310.946Z" fill="#9F616A"/>
<path d="M350.118 316.037L333.443 316.037V315.822C333.436 314.078 334.12 312.402 335.344 311.161C335.942 310.549 336.656 310.063 337.444 309.731C338.232 309.4 339.079 309.229 339.933 309.231H339.934L350.118 309.231L350.118 316.037Z" fill="#C308BC"/>
<path d="M343.881 120.704C350.667 120.704 356.167 115.118 356.167 108.226C356.167 101.335 350.667 95.7483 343.881 95.7483C337.096 95.7483 331.595 101.335 331.595 108.226C331.595 115.118 337.096 120.704 343.881 120.704Z" fill="#9F616A"/>
<path d="M339.732 107.542C337.884 108.255 335.843 108.278 333.98 107.607C332.117 106.936 330.557 105.616 329.587 103.888C328.706 102.095 328.484 100.05 328.959 98.1095C329.435 96.1694 330.578 94.4592 332.187 93.2794C335.457 91.0568 340.341 91.7924 343.511 94.3701C345.649 93.3838 348.047 93.1133 350.35 93.5987C352.654 94.0842 354.739 95.2997 356.299 97.0654C359.359 100.661 359.694 106.368 357.464 110.559C356.488 112.747 356.056 115.139 356.203 117.53C356.351 119.922 357.074 122.242 358.311 124.293C357.351 124.253 355.239 124.073 352.597 123.841C351.832 123.774 351.501 121.493 350.663 121.42C349.923 121.355 348.682 123.499 347.907 123.432C342.168 122.94 335.743 122.439 332.831 122.537C334.874 117.424 337.177 112.419 339.732 107.542Z" fill="#C308BC"/>
<path d="M353.303 196.132C353.303 196.132 357.296 200.313 354.858 221.903L353.174 267.746L350.193 308.338L340.605 307.691L332.183 214.262L320.392 248.45L314.043 304.971L304.843 304.324L303.272 248.117L307.305 204.679L353.303 196.132Z" fill="#C308BC"/>
<path d="M313.784 207.294C308.878 207.294 306.903 206.695 306.758 206.649L306.53 206.576L306.57 206.338C306.603 206.141 309.899 186.625 314.421 176.378L317.601 134.825C317.686 133.598 318.182 132.436 319.009 131.527C319.837 130.618 320.947 130.016 322.159 129.819L322.201 130.094L322.159 129.819L330.248 128.53L335.196 124.104L347.049 124.77L348.095 129.863C349.512 130.265 358.868 133.177 359.794 140.15L359.805 140.238L359.765 140.316L342.626 173.803C344.074 175.255 355.52 187.196 356.297 202.463L356.316 202.83L355.963 202.748C355.93 202.742 352.267 202.035 333.006 205.342C324.098 206.871 317.906 207.294 313.784 207.294Z" fill="#C308BC"/>
<path d="M294.783 201.041L287.797 195.577L303.39 163.893L317.892 132.839C318.091 132.407 318.419 132.046 318.83 131.807C319.242 131.567 319.717 131.462 320.191 131.504C320.665 131.546 321.114 131.733 321.477 132.041C321.841 132.349 322.1 132.762 322.22 133.223L325.81 146.449L314.584 176.11L294.783 201.041Z" fill="#C308BC"/>
<path d="M444.748 315.811L445.163 315.042C439.598 312.027 432.671 308.275 429.053 302.118C425.487 296.048 425.407 287.806 428.844 280.607C431.77 274.481 437.144 268.992 444.385 264.735C445.813 263.895 447.313 263.099 448.763 262.329C452.267 260.469 455.892 258.545 458.88 255.815C462.996 252.055 466.11 245.746 463.789 240.127C463.026 238.333 461.776 236.789 460.181 235.672C458.586 234.554 456.71 233.906 454.766 233.803L454.716 234.676C456.497 234.77 458.216 235.363 459.678 236.387C461.139 237.41 462.285 238.824 462.985 240.467C465.142 245.689 462.183 251.615 458.292 255.169C455.385 257.824 451.811 259.722 448.354 261.557C446.896 262.331 445.388 263.131 443.943 263.981C436.551 268.327 431.058 273.946 428.057 280.23C424.496 287.687 424.589 296.244 428.301 302.562C432.042 308.929 439.087 312.745 444.748 315.811Z" fill="#F1F1F1"/>
<path d="M449.234 238.41C453.452 238.41 456.871 236.747 456.871 234.695C456.871 232.643 453.452 230.979 449.234 230.979C445.016 230.979 441.597 232.643 441.597 234.695C441.597 236.747 445.016 238.41 449.234 238.41Z" fill="#F1F1F1"/>
<path d="M443.124 262.889C447.342 262.889 450.761 261.225 450.761 259.173C450.761 257.121 447.342 255.458 443.124 255.458C438.907 255.458 435.487 257.121 435.487 259.173C435.487 261.225 438.907 262.889 443.124 262.889Z" fill="#F1F1F1"/>
<path d="M457.089 266.823C461.307 266.823 464.726 265.159 464.726 263.107C464.726 261.055 461.307 259.392 457.089 259.392C452.871 259.392 449.452 261.055 449.452 263.107C449.452 265.159 452.871 266.823 457.089 266.823Z" fill="#F1F1F1"/>
<path d="M435.269 287.367C439.487 287.367 442.906 285.703 442.906 283.651C442.906 281.599 439.487 279.936 435.269 279.936C431.051 279.936 427.632 281.599 427.632 283.651C427.632 285.703 431.051 287.367 435.269 287.367Z" fill="#F1F1F1"/>
<path d="M419.995 287.367C424.213 287.367 427.632 285.703 427.632 283.651C427.632 281.599 424.213 279.936 419.995 279.936C415.778 279.936 412.358 281.599 412.358 283.651C412.358 285.703 415.778 287.367 419.995 287.367Z" fill="#F1F1F1"/>
<path d="M464.01 317H214.994C214.818 317 214.648 316.93 214.523 316.805C214.398 316.679 214.328 316.509 214.328 316.332C214.328 316.155 214.398 315.985 214.523 315.86C214.648 315.735 214.818 315.665 214.994 315.665H464.333C464.51 315.665 464.68 315.735 464.805 315.86C464.93 315.985 465 316.155 465 316.332C465 316.701 464.379 317 464.01 317Z" fill="#CBCBCB"/>
<path d="M152.363 83.6377H41.6934C40.8096 83.6367 39.9624 83.2846 39.3375 82.6587C38.7126 82.0327 38.361 81.1841 38.36 80.2989V42.9036C38.361 42.0184 38.7126 41.1697 39.3375 40.5438C39.9624 39.9178 40.8096 39.5657 41.6934 39.5647H152.363C153.246 39.5657 154.094 39.9178 154.719 40.5438C155.343 41.1697 155.695 42.0184 155.696 42.9036V80.2989C155.695 81.1841 155.343 82.0328 154.719 82.6587C154.094 83.2846 153.246 83.6367 152.363 83.6377Z" fill="#3F3D56"/>
<path d="M85.0277 49.5813H55.6937V52.9202H85.0277V49.5813Z" fill="white"/>
<path d="M123.695 53.5879C124.8 53.5879 125.695 52.691 125.695 51.5846C125.695 50.4782 124.8 49.5813 123.695 49.5813C122.591 49.5813 121.695 50.4782 121.695 51.5846C121.695 52.691 122.591 53.5879 123.695 53.5879Z" fill="#6C63FF"/>
<path d="M130.362 53.5879C131.467 53.5879 132.362 52.691 132.362 51.5846C132.362 50.4782 131.467 49.5813 130.362 49.5813C129.258 49.5813 128.362 50.4782 128.362 51.5846C128.362 52.691 129.258 53.5879 130.362 53.5879Z" fill="#6C63FF"/>
<path d="M137.029 53.5879C138.133 53.5879 139.029 52.691 139.029 51.5846C139.029 50.4782 138.133 49.5813 137.029 49.5813C135.924 49.5813 135.029 50.4782 135.029 51.5846C135.029 52.691 135.924 53.5879 137.029 53.5879Z" fill="#6C63FF"/>
<path d="M152.363 131.05H41.6934C40.8096 131.049 39.9624 130.697 39.3375 130.071C38.7126 129.445 38.361 128.596 38.36 127.711V90.3157C38.361 89.4305 38.7126 88.5818 39.3375 87.9559C39.9624 87.33 40.8096 86.9778 41.6934 86.9768H152.363C153.246 86.9778 154.094 87.3299 154.719 87.9559C155.343 88.5818 155.695 89.4305 155.696 90.3157V127.711C155.695 128.596 155.343 129.445 154.719 130.071C154.094 130.697 153.246 131.049 152.363 131.05Z" fill="#3F3D56"/>
<path d="M85.0277 96.9934H55.6937V100.332H85.0277V96.9934Z" fill="white"/>
<path d="M123.695 101C124.8 101 125.695 100.103 125.695 98.9967C125.695 97.8903 124.8 96.9934 123.695 96.9934C122.591 96.9934 121.695 97.8903 121.695 98.9967C121.695 100.103 122.591 101 123.695 101Z" fill="#6C63FF"/>
<path d="M130.362 101C131.467 101 132.362 100.103 132.362 98.9967C132.362 97.8903 131.467 96.9934 130.362 96.9934C129.258 96.9934 128.362 97.8903 128.362 98.9967C128.362 100.103 129.258 101 130.362 101Z" fill="#6C63FF"/>
<path d="M137.029 101C138.133 101 139.029 100.103 139.029 98.9967C139.029 97.8903 138.133 96.9934 137.029 96.9934C135.924 96.9934 135.029 97.8903 135.029 98.9967C135.029 100.103 135.924 101 137.029 101Z" fill="#6C63FF"/>
<path d="M152.363 178.462H41.6934C40.8096 178.461 39.9624 178.109 39.3375 177.483C38.7126 176.857 38.361 176.008 38.36 175.123V137.728C38.361 136.842 38.7126 135.994 39.3375 135.368C39.9624 134.742 40.8096 134.39 41.6934 134.389H152.363C153.246 134.39 154.094 134.742 154.719 135.368C155.343 135.994 155.695 136.842 155.696 137.728V175.123C155.695 176.008 155.343 176.857 154.719 177.483C154.094 178.109 153.246 178.461 152.363 178.462Z" fill="#3F3D56"/>
<path d="M85.0277 144.405H55.6937V147.744H85.0277V144.405Z" fill="white"/>
<path d="M123.695 148.412C124.8 148.412 125.695 147.515 125.695 146.409C125.695 145.302 124.8 144.405 123.695 144.405C122.591 144.405 121.695 145.302 121.695 146.409C121.695 147.515 122.591 148.412 123.695 148.412Z" fill="#6C63FF"/>
<path d="M130.362 148.412C131.467 148.412 132.362 147.515 132.362 146.409C132.362 145.302 131.467 144.405 130.362 144.405C129.258 144.405 128.362 145.302 128.362 146.409C128.362 147.515 129.258 148.412 130.362 148.412Z" fill="#6C63FF"/>
<path d="M137.029 148.412C138.133 148.412 139.029 147.515 139.029 146.409C139.029 145.302 138.133 144.405 137.029 144.405C135.924 144.405 135.029 145.302 135.029 146.409C135.029 147.515 135.924 148.412 137.029 148.412Z" fill="#6C63FF"/>
<path d="M112.003 207.485H0V163.256H1.33336V206.149H112.003V207.485Z" fill="#CCCCCC"/>
<path d="M70.0016 9H182.004V53.2293H180.671V10.3355H70.0016V9Z" fill="#CCCCCC"/>
</g>
<defs>
<filter id="filter0_d_3_1129" x="0" y="0" width="517" height="344" filterUnits="userSpaceOnUse" color-interpolation-filters="sRGB">
<feFlood flood-opacity="0" result="BackgroundImageFix"/>
<feColorMatrix in="SourceAlpha" type="matrix" values="0 0 0 0 0 0 0 0 0 0 0 0 0 0 0 0 0 0 127 0" result="hardAlpha"/>
<feOffset dx="34" dy="9"/>
<feGaussianBlur stdDeviation="9"/>
<feComposite in2="hardAlpha" operator="out"/>
<feColorMatrix type="matrix" values="0 0 0 0 0 0 0 0 0 0 0 0 0 0 0 0 0 0 0.68 0"/>
<feBlend mode="normal" in2="BackgroundImageFix" result="effect1_dropShadow_3_1129"/>
<feBlend mode="normal" in="SourceGraphic" in2="effect1_dropShadow_3_1129" result="shape"/>
</filter>
<clipPath id="clip0_3_1129">
<rect width="465" height="308" fill="white" transform="translate(0 9)"/>
</clipPath>
</defs>
</svg>
