<svg width="338" height="293" viewBox="0 0 338 293" fill="none" xmlns="http://www.w3.org/2000/svg">
<g clip-path="url(#clip0_3_1212)" filter="url(#filter0_bd_3_1212)">
<rect width="330" height="285" transform="translate(4)" fill="white" fill-opacity="0.02"/>
<path d="M130.33 45.3499C138.97 45.3499 145.974 39.6413 145.974 32.5994C145.974 25.5575 138.97 19.8489 130.33 19.8489C121.69 19.8489 114.686 25.5575 114.686 32.5994C114.686 39.6413 121.69 45.3499 130.33 45.3499Z" fill="#BA5C6F"/>
<path d="M165.342 26.5617C164.901 25.3827 164.046 24.3345 162.884 23.5463C161.721 22.758 160.301 22.2642 158.798 22.1254C158.763 22.1231 158.727 22.1231 158.692 22.1254C158.65 22.1147 158.607 22.1067 158.563 22.1016C153.325 21.5476 147.501 22.8943 143.582 25.8263C142.127 26.8976 140.963 28.2055 140.166 29.6657C139.439 28.8568 138.482 28.2044 137.376 27.7651C136.27 27.3257 135.05 27.1127 133.821 27.1443C132.235 27.2298 130.72 27.7117 129.483 28.5244C128.246 29.3371 127.346 30.441 126.907 31.6857C126.859 31.8377 126.872 31.9984 126.945 32.1439C127.018 32.2893 127.146 32.4116 127.311 32.4927C127.782 32.8212 128.343 33.0536 128.946 33.1708C130.241 33.3952 131.547 33.6006 132.854 33.7868C135.408 34.1497 137.977 34.4442 140.559 34.6702C142.264 34.8183 143.972 34.9361 145.685 35.0236C149.224 35.2051 152.78 35.2481 156.325 35.1573C158.083 35.1096 159.77 35.0618 161.376 34.4315C162.546 33.9626 163.545 33.2532 164.276 32.3733C164.964 31.527 165.416 30.568 165.6 29.5639C165.784 28.5599 165.696 27.5351 165.342 26.5617Z" fill="#E6E6E6"/>
<path d="M133.159 45.1377C133.129 44.6035 133.019 44.0742 132.83 43.5619C132.387 42.3829 131.531 41.3351 130.368 40.547C129.204 39.759 127.783 39.2649 126.28 39.1256C126.247 39.1232 126.214 39.1232 126.18 39.1256C126.136 39.1154 126.091 39.1074 126.046 39.1017C123.147 38.8123 120.205 39.0588 117.439 39.8228C113.185 40.9832 109.453 43.3231 107.654 46.6658C106.927 45.8564 105.968 45.2037 104.861 44.7644C103.755 44.325 102.533 44.1122 101.303 44.1445C99.7174 44.2299 98.2027 44.7118 96.9655 45.5245C95.7282 46.3372 94.8286 47.4411 94.3893 48.6858C94.3437 48.8379 94.3583 48.9978 94.4309 49.1427C94.5035 49.2877 94.6304 49.4102 94.7936 49.4928C95.2655 49.8204 95.8255 50.0527 96.4282 50.1709C97.7289 50.3954 99.0297 50.6007 100.342 50.7869C102.897 51.1499 105.463 51.4443 108.041 51.6704C113.278 52.1286 118.548 52.2914 123.813 52.1574C125.565 52.1097 127.259 52.0619 128.864 51.4316C130.032 50.9625 131.03 50.2531 131.758 49.3734C132.785 48.126 133.278 46.6369 133.159 45.1377Z" fill="#E6E6E6"/>
<path d="M248.984 206.046H234.723V24.5977C233.762 24.0199 232.796 23.4469 231.817 22.8882C231.624 22.7783 231.43 22.6685 231.237 22.5587C219.958 16.1285 207.757 10.8461 194.905 6.82872L192.14 37.9161L192.14 37.918H174.346V1.61884C173.186 1.38485 172.026 1.16518 170.854 0.959839V37.918H103.662V0C102.496 0.176687 101.33 0.358151 100.17 0.55394V37.918H81.7906L81.7905 37.9161L78.8902 5.31494C66.3832 8.84838 54.4305 13.5703 43.279 19.3831C42.8923 19.5836 42.5056 19.7842 42.1189 19.9943C41.3397 20.405 40.5604 20.8252 39.7929 21.2502V206.046H19.7139C17.145 206.045 14.6149 206.557 12.3455 207.538C10.0761 208.519 8.13659 209.939 6.69711 211.673C5.25762 213.407 4.36206 215.403 4.08898 217.485C3.8159 219.567 4.17363 221.671 5.13079 223.614C5.41797 224.202 5.76078 224.77 6.15612 225.314C6.66672 226.024 7.25923 226.692 7.92556 227.31C9.39747 228.678 11.2105 229.773 13.2434 230.523C15.2763 231.273 17.4823 231.661 19.714 231.661H248.984C253.152 231.661 257.149 230.311 260.096 227.91C263.043 225.508 264.698 222.25 264.698 218.853C264.698 215.457 263.043 212.199 260.096 209.797C257.149 207.395 253.152 206.046 248.984 206.046L248.984 206.046ZM188.308 81.0766L177.217 206.046H96.7134L85.6224 81.0766H188.308ZM191.888 40.7636L189.152 71.5912H174.346V40.7636H191.888ZM170.854 40.7636V71.5912H144.118C143.582 70.735 142.767 70.0161 141.762 69.5139C140.756 69.0117 139.6 68.7458 138.421 68.7456H134.93C133.751 68.7458 132.595 69.0117 131.589 69.5139C130.584 70.0161 129.769 70.735 129.233 71.5912H103.662V40.7636H170.854ZM100.17 71.5912H84.7786L82.0426 40.7636H100.17V71.5912Z" fill="#F2F2F2"/>
<path d="M5.38733 226.698C10.4772 231.613 15.9825 236.233 21.863 240.522L244.26 241C250.141 236.71 255.646 232.091 260.736 227.175L5.38733 226.698Z" fill="#C326D0"/>
<path d="M117.699 180.468V229.444H159.797V180.468C159.797 180.116 159.659 179.772 159.403 179.489C159.147 179.205 158.786 178.996 158.373 178.892C158.178 178.84 157.974 178.814 157.769 178.816H119.732C119.466 178.815 119.202 178.858 118.955 178.94C118.709 179.023 118.485 179.145 118.296 179.298C118.107 179.452 117.957 179.634 117.855 179.835C117.752 180.035 117.7 180.25 117.699 180.468ZM134.128 197.296C134.139 196.331 134.618 195.408 135.459 194.728C136.301 194.049 137.437 193.668 138.622 193.668C139.807 193.668 140.943 194.049 141.785 194.728C142.626 195.408 143.105 196.331 143.116 197.296V202.979C143.11 203.947 142.634 204.874 141.792 205.557C140.949 206.239 139.81 206.623 138.622 206.623C137.434 206.623 136.295 206.239 135.452 205.557C134.61 204.874 134.134 203.947 134.128 202.979V197.296Z" fill="#631D58"/>
<path d="M117.57 227.877V232.6C117.571 232.845 117.691 233.079 117.902 233.253C118.114 233.426 118.401 233.524 118.701 233.526H158.795C159.095 233.525 159.383 233.427 159.595 233.253C159.807 233.08 159.925 232.845 159.925 232.6V227.877H117.57Z" fill="#C326D0"/>
<path d="M51.4746 106.679V196.102C51.4757 197.242 52.0316 198.334 53.0203 199.14C54.009 199.946 55.3496 200.399 56.7477 200.4H219.336C220.734 200.399 222.075 199.946 223.064 199.14C224.052 198.334 224.608 197.242 224.609 196.102V106.679C224.606 105.541 224.049 104.45 223.061 103.645C222.072 102.84 220.733 102.388 219.336 102.386H56.7477C55.3508 102.388 54.0115 102.84 53.0231 103.645C52.0348 104.45 51.4779 105.541 51.4746 106.679Z" fill="#C326D0"/>
<path d="M55.2888 107.792V194.999C55.2901 195.608 55.5874 196.191 56.1157 196.622C56.6439 197.053 57.36 197.295 58.107 197.296H217.983C218.73 197.295 219.446 197.053 219.974 196.622C220.502 196.191 220.8 195.608 220.801 194.999V107.792C220.801 107.182 220.504 106.598 219.976 106.166C219.447 105.735 218.731 105.492 217.983 105.49H58.107C57.3591 105.492 56.6423 105.735 56.114 106.166C55.5856 106.598 55.2889 107.182 55.2888 107.792Z" fill="#E4CCE8"/>
<path d="M87.8885 234.639C88.0512 234.805 88.2581 234.939 88.4935 235.031C88.7289 235.123 88.9868 235.17 89.2478 235.169H184.364C184.624 235.169 184.88 235.121 185.115 235.03C185.35 234.939 185.557 234.806 185.721 234.641C185.885 234.476 186.001 234.284 186.062 234.078C186.124 233.872 186.128 233.657 186.074 233.45L184.598 227.734C184.537 227.501 184.405 227.284 184.215 227.103C184.024 226.922 183.781 226.782 183.508 226.698C183.31 226.634 183.1 226.602 182.887 226.602H90.7184C90.5059 226.602 90.2952 226.634 90.0974 226.698C89.8241 226.782 89.5812 226.922 89.3909 227.103C89.2006 227.284 89.0688 227.501 89.0076 227.734L87.5311 233.45C87.4786 233.657 87.4834 233.872 87.5452 234.077C87.607 234.283 87.7243 234.475 87.8885 234.639Z" fill="#631D58"/>
<path d="M90.7184 227.796C90.6895 227.796 90.6608 227.8 90.6337 227.808C90.5871 227.821 90.5452 227.843 90.5117 227.873C90.4782 227.902 90.4542 227.938 90.4418 227.977L88.9644 233.696C88.9566 233.729 88.9579 233.763 88.9681 233.796C88.9784 233.828 88.9975 233.859 89.0239 233.885L89.0305 233.891C89.0559 233.918 89.0889 233.94 89.1267 233.955C89.1646 233.969 89.2061 233.976 89.2479 233.975H184.364C184.405 233.976 184.446 233.968 184.484 233.954C184.521 233.939 184.554 233.918 184.58 233.892C184.608 233.866 184.628 233.836 184.639 233.803C184.65 233.77 184.651 233.735 184.642 233.702L183.165 227.979C183.154 227.942 183.132 227.907 183.101 227.878C183.07 227.849 183.031 227.827 182.987 227.813C182.955 227.802 182.921 227.796 182.887 227.796H90.7184Z" fill="white"/>
<path d="M63.2474 117.503H212.842C212.998 117.501 213.146 117.448 213.255 117.358C213.363 117.267 213.424 117.145 213.424 117.019C213.424 116.892 213.363 116.77 213.255 116.679C213.146 116.589 212.998 116.537 212.842 116.534H63.2474C63.0919 116.537 62.9439 116.589 62.8352 116.679C62.7264 116.77 62.6655 116.892 62.6655 117.019C62.6655 117.145 62.7264 117.267 62.8352 117.358C62.9439 117.448 63.0919 117.501 63.2474 117.503Z" fill="#C326D0"/>
<path d="M202.659 114.058C204.585 114.058 206.146 112.757 206.146 111.153C206.146 109.549 204.585 108.248 202.659 108.248C200.734 108.248 199.173 109.549 199.173 111.153C199.173 112.757 200.734 114.058 202.659 114.058Z" fill="#C326D0"/>
<path d="M190.615 114.058C192.541 114.058 194.102 112.757 194.102 111.153C194.102 109.549 192.541 108.248 190.615 108.248C188.69 108.248 187.129 109.549 187.129 111.153C187.129 112.757 188.69 114.058 190.615 114.058Z" fill="#C326D0"/>
<path d="M178.572 114.058C180.497 114.058 182.058 112.757 182.058 111.153C182.058 109.549 180.497 108.248 178.572 108.248C176.646 108.248 175.085 109.549 175.085 111.153C175.085 112.757 176.646 114.058 178.572 114.058Z" fill="#C326D0"/>
<path d="M69.8611 109.497C69.8607 109.565 69.8769 109.633 69.9088 109.697C69.9407 109.76 69.9876 109.818 70.0469 109.867C70.1062 109.916 70.1767 109.955 70.2544 109.981C70.3321 110.008 70.4155 110.022 70.4997 110.022H79.0539C79.223 110.019 79.3839 109.962 79.5021 109.863C79.6203 109.764 79.6865 109.632 79.6865 109.494C79.6865 109.356 79.6203 109.224 79.5021 109.125C79.3839 109.027 79.223 108.97 79.0539 108.967H70.4997C70.329 108.968 70.166 109.025 70.0463 109.124C69.9266 109.224 69.8601 109.357 69.8611 109.497Z" fill="#C326D0"/>
<path d="M69.8611 111.479C69.8607 111.547 69.8769 111.615 69.9088 111.679C69.9406 111.742 69.9876 111.8 70.0469 111.849C70.1062 111.898 70.1767 111.937 70.2544 111.963C70.3321 111.99 70.4155 112.004 70.4997 112.004H79.0539C79.2232 112.001 79.3842 111.944 79.5026 111.845C79.6209 111.747 79.6872 111.614 79.6872 111.476C79.6872 111.338 79.6209 111.206 79.5026 111.107C79.3842 111.008 79.2232 110.952 79.0539 110.948H70.4997C70.329 110.95 70.166 111.007 70.0463 111.106C69.9266 111.205 69.8601 111.339 69.8611 111.479Z" fill="#C326D0"/>
<path d="M69.8611 113.455C69.8601 113.595 69.9266 113.729 70.0463 113.828C70.166 113.927 70.329 113.984 70.4997 113.986H79.0539C79.223 113.982 79.3839 113.925 79.5021 113.827C79.6203 113.728 79.6865 113.596 79.6865 113.458C79.6865 113.32 79.6203 113.188 79.5021 113.089C79.3839 112.99 79.223 112.933 79.0539 112.93H70.4997C70.4155 112.93 70.3321 112.944 70.2544 112.971C70.1767 112.997 70.1062 113.036 70.0469 113.085C69.9876 113.134 69.9406 113.192 69.9088 113.255C69.8769 113.319 69.8607 113.387 69.8611 113.455Z" fill="#C326D0"/>
<path d="M190.553 132.304H85.5369C84.1573 132.305 82.8346 132.753 81.8591 133.548C80.8836 134.343 80.3349 135.421 80.3333 136.545V178.204C80.3348 179.328 80.8835 180.406 81.859 181.201C82.8346 181.996 84.1572 182.444 85.5369 182.445H190.553C191.932 182.444 193.255 181.996 194.231 181.201C195.206 180.406 195.755 179.328 195.756 178.204V136.545C195.755 135.421 195.206 134.343 194.231 133.548C193.255 132.753 191.932 132.305 190.553 132.304ZM194.585 136.545V148.699H157.673V133.259H190.553C191.622 133.26 192.647 133.607 193.402 134.223C194.158 134.839 194.583 135.674 194.585 136.545H194.585ZM119.589 165.095V149.654H156.501V165.095H119.589ZM156.501 166.05V181.49H119.589V166.05H156.501ZM118.417 165.095H81.5051V149.654H118.417V165.095ZM119.589 148.699V133.259H156.501V148.699H119.589ZM157.673 149.654H194.585V165.095H157.673V149.654ZM85.5369 133.259H118.417V148.699H81.5051V136.545C81.5063 135.674 81.9314 134.839 82.6873 134.223C83.4431 133.607 84.4679 133.26 85.5369 133.259V133.259ZM81.5051 178.204V166.05H118.417V181.49H85.5369C84.4679 181.489 83.4431 181.142 82.6872 180.526C81.9314 179.91 81.5062 179.075 81.5051 178.204ZM190.553 181.49H157.673V166.05H194.585V178.204C194.583 179.075 194.158 179.91 193.402 180.526C192.647 181.142 191.622 181.489 190.553 181.49H190.553Z" fill="#C326D0"/>
<path d="M132.707 142.881C131.776 141.624 130.671 140.283 128.942 139.873C126.939 139.398 124.882 140.342 123.137 141.273C117.918 144.058 112.892 147.076 108.082 150.313L108.087 150.362L119.321 149.731C122.027 149.578 124.825 149.405 127.216 148.362C128.123 147.966 129.008 147.438 130.036 147.401C131.313 147.355 132.427 148.082 133.302 148.842C138.48 153.335 139.978 160.207 145.786 164.155C142.124 156.793 137.75 149.679 132.707 142.881Z" fill="white"/>
<path d="M164.532 180.993C163.959 180.404 163.725 180.266 163.161 179.671C158.562 174.824 154.24 169.813 150.194 164.638C147.446 161.123 144.834 157.541 142.359 153.892C141.18 152.157 140.034 150.408 138.92 148.646C138.055 147.28 137.21 145.905 136.385 144.522C136.148 144.127 135.919 143.731 135.691 143.333C135.153 142.398 134.624 141.458 134.057 140.536C133.472 139.428 132.574 138.449 131.439 137.676C130.899 137.341 130.253 137.139 129.577 137.092C128.625 137.096 127.693 137.314 126.883 137.721C120.747 140.35 115.021 143.568 109.826 147.308C104.623 151.032 99.9718 155.24 95.9682 159.845C95.8457 159.988 95.5561 159.851 95.6797 159.708C96.1665 159.147 96.663 158.592 97.1691 158.043C103.462 151.221 111.178 145.355 119.965 140.713C121.443 139.932 122.949 139.188 124.483 138.48C125.256 138.123 126.033 137.771 126.822 137.441C127.579 137.079 128.428 136.865 129.303 136.814C132.313 136.776 133.872 139.554 134.942 141.424C135.278 142.012 135.619 142.598 135.963 143.183C137.266 145.403 138.618 147.602 140.02 149.782C140.886 151.127 141.77 152.465 142.674 153.795C145.485 157.936 148.474 161.993 151.639 165.966C155.832 171.229 159.991 175.879 164.768 180.8C164.899 180.937 164.664 181.131 164.532 180.993Z" fill="white"/>
<path d="M109.528 145.936C109.353 145.777 109.18 145.618 109.004 145.459C107.616 144.208 106.126 142.972 104.22 142.255C103.312 141.902 102.32 141.714 101.313 141.705C100.274 141.728 99.2504 141.91 98.2942 142.242C97.8397 142.39 97.3952 142.558 96.9575 142.737C96.4573 142.942 95.966 143.161 95.477 143.381C94.5591 143.795 93.6531 144.227 92.759 144.678C90.98 145.574 89.2568 146.538 87.5892 147.571C86.7247 148.107 85.8781 148.66 85.0493 149.231C84.2785 149.761 83.5233 150.306 82.7836 150.864C82.6254 150.983 82.3893 150.791 82.5474 150.672C82.7424 150.524 82.9395 150.377 83.1367 150.231C83.6937 149.821 84.2596 149.419 84.8344 149.024C85.8826 148.303 86.9579 147.61 88.0604 146.945C89.7748 145.91 91.5482 144.945 93.3806 144.05C94.2963 143.604 95.2246 143.176 96.1655 142.767C96.4495 142.643 96.7369 142.522 97.0277 142.408C97.6873 142.137 98.3728 141.909 99.0773 141.728C100.075 141.465 101.131 141.38 102.173 141.48C103.179 141.599 104.148 141.873 105.029 142.285C106.901 143.138 108.352 144.456 109.765 145.743C109.907 145.873 109.672 146.067 109.528 145.936Z" fill="white"/>
<path d="M147.873 158.901L152.357 157.564L154.584 156.9C155.303 156.664 156.037 156.458 156.782 156.283C157.434 156.131 158.125 156.139 158.772 156.304C159.348 156.478 159.876 156.744 160.324 157.088C160.781 157.431 161.206 157.801 161.596 158.196C162.081 158.671 162.559 159.15 163.038 159.629C165.018 161.602 166.985 163.584 168.94 165.575C170.894 167.566 172.835 169.565 174.762 171.572C176.695 173.585 178.614 175.606 180.52 177.635C180.754 177.883 180.987 178.132 181.22 178.381C181.349 178.518 181.639 178.383 181.509 178.244C179.589 176.194 177.655 174.153 175.708 172.12C173.757 170.082 171.792 168.053 169.813 166.032C167.834 164.012 165.842 162 163.837 159.997C163.338 159.498 162.837 159 162.336 158.502C161.913 158.082 161.495 157.657 161.031 157.266C160.637 156.879 160.152 156.558 159.605 156.323C159.058 156.088 158.459 155.944 157.844 155.897C157.098 155.919 156.363 156.05 155.675 156.286C154.926 156.507 154.178 156.732 153.429 156.955L148.913 158.302L147.784 158.638C147.584 158.698 147.67 158.961 147.873 158.901V158.901Z" fill="white"/>
<path d="M103.63 143.829C102.478 143.366 101.195 143.161 99.9139 143.236C98.6326 143.311 97.3987 143.662 96.3389 144.254C100.333 144.815 104.284 145.567 108.171 146.504C106.557 145.733 105.294 144.526 103.63 143.829Z" fill="white"/>
<path d="M96.3164 144.25L95.8777 144.541C96.0261 144.439 96.1804 144.344 96.3388 144.254L96.3164 144.25Z" fill="white"/>
<path d="M160.155 158.914C159.762 158.442 159.215 158.07 158.576 157.84L157.959 157.859C162.652 164.618 168.99 170.523 176.583 175.213L160.155 158.914Z" fill="white"/>
<path d="M157.271 151.514C159.231 151.514 160.821 150.219 160.821 148.621C160.821 147.023 159.231 145.728 157.271 145.728C155.31 145.728 153.721 147.023 153.721 148.621C153.721 150.219 155.31 151.514 157.271 151.514Z" fill="white"/>
<path d="M208.786 180.774C209.485 180.773 210.155 180.546 210.65 180.143C211.144 179.74 211.422 179.194 211.423 178.625V134.214C211.423 133.644 211.145 133.098 210.651 132.695C210.156 132.292 209.486 132.065 208.786 132.065C208.087 132.065 207.417 132.292 206.922 132.695C206.428 133.098 206.15 133.644 206.15 134.214V178.625C206.151 179.194 206.429 179.74 206.923 180.143C207.418 180.546 208.088 180.773 208.786 180.774Z" fill="#C326D0"/>
<path d="M208.786 180.774C209.485 180.773 210.155 180.546 210.65 180.143C211.144 179.74 211.422 179.194 211.423 178.625V169.208C211.119 168.87 210.722 168.596 210.264 168.407C209.806 168.217 209.3 168.119 208.786 168.119C208.273 168.119 207.767 168.217 207.309 168.407C206.851 168.596 206.454 168.87 206.15 169.208V178.625C206.151 179.194 206.429 179.74 206.923 180.143C207.418 180.546 208.088 180.773 208.786 180.774Z" fill="#631D58"/>
<path d="M208.786 171.701C209.538 171.7 210.259 171.456 210.79 171.023C211.322 170.589 211.621 170.002 211.622 169.389V159.262C211.295 158.899 210.868 158.604 210.376 158.4C209.883 158.197 209.339 158.091 208.786 158.091C208.234 158.091 207.69 158.197 207.197 158.4C206.704 158.604 206.277 158.899 205.951 159.262V169.389C205.952 170.002 206.251 170.589 206.783 171.023C207.314 171.456 208.035 171.7 208.786 171.701Z" fill="#E4CCE8"/>
<path d="M208.786 169.859C209.335 169.858 209.86 169.681 210.248 169.365C210.636 169.049 210.854 168.62 210.855 168.173V160.786C210.616 160.522 210.305 160.306 209.946 160.158C209.586 160.01 209.189 159.932 208.786 159.932C208.384 159.932 207.987 160.01 207.627 160.158C207.268 160.306 206.957 160.522 206.718 160.786V168.173C206.719 168.62 206.937 169.049 207.325 169.365C207.713 169.681 208.238 169.858 208.786 169.859Z" fill="#C326D0"/>
<path d="M127.449 230.666C126.986 230.328 126.707 229.854 126.672 229.348C126.637 228.843 126.85 228.346 127.263 227.968L150.299 206.961C150.504 206.774 150.752 206.622 151.029 206.513C151.307 206.404 151.608 206.341 151.915 206.327C152.222 206.313 152.53 206.348 152.82 206.431C153.111 206.514 153.378 206.642 153.608 206.81C153.837 206.977 154.024 207.179 154.158 207.405C154.291 207.631 154.369 207.876 154.386 208.127C154.403 208.377 154.36 208.628 154.258 208.865C154.157 209.102 153.999 209.32 153.794 209.507L130.758 230.514C130.344 230.891 129.763 231.119 129.142 231.148C128.522 231.176 127.913 231.003 127.449 230.666Z" fill="#E4CCE8"/>
<path d="M318.543 265.254C318.543 268.735 317.535 271.399 317.658 273.529C310.747 275.988 303.642 278.065 296.39 279.747C295.569 279.938 294.749 280.119 293.923 280.301C289.452 269.145 284.976 258.931 283.213 257.847C279.176 255.378 277.154 265.593 277.154 263.124C277.154 260.655 279.176 260.655 274.131 257.365C269.081 254.075 272.11 239.266 272.11 239.266L265.044 224.458L272.948 200.839L283.213 170.158H293.308C293.308 170.158 293.607 170.334 294.105 170.664C296.63 172.345 304.247 177.961 303.403 184.145C303.151 185.988 303.713 191.346 304.692 198.48C307.668 220.022 314.506 243.44 314.506 249.619C314.506 257.847 318.543 260.316 318.543 265.254Z" fill="#E6E6E6"/>
<path d="M310.078 198.399C310.066 198.375 310.06 198.356 310.048 198.337C309.822 197.84 309.558 197.356 309.257 196.886C307.552 194.274 309.357 190.262 307.435 185.831C304.33 178.649 300.545 174.413 294.996 170.617C294.832 170.502 294.668 170.392 294.498 170.277L294.493 170.273C290.79 167.794 286.325 165.478 280.782 162.594C279.628 161.992 278.421 161.367 277.167 160.708C275.55 159.862 275.638 157.045 275.732 154.065C275.837 150.756 275.949 147.327 273.957 145.188L273.828 145.049L273.623 145.006C266.792 143.905 259.826 143.468 252.87 143.703H252.864C249.91 143.792 246.977 144.143 244.117 144.749C243.906 144.796 243.695 144.844 243.49 144.901C243.331 144.935 243.173 144.978 243.015 145.021L242.886 145.059L242.787 145.135C240.859 146.706 240.414 149.524 240.203 152.461V152.465C240.162 153 240.127 153.535 240.097 154.07C239.933 156.926 239.781 159.624 238.492 160.794C235.617 163.448 232.142 165.627 228.256 167.212C222.204 169.647 217.417 169.571 217.346 169.571L216.79 169.556L216.737 170.005C212.718 176.247 212.87 192.349 212.747 209.593C212.741 210.553 212.733 211.517 212.724 212.487C212.653 220.519 212.466 228.689 211.728 236.134C211.405 239.334 210.989 242.394 210.433 245.255C207.726 259.185 195.463 247.619 189.598 256.888C189.791 257.799 190.115 258.689 190.565 259.538C191.239 259.863 191.93 260.178 192.615 260.493C195.656 261.873 198.754 263.161 201.908 264.356C202.084 264.423 202.259 264.49 202.435 264.552C208.221 266.734 214.184 268.588 220.282 270.101C221.471 270.397 222.661 270.679 223.862 270.946C234.486 273.337 245.426 274.672 256.444 274.924C256.489 274.92 256.534 274.918 256.579 274.919C269.609 274.626 282.553 273.105 295.155 270.387C295.33 270.349 295.506 270.311 295.682 270.273C296.508 270.091 297.328 269.91 298.149 269.719C305.401 268.037 312.506 265.96 319.417 263.501C319.424 263.711 319.449 263.92 319.493 264.127C319.499 264.194 319.511 264.261 319.528 264.328C319.54 264.251 319.552 264.175 319.558 264.098C319.593 263.874 319.622 263.645 319.651 263.415C323.237 234.916 315.79 210.72 310.078 198.399Z" fill="#C326D0"/>
<path d="M229.554 128.552C233.13 133.882 238.827 138.06 245.705 140.398C252.584 142.737 260.235 143.096 267.397 141.417C274.56 139.739 280.808 136.122 285.112 131.162C289.416 126.203 291.519 120.197 291.075 114.133C290.631 108.069 287.667 102.31 282.67 97.8025C277.674 93.2952 270.943 90.3093 263.586 89.3364C256.229 88.3635 248.685 89.4616 242.196 92.4499C235.708 95.4383 230.661 100.139 227.888 105.777C227.737 106.083 227.602 106.389 227.467 106.707C225.899 110.261 225.275 114.046 225.634 117.812C225.994 121.578 227.33 125.238 229.554 128.552Z" fill="#FFB6B6"/>
<path d="M224.84 106.707C226.251 103.488 225.635 105.165 227.062 101.958C226.131 104.798 227.602 106.389 227.467 106.707H266.522V88.2028C255.081 84.5069 243.894 81.3617 237.137 88.2028C231.116 88.203 225.341 90.1526 221.084 93.6228C216.826 97.0929 214.434 101.799 214.434 106.707H224.84Z" fill="#631D58"/>
<path d="M238.684 158.144C238.714 157.801 238.759 157.446 238.819 157.104C239.239 154.582 240.29 152.159 241.357 149.761C242.483 147.178 243.624 144.584 244.765 142.002C243.295 146.689 243.744 151.639 246.041 156.1C252.633 151.915 248.474 142.344 257.093 142.344C277.814 142.344 299.136 128.65 299.136 111.749C299.136 94.8604 290.247 82.2307 269.525 82.2307C248.789 82.2307 231.972 89.9651 231.566 106.854C257.093 111.749 233.864 156.43 238.684 158.144Z" fill="#631D58"/>
<path d="M296.547 109.161C309.815 109.161 320.571 100.394 320.571 89.5795C320.571 78.7652 309.815 69.9985 296.547 69.9985C283.278 69.9985 272.522 78.7652 272.522 89.5795C272.522 100.394 283.278 109.161 296.547 109.161Z" fill="#631D58"/>
<path d="M334 201.876C333.918 202.883 333.846 203.956 333.783 205.094C332.541 226.531 333.613 255.388 325.241 271.046C323.366 271.882 321.472 272.681 319.558 273.444C319.481 273.472 319.411 273.501 319.347 273.53C318.831 273.735 318.315 273.936 317.8 274.127C317.781 274.14 317.759 274.149 317.735 274.155C312.074 276.336 306.238 278.204 300.27 279.747C299.537 279.938 298.799 280.12 298.061 280.301C297.903 280.339 297.744 280.377 297.586 280.416C286.341 283.126 274.715 284.649 262.994 284.947C262.385 284.962 261.787 284.971 261.207 284.981C261.002 284.986 260.803 284.99 260.604 284.99C259.948 284.995 259.297 285 258.641 285C257.317 285 255.999 284.984 254.686 284.952C243.669 284.7 232.729 283.365 222.104 280.974C220.903 280.707 219.714 280.425 218.524 280.129C212.426 278.616 206.463 276.762 200.678 274.58C200.502 274.518 200.326 274.451 200.15 274.384C196.998 273.191 193.901 271.903 190.858 270.521C190.172 270.206 189.481 269.891 188.807 269.566C188.358 268.717 188.033 267.827 187.84 266.916C186.51 261.706 185.444 265.221 184.682 254.381C183.985 244.443 183.54 234.477 183.376 228.78C183.323 227.261 183.306 226.044 183.3 225.213C183.921 221.593 193.905 217.486 208.464 213.585C209.841 213.217 211.265 212.849 212.724 212.487C216.661 211.498 220.868 210.529 225.262 209.593C236.453 207.205 248.88 205.013 261.213 203.203C267.301 202.315 273.365 201.518 279.253 200.84C289.583 199.646 299.356 198.82 307.716 198.481C308.519 198.447 309.304 198.418 310.078 198.399C310.91 198.371 311.724 198.352 312.521 198.337C324.567 198.122 332.793 199.144 334 201.876Z" fill="#631D58"/>
<path opacity="0.2" d="M334 201.876C333.918 202.883 333.846 203.956 333.783 205.094C324.655 197.081 226.317 232.877 184.682 254.381C183.985 244.443 183.54 234.477 183.376 228.78C183.323 227.261 183.305 226.044 183.3 225.213C183.921 221.593 193.904 217.486 208.464 213.585C209.841 213.217 211.265 212.85 212.724 212.487C216.661 211.498 220.868 210.529 225.262 209.593C236.453 207.205 248.88 205.013 261.213 203.203C267.301 202.315 273.365 201.518 279.253 200.84C289.583 199.646 299.356 198.82 307.716 198.481C308.519 198.447 309.304 198.418 310.078 198.399C310.91 198.371 311.724 198.352 312.521 198.337C324.567 198.122 332.793 199.144 334 201.876Z" fill="black"/>
<path d="M134.013 226.714C134.935 227.661 136.101 228.433 137.428 228.973C138.755 229.514 140.212 229.811 141.695 229.843C143.179 229.875 144.653 229.641 146.014 229.159C147.374 228.677 148.589 227.957 149.571 227.051L182.938 238.22L179.337 223.227L148.204 214.919C146.226 213.675 143.758 213.065 141.265 213.205C138.773 213.345 136.43 214.225 134.681 215.679C132.931 217.133 131.897 219.059 131.774 221.093C131.651 223.127 132.447 225.127 134.013 226.714Z" fill="#FFB6B6"/>
<path d="M245.003 164.281L244.82 164.265L225.363 165.416C222.893 165.562 220.489 166.135 218.311 167.096C216.133 168.057 214.23 169.385 212.73 170.992C212.033 171.736 211.429 172.535 210.929 173.378L210.924 173.38C209.246 176.178 208.741 179.346 209.484 182.4L218.645 219.983L196.604 218.351L188.558 219.472L179.064 216.35L159.582 216.62L159.13 217.837L155.043 228.879L154.723 229.747L184.472 245.026L193.097 242.888L197.16 245.432L197.355 245.436L205.413 245.566L239.775 246.115L249.167 232.552L250.635 230.426C261.544 210.508 264.235 196.604 263.381 187.025C262.934 181.964 261.498 178.116 259.76 175.217C254.386 166.257 245.381 164.356 245.003 164.281Z" fill="#C326D0"/>
<path d="M299.585 106.964C295.029 106.129 290.805 104.37 287.305 101.851C283.805 99.3313 281.142 96.1324 279.563 92.5506C278.153 89.2184 277.621 85.5595 275.255 82.5939C278.86 78.5597 281.75 74.1324 283.841 69.4421C284.651 67.6263 286.547 64.3301 283.333 63.3312C280.772 62.5354 277.863 64.4561 276.345 65.9717C275.192 67.1201 274.365 68.4624 273.924 69.9021C273.4 68.0182 272.877 66.1343 272.353 64.2504C272.287 64.0696 272.137 63.9167 271.936 63.8235C271.734 63.7304 271.497 63.704 271.272 63.7501C266.982 64.3461 263.871 67.5836 263.331 70.9936C263.036 72.7492 263.526 74.5326 264.711 76.018C266.089 77.7267 268.107 78.9518 270.028 80.2251C272.07 81.5793 273.801 83.0215 274.899 85.0018C276.04 87.0599 276.554 89.3123 277.311 91.4735C278.748 95.6243 281.532 99.3824 285.37 102.352C289.208 105.321 293.957 107.392 299.118 108.345C300.22 108.542 300.691 107.161 299.585 106.964ZM275.36 72.7174C275.222 70.9178 275.805 69.1304 277.022 67.6247C277.631 66.8612 278.395 66.1873 279.28 65.6315C280.119 65.1089 281.357 64.4169 282.467 64.6088C283.907 64.8578 283.328 66.1679 283.022 66.9579C282.619 68.0003 282.175 69.0315 281.691 70.0517C280.749 72.0328 279.655 73.9638 278.416 75.8334C277.773 76.8065 277.085 77.759 276.367 78.6959C275.873 76.915 275.378 75.1342 274.883 73.3533C275.039 73.3067 275.171 73.2185 275.257 73.1031C275.344 72.9876 275.38 72.8517 275.36 72.7174ZM265.095 73.0024C264.807 71.3751 265.224 69.717 266.274 68.3131C267.324 66.9091 268.941 65.8469 270.847 65.3091C272.242 70.3297 273.637 75.3503 275.032 80.3709C274.744 80.717 274.447 81.0579 274.149 81.3985C274.071 81.3253 274 81.2497 273.919 81.1778C270.993 78.5823 265.89 76.8129 265.095 73.0024Z" fill="#E4CCE8"/>
</g>
<defs>
<filter id="filter0_bd_3_1212" x="-25" y="-29" width="388" height="343" filterUnits="userSpaceOnUse" color-interpolation-filters="sRGB">
<feFlood flood-opacity="0" result="BackgroundImageFix"/>
<feGaussianBlur in="BackgroundImageFix" stdDeviation="14.5"/>
<feComposite in2="SourceAlpha" operator="in" result="effect1_backgroundBlur_3_1212"/>
<feColorMatrix in="SourceAlpha" type="matrix" values="0 0 0 0 0 0 0 0 0 0 0 0 0 0 0 0 0 0 127 0" result="hardAlpha"/>
<feOffset dy="4"/>
<feGaussianBlur stdDeviation="2"/>
<feComposite in2="hardAlpha" operator="out"/>
<feColorMatrix type="matrix" values="0 0 0 0 0 0 0 0 0 0 0 0 0 0 0 0 0 0 0.25 0"/>
<feBlend mode="normal" in2="effect1_backgroundBlur_3_1212" result="effect2_dropShadow_3_1212"/>
<feBlend mode="normal" in="SourceGraphic" in2="effect2_dropShadow_3_1212" result="shape"/>
</filter>
<clipPath id="clip0_3_1212">
<rect width="330" height="285" fill="white" transform="translate(4)"/>
</clipPath>
</defs>
</svg>
