<svg width="30" height="30" viewBox="0 0 30 30" fill="none" xmlns="http://www.w3.org/2000/svg">
<path d="M15 30C17.05 30 18.9875 29.606 20.8125 28.818C22.6375 28.031 24.231 26.956 25.593 25.593C26.956 24.231 28.031 22.6375 28.818 20.8125C29.606 18.9875 30 17.05 30 15C30 12.925 29.606 10.9815 28.818 9.1695C28.031 7.3565 26.956 5.769 25.593 4.407C24.231 3.044 22.6375 1.9685 20.8125 1.1805C18.9875 0.3935 17.05 0 15 0C12.925 0 10.9815 0.3935 9.1695 1.1805C7.3565 1.9685 5.769 3.044 4.407 4.407C3.044 5.769 1.969 7.3565 1.182 9.1695C0.394001 10.9815 0 12.925 0 15V17.175C0 18.65 0.505999 19.906 1.518 20.943C2.531 21.981 3.775 22.5 5.25 22.5C6.15 22.5 6.9875 22.3 7.7625 21.9C8.5375 21.5 9.175 20.975 9.675 20.325C10.35 21 11.1435 21.5315 12.0555 21.9195C12.9685 22.3065 13.95 22.5 15 22.5C17.075 22.5 18.8435 21.7685 20.3055 20.3055C21.7685 18.8435 22.5 17.075 22.5 15C22.5 12.925 21.7685 11.156 20.3055 9.693C18.8435 8.231 17.075 7.5 15 7.5C12.925 7.5 11.156 8.231 9.693 9.693C8.231 11.156 7.5 12.925 7.5 15V17.175C7.5 17.9 7.275 18.4685 6.825 18.8805C6.375 19.2935 5.85 19.5 5.25 19.5C4.65 19.5 4.125 19.2935 3.675 18.8805C3.225 18.4685 3 17.9 3 17.175V15C3 11.725 4.1815 8.906 6.5445 6.543C8.9065 4.181 11.725 3 15 3C18.275 3 21.094 4.181 23.457 6.543C25.819 8.906 27 11.725 27 15C27 18.275 25.819 21.0935 23.457 23.4555C21.094 25.8185 18.275 27 15 27H9C8.575 27 8.219 27.144 7.932 27.432C7.644 27.719 7.5 28.075 7.5 28.5C7.5 28.925 7.644 29.281 7.932 29.568C8.219 29.856 8.575 30 9 30H15ZM15 19.5C13.75 19.5 12.6875 19.0625 11.8125 18.1875C10.9375 17.3125 10.5 16.25 10.5 15C10.5 13.75 10.9375 12.6875 11.8125 11.8125C12.6875 10.9375 13.75 10.5 15 10.5C16.25 10.5 17.3125 10.9375 18.1875 11.8125C19.0625 12.6875 19.5 13.75 19.5 15C19.5 16.25 19.0625 17.3125 18.1875 18.1875C17.3125 19.0625 16.25 19.5 15 19.5Z" fill="#9747FF"/>
</svg>
