<svg width="146" height="146" viewBox="0 0 146 146" fill="none" xmlns="http://www.w3.org/2000/svg">
<g clip-path="url(#clip0_5_1791)">
<path d="M104.063 104.025H67.5635V54.6265L99.1236 71.9159L104.063 104.025Z" fill="#2F2E41"/>
<path d="M74.3063 95.3067C87.3939 95.3067 98.0036 84.697 98.0036 71.6094C98.0036 58.5217 87.3939 47.9121 74.3063 47.9121C61.2186 47.9121 50.609 58.5217 50.609 71.6094C50.609 84.697 61.2186 95.3067 74.3063 95.3067Z" fill="#FFB6B6"/>
<path d="M60.7025 98.8108L59.6319 87.9888L81.0108 83.9912L93.6349 114.728L71.68 139.976L56.0371 109.239L60.7025 98.8108Z" fill="#FFB6B6"/>
<path d="M125.428 123.796C125.162 124.073 124.89 124.347 124.619 124.619C123.757 125.481 122.879 126.318 121.981 127.13C108.534 139.326 91.2802 146 73 146C56.1469 146 40.1664 140.328 27.2378 129.885C27.2295 129.88 27.224 129.874 27.2158 129.866C26.8234 129.551 26.4364 129.229 26.0494 128.903C26.118 128.705 26.1922 128.51 26.2663 128.318C30.4239 117.486 38.6351 112.187 43.6188 109.868C46.0888 108.718 47.7656 108.298 47.7656 108.298L53.6165 97.7598L57.7358 105.444L60.7711 111.108L73.225 134.345L83.9692 107.593L87.2981 99.2994L88.1516 97.1753L92.2105 100.334L96.0526 103.323L103.789 105.03L110.065 106.416L118.589 108.298C122.036 111.106 124.133 116.446 125.305 123.082C125.349 123.318 125.39 123.557 125.428 123.796Z" fill="#C326D0"/>
<path d="M61.8413 44.679C64.7278 39.8303 70.0293 36.5034 75.6509 36.0131C81.2724 35.5228 87.0698 37.8815 90.7522 42.1573C92.9466 44.7052 94.3854 47.8256 96.5243 50.4203C101.127 56.0038 108.976 59.2685 110.987 66.2197C111.864 69.2531 111.427 72.4915 110.983 75.6178C110.603 78.2974 110.222 80.9771 109.841 83.6567C109.545 85.742 109.261 87.9404 110.043 89.8962C110.961 92.1907 113.156 93.6935 114.576 95.7163C116.991 99.1581 116.814 104.197 114.164 107.462C113.015 108.877 111.491 109.945 110.286 111.314C109.081 112.682 108.187 114.553 108.692 116.306C109.659 119.662 114.923 120.467 115.5 123.913C115.795 125.674 114.579 127.433 112.985 128.238C111.391 129.044 109.514 129.067 107.741 128.852C101.003 128.033 94.7641 123.822 91.4833 117.88C88.2026 111.937 87.9637 104.414 90.8608 98.2758C93.2402 93.234 97.6627 88.7788 97.6146 83.2039C97.5883 80.1668 96.1953 77.3301 94.8331 74.6155C92.045 69.0593 89.2569 63.5031 86.4689 57.947C84.9754 54.9707 83.2422 51.7635 80.1675 50.4849C77.7912 49.4967 75.095 49.88 72.5534 50.2842C70.0118 50.6883 67.3195 51.0817 64.9362 50.1108C62.5528 49.1398 60.752 46.255 61.8875 43.9455" fill="#2F2E41"/>
<path d="M65.9941 44.9321C61.4157 43.4251 56.2799 45.8444 53.1803 49.5356C50.0808 53.2269 48.5772 57.9625 47.1449 62.5647C46.3245 65.2009 45.504 67.8371 44.6836 70.4733C43.9118 72.9532 43.1401 75.433 42.3683 77.9129C41.4605 80.8298 40.5453 83.9287 41.2903 86.8913C41.8289 89.0332 43.2148 90.978 43.2446 93.1864C43.2758 95.4932 41.8312 97.5184 40.5651 99.447C39.2991 101.376 38.1107 103.667 38.7139 105.894C39.6314 109.281 44.3404 111.143 44.0823 114.642C43.9961 115.81 43.3207 116.89 43.333 118.061C43.3486 119.551 44.5151 120.839 45.8818 121.432C47.2485 122.026 48.7858 122.058 50.2756 122.032C54.8454 121.952 59.4068 121.409 63.8678 120.415C65.5842 120.032 67.3295 119.563 68.7582 118.538C70.1869 117.513 71.2527 115.815 71.0667 114.066C70.777 111.341 67.8473 109.795 66.3689 107.488C64.9168 105.222 64.9505 102.351 64.3243 99.7334C63.4637 96.1359 61.3383 92.9953 59.7428 89.6582C53.7445 77.112 55.8443 61.1203 64.8782 50.548C65.6769 49.6132 66.5496 48.6728 66.8828 47.4893C67.216 46.3058 66.7864 44.7978 65.6287 44.3838" fill="#2F2E41"/>
<path d="M124.619 21.3813C110.831 7.59364 92.4987 0 73 0C53.5013 0 35.169 7.59364 21.3813 21.3813C7.59364 35.169 0 53.5013 0 73C0 90.7972 6.32575 107.623 17.9179 120.908C19.0239 122.179 20.1793 123.417 21.3813 124.619C21.664 124.901 21.9494 125.184 22.2376 125.458C23.006 126.202 23.7881 126.929 24.584 127.635C25.067 128.066 25.5555 128.488 26.0495 128.903C26.4364 129.229 26.8234 129.55 27.2158 129.866C27.2241 129.874 27.2296 129.88 27.2378 129.885C40.1665 140.327 56.1469 146 73 146C91.2802 146 108.534 139.326 121.981 127.13C122.879 126.317 123.757 125.48 124.619 124.619C124.89 124.347 125.162 124.073 125.428 123.795C126.169 123.032 126.888 122.256 127.591 121.468C139.493 108.098 146 91.0497 146 73C146 53.5013 138.406 35.169 124.619 21.3813V21.3813ZM127.412 120.785C126.726 121.564 126.024 122.333 125.305 123.082C124.185 124.248 123.03 125.379 121.836 126.468C121.383 126.886 120.925 127.292 120.461 127.695C115.776 131.77 110.562 135.25 104.939 138.022C102.966 138.996 100.943 139.883 98.8738 140.676C90.8356 143.761 82.1113 145.451 73 145.451C64.2071 145.451 55.7764 143.876 47.9742 140.994C44.7715 139.814 41.6759 138.412 38.7037 136.806C38.2674 136.57 37.8338 136.332 37.4029 136.087C35.1361 134.803 32.9433 133.401 30.8384 131.886C29.2659 130.758 27.74 129.569 26.2663 128.318C25.7503 127.882 25.2399 127.44 24.7377 126.987C23.9198 126.26 23.1185 125.511 22.3364 124.742C20.8544 123.29 19.4383 121.778 18.0853 120.206C7.16005 107.516 0.548872 91.0167 0.548872 73C0.548872 33.0503 33.0503 0.548872 73 0.548872C112.95 0.548872 145.451 33.0503 145.451 73C145.451 91.2939 138.637 108.024 127.412 120.785Z" fill="#3F3D56"/>
</g>
<defs>
<clipPath id="clip0_5_1791">
<rect width="146" height="146" fill="white"/>
</clipPath>
</defs>
</svg>
