<svg width="27" height="34" viewBox="0 0 27 34" fill="none" xmlns="http://www.w3.org/2000/svg">
<path d="M13.5 17C12.5719 17 11.7771 16.6668 11.1156 16.0004C10.4552 15.3351 10.125 14.535 10.125 13.6C10.125 12.665 10.4552 11.8643 11.1156 11.1979C11.7771 10.5326 12.5719 10.2 13.5 10.2C14.4281 10.2 15.2224 10.5326 15.8827 11.1979C16.5442 11.8643 16.875 12.665 16.875 13.6C16.875 14.535 16.5442 15.3351 15.8827 16.0004C15.2224 16.6668 14.4281 17 13.5 17ZM13.5 34C18.0281 30.1183 21.4099 26.5126 23.6453 23.1829C25.8818 19.8543 27 16.7733 27 13.94C27 9.69 25.6427 6.30417 22.9281 3.7825C20.2146 1.26083 17.0719 0 13.5 0C9.92813 0 6.78544 1.26083 4.07194 3.7825C1.35731 6.30417 0 9.69 0 13.94C0 16.7733 1.11769 19.8543 3.35306 23.1829C5.58956 26.5126 8.97187 30.1183 13.5 34Z" fill="#9747FF"/>
</svg>
