<svg width="146" height="146" viewBox="0 0 146 146" fill="none" xmlns="http://www.w3.org/2000/svg">
<g clip-path="url(#clip0_5_1785)">
<path d="M74.3062 95.3071C87.3938 95.3071 98.0034 84.6975 98.0034 71.6099C98.0034 58.5222 87.3938 47.9126 74.3062 47.9126C61.2185 47.9126 50.6089 58.5222 50.6089 71.6099C50.6089 84.6975 61.2185 95.3071 74.3062 95.3071Z" fill="#FFB6B6"/>
<path d="M60.7025 98.8112L59.6319 87.9892L81.0108 83.9917L93.6349 114.729L71.68 139.977L56.0371 109.24L60.7025 98.8112Z" fill="#FFB6B6"/>
<path d="M59.2884 93.4063L63.9623 94.4624C63.9623 94.4624 60.2881 82.8113 61.5352 81.699C62.7823 80.5866 65.8384 82.3393 65.8384 82.3393L69.0499 85.9399L72.9616 81.9572C72.9616 81.9572 77.2085 76.6764 78.8713 75.1933C80.5342 73.7102 77.8633 68.2052 77.8633 68.2052C77.8633 68.2052 102.533 61.5531 93.3533 49.5875C93.3533 49.5875 87.9713 40.2061 86.2187 43.2621C84.466 46.3182 82.3761 41.4645 82.3761 41.4645L75.9944 42.6781C75.9944 42.6781 63.3994 35.2517 51.4452 51.1388C39.4911 67.0259 59.2884 93.4063 59.2884 93.4063H59.2884V93.4063Z" fill="#2F2E41"/>
<path d="M118.875 129.794C105.924 140.294 89.9025 146 73 146C57.5657 146 42.8641 141.241 30.5667 132.421C30.5886 132.19 30.6106 131.962 30.6298 131.735C30.9564 128.167 31.2473 124.698 31.4394 121.822C32.1831 110.655 58.2353 103.212 58.2353 103.212C58.2353 103.212 58.3533 103.33 58.5893 103.536C60.0274 104.799 65.8646 109.376 76.1011 110.655C85.2288 111.797 88.2339 106.382 89.1423 103.789C89.4167 102.998 89.4991 102.469 89.4991 102.469L116.295 115.123C118.043 117.62 118.727 122.999 118.861 129.045C118.866 129.295 118.872 129.542 118.875 129.794Z" fill="#C326D0"/>
<path d="M124.619 21.3813C110.831 7.59364 92.4987 0 73 0C53.5013 0 35.169 7.59364 21.3813 21.3813C7.59366 35.169 0 53.5013 0 73C0 90.7972 6.32577 107.623 17.9179 120.908C19.0239 122.179 20.1793 123.417 21.3813 124.619C21.664 124.901 21.9494 125.184 22.2376 125.458C23.006 126.202 23.7881 126.929 24.584 127.635C25.067 128.066 25.5555 128.488 26.0495 128.903C26.4364 129.229 26.8234 129.55 27.2158 129.866C27.2241 129.874 27.2296 129.88 27.2378 129.885C28.3273 130.763 29.436 131.609 30.5667 132.421C42.8642 141.241 57.5657 146 73 146C89.9025 146 105.924 140.294 118.875 129.795C119.931 128.938 120.966 128.049 121.981 127.13C122.879 126.317 123.757 125.48 124.619 124.619C124.89 124.347 125.162 124.073 125.428 123.795C126.169 123.032 126.888 122.256 127.591 121.468C139.493 108.098 146 91.0497 146 73C146 53.5013 138.406 35.169 124.619 21.3813V21.3813ZM127.412 120.785C126.726 121.564 126.024 122.333 125.305 123.082C124.185 124.248 123.03 125.379 121.836 126.468C121.383 126.886 120.925 127.292 120.461 127.695C119.934 128.153 119.402 128.603 118.861 129.045C114.599 132.544 109.931 135.563 104.939 138.022C102.966 138.996 100.943 139.883 98.8738 140.676C90.8356 143.761 82.1113 145.451 73 145.451C64.2071 145.451 55.7764 143.876 47.9742 140.994C44.7715 139.814 41.6759 138.412 38.7037 136.806C38.2674 136.57 37.8338 136.332 37.4029 136.087C35.1361 134.803 32.9433 133.401 30.8384 131.886C30.7698 131.836 30.6984 131.784 30.6298 131.735C29.1314 130.654 27.6741 129.515 26.2663 128.318C25.7503 127.882 25.2399 127.44 24.7377 126.987C23.9199 126.26 23.1185 125.511 22.3364 124.742C20.8544 123.29 19.4383 121.778 18.0853 120.206C7.16005 107.516 0.548872 91.0167 0.548872 73C0.548872 33.0503 33.0504 0.548872 73 0.548872C112.95 0.548872 145.451 33.0503 145.451 73C145.451 91.2939 138.637 108.024 127.412 120.785Z" fill="#3F3D56"/>
</g>
<defs>
<clipPath id="clip0_5_1785">
<rect width="146" height="146" fill="white"/>
</clipPath>
</defs>
</svg>
