<svg width="146" height="146" viewBox="0 0 146 146" fill="none" xmlns="http://www.w3.org/2000/svg">
<g clip-path="url(#clip0_5_1799)">
<path d="M74.3062 95.3057C87.3938 95.3057 98.0034 84.696 98.0034 71.6084C98.0034 58.5208 87.3938 47.9111 74.3062 47.9111C61.2185 47.9111 50.6089 58.5208 50.6089 71.6084C50.6089 84.696 61.2185 95.3057 74.3062 95.3057Z" fill="#A0616A"/>
<path d="M54.6919 100.612L59.6317 87.9881L85.1543 84.146L87.8965 112.091L62.0995 112.64L54.6919 100.612Z" fill="#A0616A"/>
<path d="M98.2329 75.9807C97.9254 77.2128 97.3037 80.1465 96.3328 80.161C95.5396 80.1725 94.7804 67.4451 95.5727 65.3398C96.4829 62.9213 94.0911 59.8619 92.2894 58.2915C89.0499 55.4677 81.8589 61.5311 74.5467 58.7843C74.3529 58.7116 74.3915 58.7198 72.0825 57.7986C64.9774 54.9637 64.6039 54.8819 64.1969 54.8415C60.7526 54.5007 56.5492 57.3192 54.8327 60.7557C53.0484 64.3279 54.5392 67.3918 52.8613 76.0341C52.6658 77.0414 52.3587 78.4771 51.8756 78.4983C50.9924 78.5368 50.1301 73.8196 49.9042 72.5841C48.958 67.4077 48.0457 62.4171 49.9042 56.8129C50.107 56.2016 51.3564 53.9328 53.847 49.4201C57.4351 42.9192 59.2397 39.6565 59.7612 39.0703C63.5014 34.8642 70.3094 31.0273 76.0253 32.6632C78.9143 33.4901 78.3963 34.8194 81.9395 36.1132C88.2538 38.4186 93.7415 35.5991 94.7536 37.5917C95.2898 38.6472 93.7897 39.5174 93.7679 41.5345C93.7306 44.9956 98.1079 45.9957 100.668 49.4201C102.044 51.2611 104.399 51.2808 98.2329 75.9806L98.2329 75.9806V75.9807Z" fill="#2F2E41"/>
<path d="M127.591 121.468C126.636 122.541 125.645 123.592 124.619 124.619C110.831 138.406 92.4987 146 73 146C56.1469 146 40.1665 140.327 27.2378 129.885C27.2295 129.88 27.224 129.874 27.2159 129.866C25.5006 128.483 23.8403 127.012 22.2375 125.458C22.2677 125.217 22.3007 124.978 22.3363 124.742C22.5614 123.15 22.8111 121.633 23.091 120.236C25.3826 108.786 55.5349 96.7661 56.3198 96.4531C56.3307 96.4504 56.3362 96.4478 56.3362 96.4478C56.3362 96.4478 60.2168 110.751 76.8448 110.568C88.1708 110.444 85.9753 96.4478 85.9753 96.4478C85.9753 96.4478 86.1125 96.4751 86.3705 96.53C89.6418 97.2244 112.354 102.214 121.314 109.023C124.045 111.097 126.005 115.516 127.412 120.785C127.473 121.01 127.53 121.24 127.591 121.468Z" fill="#C326D0"/>
<path d="M124.619 21.3814C110.831 7.59389 92.4987 0 73 0C53.5013 0 35.169 7.59389 21.3813 21.3814C7.59369 35.1691 0 53.5014 0 73C0 90.7973 6.32577 107.623 17.9179 120.908C19.0239 122.179 20.1793 123.417 21.3813 124.619C21.664 124.901 21.9494 125.184 22.2376 125.459C23.8403 127.012 25.5006 128.483 27.2159 129.866C27.2241 129.874 27.2295 129.88 27.2378 129.885C40.1665 140.327 56.1469 146 73 146C92.4987 146 110.831 138.406 124.619 124.619C125.645 123.592 126.636 122.541 127.591 121.468C139.493 108.098 146 91.0498 146 73C146 53.5014 138.406 35.1691 124.619 21.3814ZM127.412 120.785C125.253 123.241 122.931 125.552 120.461 127.695C115.776 131.771 110.562 135.25 104.939 138.022C102.966 138.997 100.943 139.883 98.8738 140.676C90.8356 143.761 82.1113 145.451 73 145.451C64.2071 145.451 55.7764 143.876 47.9742 140.994C44.7715 139.814 41.6759 138.412 38.7037 136.806C38.2674 136.571 37.8338 136.332 37.4029 136.088C35.1361 134.803 32.9433 133.401 30.8384 131.886C27.8224 129.723 24.9792 127.333 22.3363 124.742C20.8544 123.29 19.4383 121.778 18.0854 120.206C7.16006 107.516 0.548872 91.0168 0.548872 73C0.548872 33.0505 33.0503 0.548872 73 0.548872C112.95 0.548872 145.451 33.0505 145.451 73C145.451 91.294 138.637 108.024 127.412 120.785Z" fill="#3F3D56"/>
</g>
<defs>
<clipPath id="clip0_5_1799">
<rect width="146" height="146" fill="white"/>
</clipPath>
</defs>
</svg>
