<svg width="565" height="373" viewBox="0 0 565 373" fill="none" xmlns="http://www.w3.org/2000/svg">
<g clip-path="url(#clip0_3_982)" filter="url(#filter0_d_3_982)">
<rect width="543" height="351" transform="matrix(-1 0 0 1 545 3)" fill="#FDF0F0" fill-opacity="0.04"/>
<path opacity="0.1" d="M5.82384 137.63H52.2039V190.959H9.21379C9.10281 191.509 8.99186 192.06 8.87079 192.61H52.2039V235.607L51.9869 235.54C50.7611 235.134 49.5453 234.703 48.3397 234.239L47.5577 233.942C46.3269 233.454 45.1111 232.939 43.9105 232.396C43.4868 232.21 43.063 232.013 42.6443 231.812C35.9758 228.696 29.8276 224.665 24.398 219.849C24.2416 219.724 24.0954 219.586 23.9491 219.456C23.2126 218.782 22.4861 218.093 21.7799 217.389C21.5176 217.131 21.2754 216.872 21.003 216.604C20.1706 215.748 19.3686 214.862 18.5867 213.972C18.4707 213.838 18.3596 213.704 18.2436 213.58C15.096 209.916 12.4548 205.886 10.3842 201.587C10.3186 201.463 10.2631 201.324 10.2026 201.195C9.56695 199.846 8.99691 198.477 8.50254 197.084C8.29572 196.501 8.09391 195.912 7.91735 195.323C7.85177 195.146 7.80135 194.969 7.74585 194.797C5.17816 186.26 4.8805 177.378 4.8805 168.549C4.8805 167.518 4.8805 166.489 4.8805 165.462C4.8805 161.897 4.93599 158.308 5.00156 154.723C5.00156 153.795 5.05202 152.867 5.0722 151.933C5.13778 149.569 5.22355 147.196 5.34462 144.832C5.37489 144.176 5.41018 143.516 5.45054 142.865C5.45054 142.487 5.49091 142.109 5.52117 141.731C5.61198 140.356 5.71285 138.989 5.82384 137.63Z" fill="#6C63FF"/>
<path opacity="0.1" d="M52.2039 78.2515H26.7589C30.9249 72.7535 35.445 67.505 40.2935 62.536C44.0719 58.6215 48.0471 54.8027 52.2039 51.1274V78.2515Z" fill="#6C63FF"/>
<path opacity="0.1" d="M52.2039 79.9025V135.979H5.97015C5.97015 135.816 5.97013 135.648 6.01553 135.5C6.05589 135.055 6.09624 134.615 6.14165 134.175C6.18705 133.658 6.24755 133.136 6.30305 132.619C6.35854 132.102 6.42917 131.495 6.49979 130.935C6.57042 130.375 6.63097 129.81 6.70664 129.25C6.78231 128.69 6.85291 128.13 6.93362 127.575C7.01434 127.02 7.09005 126.46 7.17581 125.905C7.24644 125.427 7.31703 124.982 7.3927 124.522C7.49863 123.867 7.60963 123.216 7.72566 122.565C7.72566 122.469 7.76096 122.369 7.77609 122.278C8.61492 117.525 9.75197 112.824 11.1812 108.199C12.6915 103.301 14.6095 98.5244 16.9169 93.9143C19.3987 89.0339 22.2831 84.3471 25.5431 79.8977L52.2039 79.9025Z" fill="#6C63FF"/>
<path opacity="0.1" d="M162.347 137.63V190.959H63.2817V137.63H162.347ZM162.347 192.605V228.721C150.816 225.223 137.629 226.64 125.673 229.511C116.416 231.736 107.397 234.775 98.155 236.952C94.0278 237.955 89.8373 238.706 85.6091 239.201L84.5699 239.312L83.0565 239.441L81.5432 239.546C81.4911 239.541 81.4388 239.541 81.3868 239.546C81.1648 239.546 80.9378 239.546 80.7108 239.575H80.4788C80.2063 239.575 79.9339 239.603 79.6615 239.603C79.2731 239.603 78.8796 239.603 78.4861 239.637H77.9817C77.5932 239.637 77.1998 239.637 76.8063 239.637H75.9437H75.2475C74.9499 239.637 74.6573 239.637 74.3647 239.608C73.8905 239.608 73.4163 239.57 72.9371 239.541L72.0543 239.484C71.6911 239.484 71.3228 239.436 70.9647 239.402C70.1928 239.345 69.4513 239.273 68.6694 239.182C68.3667 239.149 68.059 239.115 67.7563 239.072L67.3073 239.02C66.5456 238.924 65.7939 238.814 65.0322 238.689C64.4723 238.608 63.9123 238.512 63.3473 238.412V192.605H162.347ZM88.6661 78.2325V79.8787H162.347V135.979H63.2817V79.8979H68.2507V78.2517H63.2817V42.0113C82.5521 27.2816 105.076 15.7486 130.163 10.4272C140.729 8.20942 151.527 7.14015 162.347 7.24005V78.2517L88.6661 78.2325ZM315.168 77.9167L314.82 78.2325H173.43V7.73295C198.603 9.71892 223.15 17.7394 242.94 31.0286C252.449 37.4077 260.989 44.9735 271.659 49.8642C277.257 52.4997 283.374 53.9991 289.617 54.2669L315.168 77.9167ZM316.142 48.9933V64.9528L302.481 52.3048C307.561 50.6395 311.566 49.5053 316.162 49.0124L316.142 48.9933ZM316.596 249.773H316.142V284.759C310.986 284.392 305.851 283.891 300.736 283.257C277.866 280.455 255.457 274.947 234.031 266.861C231.731 265.981 229.447 265.076 227.181 264.148C225.671 263.51 224.169 262.872 222.676 262.234C220.436 261.258 218.213 260.254 216.007 259.224C206.24 254.677 196.819 249.49 187.813 243.7C187.253 243.336 186.688 242.972 186.133 242.604C185.02 241.87 183.911 241.13 182.808 240.383C182.258 240.005 181.709 239.632 181.164 239.249L180.029 238.455C178.899 237.656 177.774 236.857 176.634 236.062C175.579 235.344 174.515 234.627 173.435 233.957V192.61H287.03C286.949 192.371 286.873 192.132 286.787 191.878C286.878 192.122 286.959 192.356 287.035 192.61H316.162V249.763L316.596 249.773ZM316.142 79.8883V135.979H173.43V79.8979L316.142 79.8883ZM316.142 137.62V190.959H173.43V137.63L316.142 137.62ZM344.674 50.6347L327.24 66.7761V48.9311C333.082 49.2756 338.893 49.8435 344.674 50.6347ZM466.082 137.63V190.959H327.24V137.63H466.082ZM432.526 269.345C411.483 276.945 389.481 281.897 367.082 284.075H366.986C362.756 284.499 358.51 284.828 354.249 285.061H354.092C345.169 285.539 336.209 285.649 327.265 285.333V192.605H466.082L465.578 254.012M504.527 190.959H477.145V137.63H487.976C489.101 139.501 490.19 141.391 491.225 143.301C491.78 144.32 492.319 145.354 492.844 146.387C499.972 160.433 504.502 175.851 504.527 190.959ZM504.527 192.605C504.305 203.44 501.733 214.078 496.088 223.902C491.396 232.038 484.879 239.216 477.165 245.437V192.605H504.527ZM486.962 135.979H477.145V122.101C480.689 126.549 483.967 131.182 486.962 135.979ZM425.473 78.2517H330.514L330.171 77.9358L330.675 77.4573L357.376 52.7595C365.305 54.3229 373.135 56.3089 380.829 58.7078C381.555 58.9327 382.282 59.1864 383.003 59.4017C397.848 64.1823 412.091 70.504 425.473 78.2517ZM466.082 109.534V135.979H344.316H327.25V81.4244L329.197 79.9218H428.248C442.15 88.2067 454.867 98.1598 466.082 109.534Z" fill="#6C63FF"/>
<path opacity="0.1" d="M52.2039 108.189V135.979H5.97015C5.97015 135.816 5.97013 135.648 6.01553 135.5C6.05589 135.055 6.09624 134.615 6.14165 134.175C6.18705 133.658 6.24755 133.136 6.30305 132.619C6.35854 132.102 6.42917 131.495 6.49979 130.935C6.57042 130.375 6.63097 129.81 6.70664 129.25C6.78231 128.69 6.85291 128.131 6.93362 127.575C7.01434 127.02 7.09005 126.46 7.17581 125.905C7.24644 125.427 7.31703 124.982 7.3927 124.522C7.49863 123.867 7.60963 123.216 7.72566 122.565C7.72566 122.469 7.76096 122.369 7.77609 122.278C8.61492 117.525 9.75197 112.824 11.1812 108.199L52.2039 108.189Z" fill="#6C63FF"/>
<path opacity="0.1" d="M5.82384 137.63H52.2039V190.959H9.21379C9.10281 191.509 8.99186 192.06 8.87079 192.61H52.2039V235.607L51.9869 235.54C50.7611 235.134 49.5453 234.703 48.3397 234.239L47.5577 233.942C46.3269 233.454 45.1111 232.939 43.9105 232.396C43.4868 232.21 43.063 232.013 42.6443 231.812C35.9758 228.696 29.8276 224.665 24.398 219.849C24.2416 219.724 24.0954 219.586 23.9491 219.456C23.2126 218.782 22.4861 218.093 21.7799 217.389C21.5176 217.131 21.2754 216.872 21.003 216.604C20.1706 215.748 19.3686 214.862 18.5867 213.972C18.4707 213.838 18.3596 213.704 18.2436 213.58C15.096 209.916 12.4548 205.886 10.3842 201.587C10.3186 201.463 10.2631 201.324 10.2026 201.195C9.56695 199.846 8.99691 198.477 8.50254 197.084C8.29572 196.501 8.09391 195.912 7.91735 195.323C7.85177 195.146 7.80135 194.969 7.74585 194.797C5.17816 186.26 4.8805 177.378 4.8805 168.549C4.8805 167.518 4.8805 166.489 4.8805 165.462C4.8805 161.897 4.93599 158.308 5.00156 154.723C5.00156 153.795 5.05202 152.867 5.0722 151.933C5.13778 149.569 5.22355 147.196 5.34462 144.832C5.37489 144.176 5.41018 143.516 5.45054 142.865C5.45054 142.487 5.49091 142.109 5.52117 141.731C5.61198 140.356 5.71285 138.989 5.82384 137.63Z" fill="#6C63FF"/>
<path opacity="0.1" d="M98.1499 87.9325V135.983H63.2766V87.9325H68.2455V71.6619H88.661V87.9325H98.1499Z" fill="#6C63FF"/>
<path opacity="0.1" d="M63.2766 137.63H98.1499V190.959H63.2766V137.63Z" fill="#6C63FF"/>
<path opacity="0.1" d="M63.2766 192.61H98.1499V236.952C94.0239 237.952 89.8352 238.703 85.6091 239.201L84.5648 239.311L83.0514 239.44C82.547 239.479 82.0425 239.517 81.5381 239.546H81.3817C81.1597 239.546 80.9327 239.546 80.7057 239.574H80.4736C80.2012 239.574 79.9238 239.598 79.6514 239.603C79.2579 239.603 78.8695 239.603 78.476 239.632H77.9715C77.5831 239.632 77.1947 239.632 76.7961 239.632H75.9385C75.7065 239.632 75.4694 239.632 75.2373 239.632L74.3545 239.603C73.8854 239.603 73.4062 239.565 72.932 239.536L72.0542 239.479L70.9595 239.397C70.1928 239.34 69.4462 239.263 68.6693 239.177L67.7562 239.067L67.3073 239.015C66.5455 238.919 65.7939 238.809 65.0321 238.684C64.4671 238.603 63.9072 238.503 63.3422 238.407L63.2766 192.61Z" fill="#6C63FF"/>
<path opacity="0.1" d="M287.398 82.2571H316.157V135.979H287.398V82.2571Z" fill="#6C63FF"/>
<path opacity="0.1" d="M316.157 137.63V190.959H173.425V167.96H249.452V181.527H287.403V137.63H316.157Z" fill="#6C63FF"/>
<path opacity="0.1" d="M316.616 249.792H316.162V284.759C311.007 284.392 305.871 283.891 300.756 283.256C277.869 280.459 255.442 274.95 234.001 266.857C227.87 264.528 221.862 261.985 215.977 259.229C206.22 254.676 196.808 249.487 187.808 243.7C185.561 242.254 183.346 240.773 181.164 239.254C179.65 238.201 178.137 237.12 176.624 236.076C175.569 235.354 174.505 234.641 173.42 233.966V192.61H286.999C286.919 192.361 286.843 192.131 286.762 191.873C286.848 192.117 286.929 192.352 287.004 192.61H316.162V249.768L316.616 249.792Z" fill="#6C63FF"/>
<path opacity="0.1" d="M391.16 78.2516H372.425V73.337H380.829V58.7078C381.555 58.9375 382.287 59.1863 383.008 59.4017V73.337H391.16V78.2516Z" fill="#6C63FF"/>
<path opacity="0.1" d="M436.319 135.979H344.311H344.341H344.301H327.24V82.257H332.073V121.976H354.168V98.4654H372.425V79.9026H391.16V98.4654H409.406V121.967H436.319V135.979Z" fill="#6C63FF"/>
<path opacity="0.1" d="M436.319 137.63V190.959H327.24V137.63H436.319ZM432.511 269.345C411.468 276.944 389.466 281.896 367.067 284.075H366.971C362.741 284.499 358.495 284.828 354.234 285.06H354.077C345.153 285.539 336.194 285.649 327.25 285.333V192.605H436.319V211.513H466.082L465.926 253.73" fill="#6C63FF"/>
<path opacity="0.1" d="M479.067 192.61H504.507C504.285 203.439 501.707 214.073 496.062 223.897C491.376 232.061 484.853 239.211 477.145 245.432V211.512H479.067V192.61Z" fill="#6C63FF"/>
<path opacity="0.1" d="M504.522 190.959H479.067V146.387H492.819C499.967 160.433 504.502 175.856 504.522 190.959Z" fill="#6C63FF"/>
<path opacity="0.1" d="M300.751 97.1924H316.157V114.037H300.751V97.1924Z" fill="#6C63FF"/>
<path opacity="0.1" d="M300.751 132.103H316.157V135.979H300.751V132.103Z" fill="#6C63FF"/>
<path opacity="0.1" d="M300.751 137.63H316.157V148.947H300.751V137.63Z" fill="#6C63FF"/>
<path opacity="0.1" d="M300.751 167.017H316.157V183.862H300.751V167.017Z" fill="#6C63FF"/>
<path opacity="0.1" d="M300.751 201.932H316.157V218.777H300.751V201.932Z" fill="#6C63FF"/>
<path opacity="0.1" d="M316.162 249.768L316.616 249.792H316.162V253.702H300.756V236.842H316.162V249.768Z" fill="#6C63FF"/>
<path opacity="0.1" d="M316.162 271.747V284.759C311.007 284.392 305.871 283.891 300.756 283.256V271.771L316.162 271.747Z" fill="#6C63FF"/>
<path opacity="0.1" d="M173.425 189.724H239.449V190.959H173.425V189.724Z" fill="#6C63FF"/>
<path opacity="0.1" d="M173.425 192.61H239.449V197.352H173.425V192.61Z" fill="#6C63FF"/>
<path opacity="0.1" d="M173.425 212.896H239.449V220.524H173.425V212.896Z" fill="#6C63FF"/>
<path opacity="0.1" d="M239.454 236.043V243.7H187.807C185.561 242.255 183.346 240.773 181.164 239.254C179.65 238.201 178.137 237.124 176.624 236.076L239.454 236.043Z" fill="#6C63FF"/>
<path opacity="0.1" d="M239.454 259.229V266.857H234.001C227.867 264.528 221.858 261.985 215.976 259.229H239.454Z" fill="#6C63FF"/>
<path opacity="0.1" d="M367.062 153.761H354.067V142.798H367.062V153.761Z" fill="#6C63FF"/>
<path opacity="0.1" d="M85.6343 102.677H72.6394V91.713H85.6343V102.677Z" fill="#6C63FF"/>
<path opacity="0.1" d="M85.6343 128.145H72.6394V117.181H85.6343V128.145Z" fill="#6C63FF"/>
<path opacity="0.1" d="M85.6343 153.608H72.6394V142.645H85.6343V153.608Z" fill="#6C63FF"/>
<path opacity="0.1" d="M85.6343 179.077H72.6394V168.113H85.6343V179.077Z" fill="#6C63FF"/>
<path opacity="0.1" d="M85.6343 204.545H72.6394V193.581H85.6343V204.545Z" fill="#6C63FF"/>
<path opacity="0.1" d="M85.6343 230.008H72.6394V219.045H85.6343V230.008Z" fill="#6C63FF"/>
<path opacity="0.1" d="M416.681 153.761H403.686V142.798H416.681V153.761Z" fill="#6C63FF"/>
<path opacity="0.1" d="M367.062 180.804H354.067V169.841H367.062V180.804Z" fill="#6C63FF"/>
<path opacity="0.1" d="M416.681 180.804H403.686V169.841H416.681V180.804Z" fill="#6C63FF"/>
<path opacity="0.1" d="M367.062 207.847H354.067V196.883H367.062V207.847Z" fill="#6C63FF"/>
<path opacity="0.1" d="M416.681 207.847H403.686V196.883H416.681V207.847Z" fill="#6C63FF"/>
<path opacity="0.1" d="M367.062 234.895H354.067V223.931H367.062V234.895Z" fill="#6C63FF"/>
<path opacity="0.1" d="M416.681 234.895H403.686V223.931H416.681V234.895Z" fill="#6C63FF"/>
<path opacity="0.1" d="M367.062 261.937H354.067V250.974H367.062V261.937Z" fill="#6C63FF"/>
<path opacity="0.1" d="M416.681 261.937H403.686V250.974H416.681V261.937Z" fill="#6C63FF"/>
<path opacity="0.1" d="M354.062 285.085V278.012H367.057V284.08L354.062 285.085Z" fill="#6C63FF"/>
<path opacity="0.1" d="M52.2039 122.263V128.537H7.72566V122.263H52.2039ZM12.1548 122.661H8.50753V128.145H12.1548V122.661ZM16.5839 122.661H12.9367V128.145H16.5839V122.661ZM21.003 122.661H17.3558V128.145H21.003V122.661ZM25.4322 122.661H21.7849V128.145H25.4322V122.661ZM29.8563 122.661H26.1939V128.145H29.8411L29.8563 122.661ZM34.2855 122.661H30.6382V128.145H34.2653L34.2855 122.661ZM38.7146 122.661H35.0673V128.145H38.7146V122.661ZM43.1387 122.661H39.4914V128.145H43.1387V122.661ZM47.5628 122.661H43.9156V128.145H47.5628V122.661ZM51.9869 122.661H48.3397V128.145H51.9869V122.661Z" fill="#6C63FF"/>
<path opacity="0.1" d="M52.2039 140.525V146.799H7.72566V140.525H52.2039ZM12.1548 140.922H8.50753V146.401H12.1548V140.922ZM16.5839 140.922H12.9367V146.401H16.5839V140.922ZM21.003 140.922H17.3558V146.401H21.003V140.922ZM25.4322 140.922H21.7849V146.401H25.4322V140.922ZM29.8563 140.922H26.1939V146.401H29.8411L29.8563 140.922ZM34.2855 140.922H30.6382V146.401H34.2653L34.2855 140.922ZM38.7146 140.922H35.0673V146.401H38.7146V140.922ZM43.1387 140.922H39.4914V146.401H43.1387V140.922ZM47.5628 140.922H43.9156V146.401H47.5628V140.922ZM51.9869 140.922H48.3397V146.401H51.9869V140.922Z" fill="#6C63FF"/>
<path opacity="0.1" d="M52.2039 158.786V165.055H7.72566V158.786H52.2039ZM12.1548 159.179H8.50753V164.658H12.1548V159.179ZM16.5839 159.179H12.9367V164.658H16.5839V159.179ZM21.003 159.179H17.3558V164.658H21.003V159.179ZM25.4322 159.179H21.7849V164.658H25.4322V159.179ZM29.8563 159.179H26.1939V164.658H29.8411L29.8563 159.179ZM34.2855 159.179H30.6382V164.658H34.2653L34.2855 159.179ZM38.7146 159.179H35.0673V164.658H38.7146V159.179ZM43.1387 159.179H39.4914V164.658H43.1387V159.179ZM47.5628 159.179H43.9156V164.658H47.5628V159.179ZM51.9869 159.179H48.3397V164.658H51.9869V159.179Z" fill="#6C63FF"/>
<path opacity="0.1" d="M52.2039 177.043V183.307H7.72566V177.043H52.2039ZM12.1548 177.431H8.50753V182.924H12.1548V177.431ZM16.5839 177.431H12.9367V182.924H16.5839V177.431ZM21.003 177.431H17.3558V182.924H21.003V177.431ZM25.4322 177.431H21.7849V182.924H25.4322V177.431ZM29.8563 177.431H26.1939V182.924H29.8411L29.8563 177.431ZM34.2855 177.431H30.6382V182.924H34.2653L34.2855 177.431ZM38.7146 177.431H35.0673V182.924H38.7146V177.431ZM43.1387 177.431H39.4914V182.924H43.1387V177.431ZM47.5628 177.431H43.9156V182.924H47.5628V177.431ZM51.9869 177.431H48.3397V182.924H51.9869V177.431Z" fill="#6C63FF"/>
<path opacity="0.1" d="M52.2039 195.294V201.587H10.3842C10.3236 201.463 10.2631 201.324 10.2076 201.195H12.1548V195.692H8.50753V197.06C8.29566 196.476 8.09391 195.888 7.91735 195.294H52.2039ZM16.5839 195.692H12.9367V201.171H16.5839V195.692ZM21.003 195.692H17.3558V201.171H21.003V195.692ZM25.4322 195.692H21.7849V201.171H25.4322V195.692ZM29.8563 195.692H26.1939V201.171H29.8411L29.8563 195.692ZM34.2855 195.692H30.6382V201.171H34.2653L34.2855 195.692ZM38.7146 195.692H35.0673V201.171H38.7146V195.692ZM43.1387 195.692H39.4914V201.171H43.1387V195.692ZM47.5628 195.692H43.9156V201.171H47.5628V195.692ZM51.9869 195.692H48.3397V201.171H51.9869V195.692Z" fill="#6C63FF"/>
<path opacity="0.1" d="M52.2039 213.551V219.82H24.403C24.2416 219.691 24.1004 219.557 23.9541 219.428H25.4322V213.948H21.7849V217.38L21.003 216.59V213.958H18.5867C18.4707 213.824 18.3596 213.69 18.2436 213.566L52.2039 213.551ZM29.8563 213.944H26.1939V219.428H29.8411L29.8563 213.944ZM34.2855 213.944H30.6382V219.428H34.2653L34.2855 213.944ZM38.7146 213.944H35.0673V219.428H38.7146V213.944ZM43.1387 213.944H39.4914V219.428H43.1387V213.944ZM47.5628 213.944H43.9156V219.428H47.5628V213.944ZM51.9869 213.944H48.3397V219.428H51.9869V213.944Z" fill="#6C63FF"/>
<path opacity="0.1" d="M52.2039 231.812V235.607L51.9869 235.54V232.191H48.3397V234.229L47.5628 233.923V232.214H43.9156V232.406C43.4868 232.219 43.063 232.023 42.6443 231.822L52.2039 231.812Z" fill="#6C63FF"/>
<path opacity="0.1" d="M316.616 249.791H316.162H316.616ZM287.035 192.605C286.954 192.366 286.878 192.127 286.793 191.873C286.878 192.117 286.959 192.366 287.035 192.605ZM88.6662 78.2515V79.8977H68.2507V78.2515H88.6662ZM316.616 249.791H316.162H316.616ZM287.035 192.605C286.954 192.366 286.878 192.127 286.793 191.873C286.878 192.117 286.959 192.366 287.035 192.605ZM316.616 249.791H316.162H316.616ZM287.035 192.605C286.954 192.366 286.878 192.127 286.793 191.873C286.878 192.117 286.959 192.366 287.035 192.605Z" fill="#6C63FF"/>
<path opacity="0.1" d="M1.99994 337.045H507.403V353.995H1.99994V337.045Z" fill="#6C63FF"/>
<path d="M489.595 229.281H492.153V283.845H489.595V229.281Z" fill="#535461"/>
<path d="M473.543 283.678L473.705 286.137L473.927 289.607L474.023 291.042L474.25 294.512L474.345 295.948L474.572 299.412L477.15 338.868C477.262 340.566 478.05 342.161 479.355 343.327C480.66 344.494 482.384 345.147 484.177 345.152H497.571C499.362 345.147 501.084 344.497 502.388 343.333C503.693 342.169 504.483 340.578 504.598 338.883L507.181 299.427L507.403 295.962L507.499 294.526L507.731 291.057L507.821 289.621L508.048 286.152L508.21 283.692C508.24 283.221 508.168 282.748 507.999 282.304C507.83 281.86 507.566 281.454 507.225 281.11C506.884 280.766 506.472 280.492 506.015 280.305C505.558 280.118 505.065 280.021 504.568 280.021H477.181C476.684 280.021 476.193 280.116 475.737 280.302C475.281 280.488 474.87 280.761 474.529 281.104C474.188 281.446 473.925 281.851 473.755 282.294C473.586 282.737 473.514 283.207 473.543 283.678Z" fill="#3F3D56"/>
<path d="M473.7 286.137L473.927 289.607H507.821L508.043 286.137H473.7Z" fill="#9D9CB5"/>
<path d="M474.017 291.052L474.245 294.526H507.498L507.725 291.052H474.017Z" fill="#9D9CB5"/>
<path d="M474.345 295.971L474.567 299.441H507.176L507.403 295.971H474.345Z" fill="#9D9CB5"/>
<path d="M511.948 249.734C497.071 259.941 490.877 275.915 490.877 275.915C490.877 275.915 508.805 275.332 523.666 265.119C538.528 254.907 544.778 238.938 544.778 238.938C544.778 238.938 526.829 239.522 511.948 249.734Z" fill="#6C63FF"/>
<path d="M544.778 238.938C544.778 238.938 526.169 248.739 520.201 256.85C514.233 264.961 490.897 275.915 490.897 275.915" stroke="#535461" stroke-width="2" stroke-miterlimit="10"/>
<path d="M502.348 229.161C494.246 234.717 490.877 243.412 490.877 243.412C490.877 243.412 500.633 243.092 508.734 237.536C516.836 231.98 520.201 223.285 520.201 223.285C520.201 223.285 510.445 223.6 502.348 229.161Z" fill="#6C63FF"/>
<path d="M520.201 223.285C520.201 223.285 510.076 228.62 506.823 233.033C503.569 237.445 490.877 243.412 490.877 243.412" stroke="#535461" stroke-width="2" stroke-miterlimit="10"/>
<path d="M479.108 242.968C488.41 252.668 490.377 265.34 490.377 265.34C490.377 265.34 477.261 262.287 467.959 252.587C458.657 242.886 456.689 230.219 456.689 230.219C456.689 230.219 469.805 233.268 479.108 242.968Z" fill="#6C63FF"/>
<path d="M456.689 230.219C456.689 230.219 468.796 240.159 471.889 247.011C474.981 253.864 490.377 265.34 490.377 265.34" stroke="#535461" stroke-width="2" stroke-miterlimit="10"/>
<path opacity="0.2" d="M340.038 39.695C334.525 39.695 330.055 35.455 330.055 30.2246C330.055 24.9942 334.525 20.7542 340.038 20.7542C345.552 20.7542 350.021 24.9942 350.021 30.2246C350.021 35.455 345.552 39.695 340.038 39.695Z" stroke="#6C63FF" stroke-miterlimit="10"/>
<path opacity="0.2" d="M340.038 47.3422C330.073 47.3422 321.994 39.6784 321.994 30.2246C321.994 20.7708 330.073 13.1069 340.038 13.1069C350.004 13.1069 358.083 20.7708 358.083 30.2246C358.083 39.6784 350.004 47.3422 340.038 47.3422Z" stroke="#6C63FF" stroke-miterlimit="10"/>
<path opacity="0.2" d="M340.038 57.2098C324.328 57.2098 311.592 45.1281 311.592 30.2245C311.592 15.321 324.328 3.23926 340.038 3.23926C355.749 3.23926 368.485 15.321 368.485 30.2245C368.485 45.1281 355.749 57.2098 340.038 57.2098Z" stroke="#6C63FF" stroke-miterlimit="10"/>
<path d="M271.069 350.052C271.336 348.167 272.703 345.745 272.703 345.745L280.002 335.624H279.937C279.937 335.624 281.092 330.537 279.937 328.049C278.782 325.56 284.043 319.406 284.043 319.406C284.043 319.406 284.684 317.865 283.034 315.97C281.385 314.075 284.043 308.514 284.043 308.514C284.043 308.514 285.33 296.909 285.456 295.115C285.582 293.32 286.611 283.515 286.611 283.515L289.052 262.674L293.391 207.45L293.472 206.416C292.932 206.172 292.649 206.019 292.649 206.019L293.557 175.502L292.806 174.875C286.248 169.386 271.159 156.69 271.306 156.398C271.502 156.044 273.137 135.175 273.323 129.935C273.488 126.207 274.361 122.538 275.901 119.105C276.28 118.407 277.369 113.841 277.823 111.889L278.02 111.023C278.02 111.023 282.449 103.208 282.056 99.6571C281.662 96.1062 280.9 93.4359 290.339 92.1965C290.339 92.1965 298.299 91.1006 302.986 88.1097C305.784 86.3207 308.83 84.9068 312.036 83.9081C312.036 83.9081 313.771 81.0368 315.461 81.5919V75.4952C314.163 75.013 313.047 74.1742 312.255 73.0862C311.463 71.9983 311.032 70.7109 311.017 69.3889V47.4284C311.043 45.6447 311.815 43.944 313.163 42.7003C314.511 41.4565 316.325 40.7715 318.205 40.7957H338.278C338.568 40.8026 338.858 40.8266 339.145 40.8675V30.818C339.145 30.6728 339.177 30.5292 339.238 30.3959C339.298 30.2626 339.387 30.1424 339.498 30.0428C339.723 29.8337 340.026 29.7168 340.341 29.7174C340.653 29.7135 340.954 29.8272 341.178 30.0335C341.402 30.2398 341.531 30.5219 341.536 30.818V41.5806C342.656 42.1346 343.595 42.9671 344.253 43.9888C344.912 45.0106 345.265 46.183 345.274 47.3806V69.3411C345.259 70.6625 344.829 71.9495 344.038 73.0374C343.247 74.1252 342.132 74.9644 340.835 75.4473V81.2426C341.647 81.1516 342.853 81.6828 344.225 84.334C344.225 84.334 351.096 88.0044 353.472 88.4208C355.848 88.8371 364.257 91.5553 364.257 91.5553C365.535 92.4058 367.06 92.8604 368.621 92.8569C371.254 92.8569 373.438 98.1879 373.116 101.088C372.793 103.988 373.312 106.117 375.749 106.237C378.185 106.357 376.854 110.989 376.844 111.023C376.874 111.152 376.955 111.501 377.071 112.008C377.545 114.033 378.584 118.373 378.947 119.053C380.498 122.483 381.38 126.153 381.55 129.882C381.742 135.146 383.381 155.992 383.568 156.346C383.689 156.58 373.348 165.342 366.068 171.463L365.019 172.344L368.364 201.31C368.364 201.31 368.364 204.555 364.923 206.986C364.923 207.316 364.923 207.665 364.964 208.019C365.11 211.369 365.402 215.509 365.972 216.585C366.981 218.499 366.744 228.659 366.744 228.659C366.744 228.659 367.753 249.385 369.055 251.629C370.356 253.874 370.598 258.616 370.21 259.564C369.821 260.511 371.496 285.376 371.496 285.376L372.783 296.503C372.783 296.503 372.394 307.16 373.549 307.399C374.705 307.638 375.35 314.975 375.35 314.975C375.35 314.975 379.457 320.186 377.661 322.081C375.865 323.976 377.928 324.804 378.115 325.278C378.301 325.751 382.029 327.527 379.331 334.155C379.305 334.222 379.27 334.279 379.24 334.341C381.762 337.581 389.768 348.071 389.284 349.655C388.917 350.681 388.152 351.537 387.145 352.048C385.263 353.091 382.029 353.574 376.894 352.048C368.353 349.502 368.994 347.664 368.994 347.664C368.994 347.664 368.929 344.707 365.397 344.467C361.866 344.228 359.233 341.213 359.233 341.213L359.647 339.778L360.217 337.801C360.146 337.213 359.712 336.246 357.76 335.696C354.804 334.868 355.576 329.661 355.576 329.661C355.576 329.661 355.833 324.211 354.567 323.502C353.3 322.794 353.8 313.793 353.8 313.793C353.8 313.793 352.382 307.28 350.329 302.896C348.276 298.513 345.834 272.47 345.834 272.47C345.834 272.47 344.17 259.683 342.626 256.013C341.082 252.342 339.67 242.039 339.67 242.039C339.67 242.039 330.166 224.989 330.04 221.198C330.04 221.198 328.809 217.648 327.623 221.557C326.438 225.467 322.977 234.818 322.977 234.818L319.638 246.303L315.658 263.469L313.09 277.916C313.09 277.916 313.468 283.419 312.444 285.333C311.42 287.248 310.003 291.607 310.775 292.44C311.546 293.272 309.231 297.173 308.59 298.001C307.95 298.828 308.59 316.358 308.59 316.358C308.59 316.358 305.639 331.274 301.402 333.877C301.104 334.055 300.79 334.205 300.463 334.327C300.524 335.945 300.584 338.108 300.504 339.237C300.512 339.49 300.468 339.742 300.373 339.979C299.989 340.457 295.621 343.644 294.723 343.644C293.825 343.644 290.616 345.721 290.485 346.726C290.354 347.731 281.097 351.99 279.791 352.115C278.484 352.239 272.123 353.297 271.215 351.636C270.998 351.134 270.947 350.582 271.069 350.052ZM293.81 136.692L293.149 137.218C293.149 137.218 292.478 142.104 291.993 143.564C291.509 145.023 292.089 147.871 292.089 147.871C292.089 147.871 291.993 149.914 291.418 150.976C290.843 152.039 292.548 154.355 292.548 154.355H294.112L294.617 136.065L293.81 136.692ZM363.344 152.484C363.584 152.013 363.62 151.472 363.445 150.976C363.307 150.71 363.197 150.431 363.117 150.144C362.928 149.398 362.811 148.637 362.769 147.871C362.768 147.863 362.768 147.855 362.769 147.847C362.82 147.569 363.314 144.975 362.86 143.54C362.406 142.104 361.705 137.194 361.705 137.194L361.266 136.845L360.257 136.041C360.257 136.041 360.227 135.735 360.186 135.232C359.969 139.539 359.798 144.248 360.075 144.507C360.58 144.985 362.451 149.598 362.002 149.771C361.856 149.828 362.058 151.685 362.396 154.164C362.775 153.639 363.093 153.078 363.344 152.489V152.484Z" fill="url(#paint0_linear_3_982)"/>
<path d="M338.883 31.3204V45.8347C338.883 46.1266 339.005 46.4066 339.223 46.613C339.44 46.8194 339.736 46.9354 340.043 46.9354C340.351 46.9354 340.646 46.8194 340.864 46.613C341.081 46.4066 341.203 46.1266 341.203 45.8347V31.3204C341.203 31.1758 341.173 31.0327 341.115 30.8992C341.057 30.7656 340.971 30.6443 340.864 30.5421C340.756 30.4399 340.628 30.3588 340.487 30.3035C340.346 30.2482 340.196 30.2197 340.043 30.2197C339.736 30.2222 339.443 30.339 339.226 30.5449C339.009 30.7507 338.886 31.0292 338.883 31.3204Z" fill="#6F758D"/>
<path d="M315.91 70.121V92.6749C315.915 94.4768 316.672 96.2036 318.015 97.4777C319.359 98.7519 321.179 99.47 323.078 99.475H333.349C335.249 99.4712 337.071 98.7537 338.415 97.4794C339.759 96.2051 340.517 94.4777 340.522 92.6749V70.121C340.516 68.3186 339.758 66.5919 338.414 65.3178C337.07 64.0438 335.249 63.3258 333.349 63.3208H323.078C321.179 63.3259 319.359 64.0439 318.015 65.3181C316.672 66.5923 315.915 68.319 315.91 70.121Z" fill="#6F758D"/>
<path d="M356.297 154.637L358.259 177.608C358.259 177.608 361.205 175.076 365.019 171.774C372.081 165.663 382.12 156.91 382.004 156.681C381.817 156.327 380.228 135.486 380.042 130.255C379.877 126.536 379.023 122.874 377.519 119.435C377.166 118.761 376.157 114.43 375.698 112.405C375.552 111.774 375.466 111.367 375.466 111.367L372.192 110.123C372.192 110.123 358.451 124.666 358.451 124.934C358.451 125.202 359.384 136.371 359.384 136.371L360.363 137.18L360.787 137.524C360.787 137.524 361.442 142.406 361.912 143.865C362.35 145.253 361.871 147.871 361.821 148.143V148.167C361.862 148.932 361.977 149.691 362.164 150.436C362.239 150.724 362.344 151.004 362.477 151.273C362.646 151.767 362.612 152.304 362.381 152.776C362.121 153.433 361.783 154.059 361.372 154.642L356.297 154.637Z" fill="#3F3D56"/>
<path d="M273.016 156.676C272.869 156.953 287.529 169.644 293.88 175.124L296.761 177.603L298.723 154.632H293.678C293.678 154.632 291.993 152.326 292.553 151.283C293.113 150.239 293.209 148.177 293.209 148.177C293.209 148.177 292.649 145.339 293.113 143.87C293.577 142.401 294.238 137.529 294.238 137.529L294.879 136.984L295.641 136.352C295.641 136.352 296.584 125.197 296.584 124.929C296.584 124.661 282.843 110.118 282.843 110.118L279.574 111.362C279.574 111.362 279.498 111.697 279.382 112.228C278.938 114.143 277.869 118.737 277.515 119.43C276.01 122.868 275.156 126.531 274.993 130.25C274.791 135.481 273.202 156.322 273.016 156.676Z" fill="#3F3D56"/>
<path d="M272.955 351.617C273.828 353.272 280.018 352.21 281.269 352.095C282.52 351.98 291.524 347.716 291.65 346.716C291.777 345.716 294.894 343.639 295.762 343.639C296.629 343.639 300.872 340.447 301.25 339.974C301.341 339.738 301.383 339.488 301.376 339.237C301.508 337.294 301.25 332.288 301.25 332.288L283.176 333.245L274.388 345.764C274.388 345.764 273.066 348.157 272.804 350.071C272.698 350.589 272.751 351.126 272.955 351.617Z" fill="#3F3D56"/>
<path opacity="0.1" d="M272.955 351.617C273.828 353.272 280.018 352.21 281.269 352.095C282.52 351.98 291.524 347.716 291.65 346.716C291.777 345.716 294.894 343.639 295.762 343.639C296.629 343.639 300.872 340.447 301.25 339.974C301.341 339.738 301.383 339.488 301.376 339.237C301.508 337.294 301.25 332.288 301.25 332.288L283.176 333.245L274.388 345.764C274.388 345.764 273.066 348.157 272.804 350.071C272.698 350.589 272.751 351.126 272.955 351.617Z" fill="black"/>
<path opacity="0.1" d="M272.955 351.617C273.828 353.273 280.018 352.21 281.269 352.095C282.52 351.981 291.524 347.717 291.65 346.717C291.777 345.716 294.894 343.639 295.762 343.639C296.629 343.639 300.872 340.448 301.25 339.974C301.341 339.738 301.383 339.488 301.376 339.237L295.515 342.759C295.515 342.759 291.777 345.008 290.778 346.367C289.779 347.726 281.919 350.507 281.269 350.559C280.764 350.607 275.619 349.669 272.804 350.081C272.7 350.596 272.752 351.129 272.955 351.617Z" fill="black"/>
<path d="M358.395 341.271C358.395 341.271 360.953 344.286 364.378 344.52C365.28 344.529 366.143 344.864 366.792 345.458C367.442 346.051 367.827 346.858 367.869 347.712C367.869 347.712 367.244 349.55 375.532 352.091C380.521 353.622 383.659 353.139 385.49 352.091C386.475 351.572 387.215 350.716 387.558 349.698C388.118 347.808 377.091 333.427 377.091 333.427L367.057 332.834L359.889 335.911L358.794 339.802L358.395 341.271Z" fill="#3F3D56"/>
<path opacity="0.1" d="M358.395 341.271C358.395 341.271 360.953 344.286 364.378 344.52C365.28 344.529 366.143 344.864 366.792 345.458C367.442 346.051 367.827 346.858 367.869 347.712C367.869 347.712 367.244 349.55 375.532 352.091C380.521 353.622 383.659 353.139 385.49 352.091C386.475 351.572 387.215 350.716 387.558 349.698C388.118 347.808 377.091 333.427 377.091 333.427L367.057 332.834L359.889 335.911L358.794 339.802L358.395 341.271Z" fill="black"/>
<path opacity="0.1" d="M358.395 341.271C358.395 341.271 360.953 344.286 364.378 344.52C365.28 344.529 366.143 344.864 366.793 345.458C367.442 346.051 367.827 346.858 367.869 347.712C367.869 347.712 367.244 349.55 375.532 352.091C380.521 353.622 383.659 353.139 385.49 352.091C380.783 351.612 370.392 348.808 369.347 347.832C368.101 346.645 366.542 343.395 365.483 343.338C364.752 343.295 361.019 341.161 358.779 339.84L358.395 341.271Z" fill="black"/>
<path d="M281.45 328.087C282.57 330.57 281.45 335.652 281.45 335.652C281.45 335.652 298.153 336.485 302.264 333.882C306.376 331.278 309.246 316.381 309.246 316.381C309.246 316.381 308.625 298.886 309.246 298.053C309.866 297.22 312.111 293.325 311.365 292.502C310.618 291.679 311.99 287.295 312.984 285.405C313.978 283.515 313.61 278.074 313.61 278.074L316.102 263.65L319.966 246.504L323.204 235.019C323.204 235.019 326.569 225.677 327.714 221.772C328.859 217.868 330.06 221.418 330.06 221.418C330.181 225.204 339.408 242.23 339.408 242.23C339.408 242.23 340.78 252.514 342.278 256.18C343.776 259.846 345.39 272.618 345.39 272.618C345.39 272.618 347.756 298.627 349.754 303.001C351.752 307.375 353.083 313.898 353.083 313.898C353.083 313.898 352.579 322.885 353.83 323.593C355.081 324.301 354.839 329.742 354.839 329.742C354.839 329.742 354.092 334.944 356.963 335.777C359.833 336.609 359.329 338.375 359.329 338.375C359.329 338.375 375.28 340.845 377.903 334.236C380.526 327.627 376.894 325.842 376.722 325.368C376.551 324.895 374.533 324.072 376.284 322.176C378.034 320.281 374.039 315.08 374.039 315.08C374.039 315.08 373.413 307.753 372.293 307.514C371.173 307.275 371.547 296.636 371.547 296.636L370.301 285.525C370.301 285.525 368.676 260.693 369.05 259.745C369.423 258.798 369.176 254.07 367.93 251.825C366.684 249.581 365.695 228.888 365.695 228.888C365.695 228.888 365.947 218.719 364.948 216.829C364.383 215.757 364.101 211.637 363.939 208.273C363.839 205.712 363.808 203.588 363.808 203.588L349.855 198.62L331.896 193.184L316.813 200.037L294.753 204.057L294.475 207.67L290.283 262.841L287.912 283.653C287.912 283.653 286.903 293.464 286.787 295.234C286.671 297.005 285.42 308.6 285.42 308.6C285.42 308.6 282.802 314.156 284.411 316.046C286.021 317.937 285.42 319.477 285.42 319.477C285.42 319.477 280.31 325.603 281.45 328.087Z" fill="#3F3D56"/>
<path opacity="0.1" d="M307.601 89.9615L313.332 186.858L344.498 180.651L350.667 141.807L344.558 89.6648L339.957 90.2247L331.841 91.2057L323.805 91.6795L315.098 90.7559L307.601 89.9615Z" fill="black"/>
<path d="M307.601 90.6746L313.332 187.566L344.498 181.359L350.667 142.516L344.558 90.3779L339.957 90.933L331.841 91.9141L323.805 92.3878L315.098 91.4642L307.601 90.6746Z" fill="#6C63FF"/>
<path d="M333.218 93.2732L321.999 93.6273L325.152 97.8146C325.152 97.8146 324.93 106.275 323.431 108.702C321.933 111.128 322.372 148.608 322.372 148.608L325.338 153.986L330.448 147.957L330.388 98.475L333.218 93.2732Z" fill="#3F3D56"/>
<path opacity="0.1" d="M333.218 93.2732L321.999 93.6273L325.152 97.8146C325.152 97.8146 324.93 106.275 323.431 108.702C321.933 111.128 322.372 148.608 322.372 148.608L325.338 153.986L330.448 147.957L330.388 98.475L333.218 93.2732Z" fill="black"/>
<path opacity="0.1" d="M315.643 82.2761L326.11 93.2731L320.127 99.1832L310.22 90.0238L315.643 82.2761Z" fill="black"/>
<path d="M316.334 82.2905L326.115 92.5601L320.132 98.475L310.204 89.3108L315.052 82.3814C315.119 82.2808 315.209 82.1964 315.316 82.135C315.423 82.0737 315.544 82.0371 315.669 82.0282C315.793 82.0194 315.919 82.0385 316.034 82.0841C316.15 82.1296 316.252 82.2004 316.334 82.2905Z" fill="#6C63FF"/>
<path opacity="0.1" d="M330.534 92.7419L341.128 82.6924L342.127 87.9516L337.264 99.4798L330.534 92.7419Z" fill="black"/>
<path d="M330.161 92.0338L340.754 81.9795L341.753 87.2435L336.89 98.7717L330.161 92.0338Z" fill="#6C63FF"/>
<path opacity="0.1" d="M294.49 207.67C299.568 209.974 305.009 211.476 310.598 212.115C320.879 213.36 327.608 200.946 327.608 200.946L331.533 205.794C332.779 210.938 351.792 212.235 359.515 210.283C361.118 209.909 362.625 209.232 363.944 208.292C363.844 205.732 363.813 203.607 363.813 203.607L349.855 198.62L331.896 193.184L316.813 200.037L294.753 204.057L294.49 207.67Z" fill="black"/>
<path opacity="0.1" d="M307.606 90.6698L313.337 187.561L344.498 181.34L350.667 142.501L344.558 90.3396L339.957 90.8947C340.076 92.7887 340.301 94.6753 340.633 96.5464C341.38 99.8579 336.769 123.388 336.769 123.388C336.769 123.388 328.007 149.77 324.057 145.971C320.107 142.171 314.523 122.086 314.523 122.086C310.719 114.635 314.457 93.7708 314.74 93.3257C314.936 92.7029 315.056 92.0606 315.098 91.4115L307.606 90.6698Z" fill="black"/>
<path opacity="0.1" d="M294.142 165.63L293.88 175.124L296.761 177.603L298.723 154.633H294.425L294.142 165.63Z" fill="black"/>
<path opacity="0.1" d="M361.816 148.139V148.163C361.857 148.927 361.972 149.686 362.159 150.431C362.159 150.22 362.159 150.101 362.199 150.086C362.381 150.01 362.164 149.144 361.816 148.139Z" fill="black"/>
<path opacity="0.1" d="M356.297 154.637L358.259 177.607C358.259 177.607 361.205 175.076 365.019 171.774L364.565 167.706C364.565 167.706 362.956 157.705 362.371 152.776C362.111 153.432 361.773 154.059 361.362 154.642L356.297 154.637Z" fill="black"/>
<path d="M339.392 82.3336C339.392 82.3336 341.259 79.7351 343.812 84.7598C343.812 84.7598 350.48 88.4255 352.786 88.837C355.091 89.2486 363.253 91.9715 363.253 91.9715C364.487 92.8195 365.972 93.2752 367.496 93.2732C370.048 93.2732 372.167 98.5898 371.854 101.49C371.542 104.39 372.041 106.515 374.412 106.634C376.783 106.754 375.471 111.42 375.471 111.42L359.702 128.566C359.702 128.566 358.693 144.358 359.198 144.837C359.702 145.315 361.508 149.919 361.069 150.101C360.63 150.282 363.44 167.721 363.44 167.721L367.244 201.588C367.244 201.588 367.244 207.258 359.515 209.211C351.787 211.163 332.779 209.862 331.533 204.717L327.608 199.87C327.608 199.87 320.879 212.312 310.598 211.044C300.317 209.775 293.769 206.258 293.769 206.258L294.894 165.644L295.641 136.381L279.564 111.377C279.564 111.377 283.862 103.571 283.488 100.025C283.115 96.4794 282.363 93.8044 291.524 92.5745C291.524 92.5745 299.253 91.4834 303.803 88.4973C306.509 86.7128 309.468 85.2999 312.591 84.3004C312.591 84.3004 314.659 80.7592 316.445 82.2905C316.445 82.2905 315.143 87.7268 315.299 88.703C315.456 89.6793 315.022 93.9958 314.74 94.4456C314.457 94.8954 310.704 115.755 314.523 123.206C314.523 123.206 320.107 143.305 324.057 147.086C328.007 150.866 336.769 124.503 336.769 124.503C336.769 124.503 341.38 100.978 340.633 97.6662C339.887 94.3547 339.392 82.3336 339.392 82.3336Z" fill="#3F3D56"/>
<path d="M326.05 159.844C324.534 159.844 323.305 158.678 323.305 157.241C323.305 155.803 324.534 154.637 326.05 154.637C327.565 154.637 328.794 155.803 328.794 157.241C328.794 158.678 327.565 159.844 326.05 159.844Z" fill="#3F3D56"/>
<path d="M326.05 172.109C324.534 172.109 323.305 170.943 323.305 169.506C323.305 168.068 324.534 166.902 326.05 166.902C327.565 166.902 328.794 168.068 328.794 169.506C328.794 170.943 327.565 172.109 326.05 172.109Z" fill="#3F3D56"/>
<path opacity="0.1" d="M326.05 159.844C324.534 159.844 323.305 158.678 323.305 157.241C323.305 155.803 324.534 154.637 326.05 154.637C327.565 154.637 328.794 155.803 328.794 157.241C328.794 158.678 327.565 159.844 326.05 159.844Z" fill="black"/>
<path opacity="0.1" d="M326.05 172.109C324.534 172.109 323.305 170.943 323.305 169.506C323.305 168.068 324.534 166.902 326.05 166.902C327.565 166.902 328.794 168.068 328.794 169.506C328.794 170.943 327.565 172.109 326.05 172.109Z" fill="black"/>
<path opacity="0.1" d="M301.412 324.541C301.412 324.541 290.157 325.368 289.032 326.196C287.907 327.024 301.412 324.541 301.412 324.541Z" fill="black"/>
<path opacity="0.1" d="M368.429 316.147C368.429 316.147 366.058 318.985 367.057 320.286C368.056 321.588 368.429 316.147 368.429 316.147Z" fill="black"/>
<path opacity="0.1" d="M365.564 326.364C365.564 326.364 361.2 323.646 359.455 325.455C357.709 327.263 365.564 326.364 365.564 326.364Z" fill="black"/>
<path opacity="0.1" d="M315.91 70.121V76.9498C316.81 77.3248 317.782 77.5187 318.765 77.5193H337.657C338.644 77.5199 339.62 77.3243 340.522 76.945V70.121C340.516 68.3186 339.758 66.5919 338.414 65.3178C337.07 64.0438 335.249 63.3258 333.349 63.3208H323.078C321.179 63.3271 319.36 64.0456 318.017 65.3195C316.674 66.5934 315.917 68.3194 315.91 70.121Z" fill="black"/>
<path opacity="0.1" d="M338.883 40.7957V45.8395C338.883 46.1315 339.005 46.4114 339.223 46.6178C339.44 46.8242 339.736 46.9402 340.043 46.9402C340.351 46.9402 340.646 46.8242 340.864 46.6178C341.081 46.4114 341.203 46.1315 341.203 45.8395V41.5948C340.487 41.1972 339.701 40.9264 338.883 40.7957Z" fill="black"/>
<path d="M317.65 41.2551H338.777C342.12 41.2551 344.831 43.8262 344.831 46.9977V70.6427C344.831 73.8142 342.12 76.3853 338.777 76.3853H317.65C314.307 76.3853 311.597 73.8142 311.597 70.6427V46.9977C311.597 43.8262 314.307 41.2551 317.65 41.2551Z" fill="#DCDFED"/>
<path opacity="0.1" d="M318.78 64.7229V79.0459H337.657V64.6942C336.418 63.8024 334.905 63.3201 333.349 63.3208H323.078C321.523 63.3325 320.014 63.8247 318.78 64.7229Z" fill="black"/>
<path opacity="0.1" d="M318.558 41.2551H338.036V77.8879H318.558V41.2551Z" fill="black"/>
<path d="M318.765 41.2551H337.657V77.8879H318.765V41.2551Z" fill="#6F758D"/>
<path d="M330.161 53.8936H336.27V54.9655H330.161V53.8936Z" fill="#DCDFED"/>
<path d="M320.001 53.8936H326.11V54.9655H320.001V53.8936Z" fill="#DCDFED"/>
<path d="M323.058 65.7327H333.369V66.3739H323.058V65.7327Z" fill="#DCDFED"/>
<path d="M198.558 105.141L191.253 139.376C191.169 139.756 190.959 140.1 190.654 140.358C190.349 140.616 189.965 140.775 189.558 140.812L184.69 141.262C184.331 141.859 184.006 142.474 183.716 143.104C182.849 145.018 182.284 147.315 180.412 148.45C179.403 149.407 177.128 149.239 175.827 149.244C174.459 149.196 173.093 149.376 171.791 149.775C171.942 149.759 172.094 149.759 172.245 149.775C171.397 150.097 170.578 150.481 169.793 150.924C169.733 151 169.667 151.077 169.617 151.153C169.41 151.455 169.243 151.819 168.895 151.967C168.996 152.158 168.517 152.163 167.75 152.063C167.675 152.076 167.602 152.098 167.533 152.13C167.328 152.26 167.156 152.431 167.029 152.632C165.763 154.23 163.412 154.628 161.293 154.68C159.174 154.733 156.935 154.594 155.068 155.546C154.624 155.771 154.211 156.054 153.746 156.245C153.771 156.454 153.762 156.665 153.721 156.872C153.503 157.534 153.219 158.175 152.874 158.786C152.703 159.097 152.61 159.44 152.601 159.79C152.593 160.14 152.669 160.488 152.823 160.806C152.98 161.064 153.232 161.284 153.393 161.524C153.611 161.941 153.72 162.402 153.711 162.868C153.857 165.046 153.999 167.266 153.373 169.362C153.01 170.582 152.394 171.851 152.798 173.057C153.04 173.784 153.64 174.401 153.726 175.157C153.812 175.913 153.308 176.708 153.01 177.469C152.309 179.273 152.692 181.436 153.176 183.297C153.145 183.314 153.113 183.328 153.081 183.34C153.437 183.738 153.732 184.181 153.958 184.657C154.73 186.231 154.68 188.045 154.624 189.777C154.518 193.036 154.402 196.333 153.449 199.463C153.286 199.908 153.175 200.368 153.116 200.836C153.101 201.278 153.141 201.72 153.237 202.152C153.464 203.406 153.741 204.655 154.069 205.89C154.253 206.418 154.326 206.976 154.286 207.531C154.19 208.254 153.711 208.881 153.393 209.551C152.127 212.221 153.489 215.508 152.258 218.193C151.966 218.83 151.537 219.404 151.285 220.055C150.73 221.49 151.043 223.041 150.856 224.534C150.654 225.589 150.381 226.632 150.039 227.654C149.146 230.975 150.624 234.516 149.761 237.847C149.025 240.718 148.278 243.59 148.248 246.514C148.202 248.557 148.5 250.6 148.248 252.629C147.996 254.658 147.108 256.75 145.277 257.831C144.302 258.357 143.213 258.662 142.093 258.721C139.924 269.426 140.05 280.462 138.164 291.224C137.785 293.397 137.321 295.531 137.089 297.747C136.015 307.988 140.045 317.927 142.32 328.048L142.684 328.259C145.483 329.915 148.465 331.781 149.575 334.71C149.918 335.614 149.998 336.768 149.232 337.404C148.946 337.58 148.676 337.779 148.424 337.997C147.814 338.696 148.349 339.95 147.612 340.524C147.13 340.601 146.643 340.649 146.154 340.668C146.491 341.427 146.827 342.188 147.163 342.95C147.471 343.625 147.784 344.362 147.592 345.075C147.416 345.527 147.181 345.957 146.891 346.353C146.362 347.43 146.116 348.612 146.174 349.798C146.219 350.192 146.106 350.586 145.857 350.904C145.718 351.025 145.557 351.12 145.382 351.186C143.138 352.12 140.675 352.479 138.239 352.227C135.803 351.975 133.479 351.121 131.5 349.75C131.309 349.635 131.148 349.481 131.026 349.301C130.964 349.177 130.919 349.047 130.889 348.913C130.572 347.674 130.249 346.434 129.931 345.195C129.891 345.051 129.855 344.903 129.815 344.759C129.442 343.295 129.063 341.835 128.685 340.371C128.18 338.313 127.631 336.251 127.262 334.15C127.262 335.318 127.262 336.48 127.262 337.648V341.735C127.273 342.337 127.252 342.939 127.197 343.539C126.667 343.539 126.137 343.539 125.608 343.539C125.569 343.544 125.53 343.539 125.495 343.525C125.459 343.511 125.428 343.487 125.406 343.458C125.334 343.307 125.3 343.144 125.305 342.979C125.228 341.486 125.172 339.99 125.139 338.49C125.073 335.868 125.063 333.226 125.113 330.613C125.113 330.02 125.053 328.8 125.154 327.981C124.893 327.402 124.678 326.805 124.508 326.196C124.251 325.373 124.003 324.541 123.792 323.703C123.457 323.659 123.117 323.659 122.783 323.703C122.772 328.536 123.267 333.358 124.261 338.098C123.282 338.964 121.552 338.462 120.765 337.428C119.978 336.394 119.877 335.035 119.756 333.791C119.388 329.637 118.681 325.517 117.97 321.401C117.896 320.692 117.682 320.002 117.34 319.368C117.002 318.822 116.472 318.41 116.174 317.827C115.861 317.1 115.767 316.304 115.902 315.53C116.083 313.716 116.558 311.869 117.728 310.414C118.828 309.05 120.654 308.122 122.445 308.323L122.556 308.131C123.595 306.155 123.489 303.824 123.358 301.642C123.213 299.16 123.065 296.678 122.914 294.196C122.485 291.459 122.147 288.721 121.945 285.979C121.441 284.218 120.76 282.505 120.306 280.715C120.306 278.978 119.655 277.169 119.635 275.384C119.627 273.527 119.774 271.673 120.074 269.838C120.649 266.067 121.688 262.377 122.551 258.664C122.692 258.037 122.783 257.372 122.879 256.716C122.294 256.393 121.755 256 121.274 255.548C122.157 249.04 122.959 242.053 119.711 236.253C118.747 234.54 117.43 232.904 117.092 230.989C117.007 230.511 116.981 230.004 116.875 229.52C116.727 228.949 116.515 228.394 116.245 227.865L109.818 214.058L108.779 211.838C107.664 209.445 106.549 207.053 105.596 204.578C104.476 201.707 103.578 198.726 102.735 195.764C102.231 193.988 101.727 192.179 101.762 190.342C101.855 188.71 102.26 187.108 102.957 185.614C103.109 185.274 103.27 184.939 103.462 184.604C103.265 184.546 103.073 184.503 102.882 184.446C102.453 181.551 102.09 178.359 103.81 175.937C104.146 175.552 104.417 175.12 104.612 174.655C104.92 173.664 104.254 172.655 104.042 171.64C103.608 169.568 105.081 167.62 106.342 165.874C106.535 165.64 106.685 165.378 106.786 165.098C107.018 164.304 106.509 163.419 106.499 162.615C106.497 162.401 106.547 162.19 106.645 161.997C101.777 162.265 96.9746 163.471 92.0914 163.648C88.9991 163.763 85.5334 163.304 83.5711 161.064C82.315 159.628 81.866 157.738 81.7449 155.891C81.523 152.489 82.2494 149.1 82.8548 145.736C83.2482 143.454 83.561 141.157 83.8082 138.85C83.3037 138.893 82.7993 138.917 82.2948 138.917C79.4043 138.917 76.3977 138.515 74.0065 137.003C71.6154 135.491 70.0163 132.605 70.7679 129.978C71.1916 128.494 72.2813 127.269 73.0783 125.934C75.8932 121.22 75.0962 115.224 72.6748 110.309C71.5397 107.984 70.0364 105.572 70.4904 103.045C71.1362 99.5038 75.1567 97.6614 78.1734 95.4601C80.7963 93.5059 82.8677 90.9654 84.2023 88.0659C85.5368 85.1664 86.093 81.9983 85.821 78.8449C85.5889 76.5144 84.918 74.0595 85.9017 71.9108C86.961 69.609 89.5792 68.3983 91.7837 67.0009C95.2072 64.8198 97.9677 61.8249 99.7895 58.3153C100.914 56.1331 101.843 54.1328 104.496 53.3862C106.63 52.8552 108.866 52.8158 111.019 53.2714L110.575 53.0704C110.777 53.1039 110.978 53.1422 111.17 53.1852L111.483 53.2666C113.515 52.8471 115.62 52.8585 117.647 53.3001C121.749 54.2333 126.223 57.028 129.583 59.3298C130.588 59.9936 131.512 60.7625 132.337 61.622C132.423 61.713 132.519 61.7943 132.605 61.8852C133.009 62.3086 133.349 62.7839 133.613 63.2969C133.788 63.6713 133.918 64.0629 134.002 64.4646C134.35 65.5685 134.491 66.7216 134.421 67.8719C134.602 68.1111 134.779 68.3504 134.925 68.604C137.069 71.8307 137.831 75.7127 137.057 79.4554C136.282 83.198 134.029 86.5183 130.758 88.7365C131.362 90.0425 132.076 91.3004 132.892 92.4979C133.76 93.8283 134.678 95.1347 135.616 96.422L145.705 99.389C146.341 99.5804 146.977 99.767 147.587 100.011C148.326 100.309 149.019 100.702 149.645 101.179C150.656 101.934 151.442 102.926 151.927 104.057C152.412 105.188 152.578 106.419 152.41 107.63C152.364 107.878 152.304 108.108 152.243 108.367C152.546 109.831 152.778 111.319 153.01 112.798C153.313 114.793 153.615 116.789 153.893 118.789C154.928 120.771 155.381 122.982 155.204 125.187C155.17 126.521 155.047 127.85 154.836 129.169C154.871 130.341 154.886 131.514 154.836 132.686C154.74 134.173 154.74 135.664 154.836 137.151C155.009 138.509 155.289 139.853 155.673 141.171C155.687 141.291 155.728 141.408 155.792 141.512C155.856 141.617 155.943 141.708 156.047 141.779L156.163 141.807L156.839 141.745L157.585 141.664C157.587 141.563 157.595 141.462 157.611 141.362L165.566 104.442C165.659 104.034 165.897 103.668 166.24 103.407C166.584 103.145 167.012 103.004 167.453 103.007H196.676C196.956 103.007 197.232 103.065 197.485 103.177C197.739 103.29 197.963 103.453 198.142 103.657C198.322 103.86 198.452 104.099 198.524 104.355C198.595 104.612 198.607 104.88 198.558 105.141ZM105.979 149.22C105.917 149.067 105.845 148.919 105.762 148.775C105.465 148.297 105.031 147.904 104.753 147.421C104.611 147.148 104.538 146.849 104.538 146.545C104.538 146.241 104.611 145.942 104.753 145.669C105.041 145.191 104.249 144.736 104.017 144.234C103.908 143.829 103.882 143.408 103.941 142.994C103.853 142.298 103.569 141.637 103.119 141.08C102.564 140.247 102.004 139.424 101.434 138.601C101.268 138.352 101.091 138.123 100.93 137.864C100.836 138.029 100.734 138.189 100.622 138.343C100.208 138.786 99.8921 139.303 99.6936 139.864C99.6582 140.258 99.6582 140.653 99.6936 141.047C99.6936 142.272 98.8764 143.348 98.2559 144.43C97.6354 145.511 97.1814 146.866 97.8271 147.933C98.0541 148.306 98.3316 148.89 97.9431 149.062C97.7262 149.158 97.4387 149.062 97.252 149.196C96.9897 149.421 97.3479 149.799 97.6758 149.938C98.7574 150.381 99.923 150.609 101.101 150.609C102.279 150.609 103.445 150.381 104.526 149.938C104.98 149.713 105.475 149.455 105.979 149.22ZM168.028 142.817L159.956 143.568C160.625 143.879 161.366 144.024 162.11 143.99L164.068 143.434C164.068 143.434 164.068 143.559 164.133 143.769C164.501 143.679 164.875 143.592 165.243 143.511C166.186 143.3 167.115 143.066 168.038 142.817H168.028Z" fill="url(#paint1_linear_3_982)"/>
<path d="M105.853 59.9375C104.054 63.4144 101.327 66.384 97.9431 68.5514C95.7588 69.944 93.176 71.1499 92.1267 73.4374C91.1481 75.5717 91.814 78.0171 92.041 80.338C92.3142 83.4707 91.7663 86.6189 90.4461 89.502C89.1258 92.3851 87.0742 94.9137 84.4741 96.8623C81.4927 99.0492 77.5125 100.887 76.8769 104.409C76.4229 106.921 77.8858 109.324 79.036 111.635C81.407 116.526 82.2191 122.488 79.4345 127.173C78.6425 128.509 77.5731 129.724 77.1493 131.198C76.4027 133.816 77.9867 136.668 80.3526 138.19C82.7185 139.711 85.6898 140.104 88.545 140.104C90.6234 140.104 92.8733 139.807 94.3463 138.424C95.3552 137.496 95.8295 136.204 96.2936 134.964L99.9055 125.278C100.561 123.536 101.247 121.728 102.614 120.407C105.51 117.602 110.242 117.899 114.378 117.947C120.475 118.016 126.539 117.108 132.317 115.262C135.697 114.181 139.379 112.338 140.161 109.041C140.933 105.816 138.608 102.744 136.56 100.069C135.026 98.0746 133.576 96.0248 132.211 93.9192C130.879 91.871 129.603 89.7175 129.24 87.3392C128.629 83.3864 130.582 79.5484 132.095 75.8205C133.608 72.0926 134.663 67.6852 132.463 64.278C131.515 62.9523 130.304 61.8145 128.897 60.9281C125.593 58.6359 121.153 55.8603 117.097 54.9272C114.923 54.4457 112.658 54.4752 110.499 55.0133C107.886 55.7646 106.968 57.7506 105.853 59.9375Z" fill="#3F3D56"/>
<path d="M150.382 106.098C151.193 108.721 151.768 111.404 152.102 114.119C153.111 120.679 154.12 127.279 153.928 133.902C153.835 135.382 153.835 136.867 153.928 138.347C154.1 139.697 154.377 141.032 154.755 142.343C154.769 142.463 154.809 142.579 154.873 142.683C154.938 142.787 155.025 142.877 155.129 142.946C155.366 143.056 155.633 142.946 155.911 142.918C156.808 142.812 157.469 143.635 158.165 144.191C158.843 144.709 159.67 145.02 160.539 145.08C161.407 145.141 162.273 144.949 163.023 144.53C162.793 145.504 162.866 146.52 163.235 147.455C163.603 148.39 164.25 149.203 165.097 149.794C165.956 150.371 166.936 150.765 167.97 150.949C169.005 151.134 170.069 151.104 171.09 150.861C170.056 150.708 169.072 151.397 168.487 152.235C168.285 152.536 168.124 152.895 167.78 153.044C167.437 153.192 166.837 153.005 166.434 153.206C166.232 153.33 166.06 153.493 165.929 153.685C164.678 155.278 162.353 155.671 160.259 155.723C158.165 155.776 155.951 155.642 154.105 156.585C153.665 156.847 153.212 157.088 152.748 157.307C151.295 157.877 149.559 157.307 148.429 156.288C147.299 155.269 146.674 153.828 146.21 152.407C144.343 146.665 144.696 140.487 145.09 134.476C145.705 124.915 146.987 115.128 150.382 106.098Z" fill="#454B69"/>
<path opacity="0.1" d="M150.382 106.098C151.193 108.721 151.768 111.404 152.102 114.119C153.111 120.679 154.12 127.279 153.928 133.902C153.835 135.382 153.835 136.867 153.928 138.347C154.1 139.697 154.377 141.032 154.755 142.343C154.769 142.463 154.809 142.579 154.873 142.683C154.938 142.787 155.025 142.877 155.129 142.946C155.366 143.056 155.633 142.946 155.911 142.918C156.808 142.812 157.469 143.635 158.165 144.191C158.843 144.709 159.67 145.02 160.539 145.08C161.407 145.141 162.273 144.949 163.023 144.53C162.793 145.504 162.866 146.52 163.235 147.455C163.603 148.39 164.25 149.203 165.097 149.794C165.956 150.371 166.936 150.765 167.97 150.949C169.005 151.134 170.069 151.104 171.09 150.861C170.056 150.708 169.072 151.397 168.487 152.235C168.285 152.536 168.124 152.895 167.78 153.044C167.437 153.192 166.837 153.005 166.434 153.206C166.232 153.33 166.06 153.493 165.929 153.685C164.678 155.278 162.353 155.671 160.259 155.723C158.165 155.776 155.951 155.642 154.105 156.585C153.665 156.847 153.212 157.088 152.748 157.307C151.295 157.877 149.559 157.307 148.429 156.288C147.299 155.269 146.674 153.828 146.21 152.407C144.343 146.665 144.696 140.487 145.09 134.476C145.705 124.915 146.987 115.128 150.382 106.098Z" fill="black"/>
<path d="M119.756 281.151C120.26 283.223 121.143 285.214 121.612 287.3C121.962 289.092 122.167 290.906 122.228 292.727L122.768 301.953C122.899 304.14 123.005 306.442 121.981 308.404C121.269 309.763 120.038 310.902 119.685 312.386C119.141 314.706 120.891 316.893 122.525 318.698L130.597 327.555C133.119 330.331 135.878 333.25 139.617 334.193C140.174 334.371 140.773 334.39 141.342 334.25C142.386 333.925 142.89 332.729 142.739 331.695C142.502 330.675 142.01 329.723 141.306 328.919C139.198 326.11 136.933 323.344 135.561 320.148C133.82 316.085 133.644 311.582 133.75 307.193C134.148 289.305 138.905 271.623 138.365 253.749C134.249 253.452 129.971 252.792 125.85 252.84C122.172 252.878 122.611 256.434 121.971 259.228C121.118 262.928 120.094 266.593 119.519 270.345C119.225 272.171 119.082 274.016 119.09 275.863C119.11 277.624 119.756 279.423 119.756 281.151Z" fill="#FBBEBE"/>
<path opacity="0.05" d="M119.756 281.151C120.26 283.223 121.143 285.214 121.612 287.3C121.962 289.092 122.167 290.906 122.228 292.727L122.768 301.953C122.899 304.14 123.005 306.442 121.981 308.404C121.269 309.763 120.038 310.902 119.685 312.386C119.141 314.706 120.891 316.893 122.525 318.698L130.597 327.555C133.119 330.331 135.878 333.25 139.617 334.193C140.174 334.371 140.773 334.39 141.342 334.25C142.386 333.925 142.89 332.729 142.739 331.695C142.502 330.675 142.01 329.723 141.306 328.919C139.198 326.11 136.933 323.344 135.561 320.148C133.82 316.085 133.644 311.582 133.75 307.193C134.148 289.305 138.905 271.623 138.365 253.749C134.249 253.452 129.971 252.792 125.85 252.84C122.172 252.878 122.611 256.434 121.971 259.228C121.118 262.928 120.094 266.593 119.519 270.345C119.225 272.171 119.082 274.016 119.09 275.863C119.11 277.624 119.756 279.423 119.756 281.151Z" fill="black"/>
<path d="M122.193 308.634C120.321 308.27 118.359 309.232 117.203 310.677C116.048 312.122 115.579 313.96 115.397 315.769C115.264 316.539 115.357 317.328 115.665 318.052C115.962 318.612 116.482 319.042 116.82 319.583C117.159 320.215 117.371 320.902 117.446 321.607C118.142 325.699 118.843 329.8 119.211 333.93C119.322 335.188 119.428 336.524 120.22 337.548C121.012 338.572 122.702 339.079 123.671 338.213C122.691 333.499 122.203 328.704 122.213 323.899C124.412 323.612 126.324 325.254 127.762 326.857C129.232 328.496 130.58 330.229 131.797 332.044C132.907 333.714 133.921 335.461 135.329 336.911C136.771 338.362 138.564 339.458 140.553 340.103C142.543 340.749 144.668 340.924 146.745 340.615C147.471 340.046 146.941 338.797 147.547 338.103C147.787 337.88 148.047 337.677 148.323 337.495C149.08 336.863 149.005 335.72 148.662 334.82C147.562 331.901 144.626 330.034 141.851 328.403C136.837 325.416 131.762 322.473 126.718 319.578C124.788 318.457 123.317 316.748 122.546 314.73C122.364 314.233 121.577 308.438 122.193 308.634Z" fill="#3F3D56"/>
<path opacity="0.05" d="M122.193 308.634C120.321 308.27 118.359 309.232 117.203 310.677C116.048 312.122 115.579 313.96 115.397 315.769C115.264 316.539 115.357 317.328 115.665 318.052C115.962 318.612 116.482 319.042 116.82 319.583C117.159 320.215 117.371 320.902 117.446 321.607C118.142 325.699 118.843 329.8 119.211 333.93C119.322 335.188 119.428 336.524 120.22 337.548C121.012 338.572 122.702 339.079 123.671 338.213C122.691 333.499 122.203 328.704 122.213 323.899C124.412 323.612 126.324 325.254 127.762 326.857C129.232 328.496 130.58 330.229 131.797 332.044C132.907 333.714 133.921 335.461 135.329 336.911C136.771 338.362 138.564 339.458 140.553 340.103C142.543 340.749 144.668 340.924 146.745 340.615C147.471 340.046 146.941 338.797 147.547 338.103C147.787 337.88 148.047 337.677 148.323 337.495C149.08 336.863 149.005 335.72 148.662 334.82C147.562 331.901 144.626 330.034 141.851 328.403C136.837 325.416 131.762 322.473 126.718 319.578C124.788 318.457 123.317 316.748 122.546 314.73C122.364 314.233 121.577 308.438 122.193 308.634Z" fill="black"/>
<path d="M121.375 275.958C120.366 287.922 123.191 299.809 125.704 311.558C125.942 312.498 126.07 313.461 126.087 314.429C125.988 315.625 125.784 316.811 125.477 317.975C124.528 322.823 125.744 327.795 126.95 332.594C127.792 335.916 128.967 339.667 132.236 341.117C134.542 342.141 137.235 341.696 139.733 341.227C140.557 341.146 141.342 340.847 141.998 340.366C142.896 339.562 142.931 338.237 142.855 337.069C141.987 323.875 134.945 311.227 136.297 298.067C136.524 295.89 136.983 293.736 137.362 291.578C139.309 280.385 139.077 268.895 141.544 257.798C141.664 257.413 141.664 257.004 141.544 256.62C141.33 256.24 140.992 255.936 140.58 255.754C138.3 254.462 135.863 253.309 133.235 252.959C131.182 252.687 128.594 252.897 126.869 254.108C125.058 255.376 124.937 258.104 124.407 260.095C123.05 265.301 121.829 270.584 121.375 275.958Z" fill="#FBBEBE"/>
<path d="M124.674 343.08C124.668 343.244 124.703 343.408 124.775 343.558C124.797 343.588 124.827 343.612 124.861 343.627C124.896 343.642 124.934 343.648 124.972 343.644C125.476 343.644 126.021 343.644 126.541 343.644C126.597 343.046 126.621 342.446 126.611 341.845V337.782C126.611 334.557 126.611 331.326 126.46 328.12C126.461 328.003 126.443 327.887 126.405 327.776C126.37 327.705 126.309 327.649 126.233 327.618C125.86 327.45 124.987 326.933 124.664 327.532C124.341 328.13 124.488 329.996 124.473 330.776C124.422 333.384 124.427 336.002 124.473 338.61C124.533 340.1 124.6 341.59 124.674 343.08Z" fill="#3F3D56"/>
<path d="M152.177 201.659C152.163 202.099 152.203 202.539 152.299 202.97C152.526 204.215 152.803 205.454 153.121 206.684C153.302 207.211 153.376 207.767 153.338 208.32C153.242 209.038 152.768 209.66 152.455 210.326C151.204 212.982 152.551 216.255 151.33 218.939C151.042 219.571 150.619 220.145 150.366 220.791C149.817 222.198 150.129 223.758 149.943 225.247C149.746 226.298 149.476 227.335 149.136 228.352C148.253 231.654 149.716 235.177 148.863 238.493C148.132 241.331 147.4 244.192 147.35 247.107C147.309 249.136 147.602 251.17 147.35 253.189C147.098 255.209 146.22 257.285 144.409 258.362C142.976 259.209 141.211 259.319 139.516 259.319C136.262 259.377 132.993 259.286 129.744 259.046C126.495 258.807 123 258.305 120.709 256.113C121.582 249.638 122.374 242.69 119.161 236.918C118.212 235.215 116.911 233.612 116.573 231.707C116.492 231.229 116.467 230.726 116.361 230.243C116.214 229.676 116.004 229.126 115.735 228.601L109.379 214.867C109.043 214.13 108.707 213.393 108.37 212.656C107.27 210.263 106.166 207.871 105.217 205.435C104.113 202.564 103.235 199.616 102.392 196.668C101.888 194.897 101.383 193.103 101.434 191.27C101.522 189.647 101.922 188.052 102.614 186.566C102.993 185.7 103.427 184.848 103.875 184.015C116.476 181.199 129.444 180.146 142.366 180.89C144.422 180.93 146.461 181.253 148.419 181.847C149.762 182.294 150.973 183.039 151.95 184.02C152.393 184.477 152.757 184.997 153.03 185.561C153.787 187.13 153.741 188.935 153.686 190.657C153.58 193.897 153.464 197.18 152.52 200.29C152.357 200.734 152.242 201.193 152.177 201.659Z" fill="#3F3D56"/>
<path d="M143.344 336.442C141.433 337.816 139.188 338.711 136.817 339.045C134.728 339.337 132.433 339.127 130.763 337.882C128.866 336.447 128.241 334.054 127.676 331.814L126.955 328.833C126.692 327.761 126.45 326.689 126.233 325.608C125.682 322.754 125.513 319.845 125.729 316.951C124.019 317.582 122.989 319.516 122.878 321.258C122.768 323 123.333 324.703 123.852 326.378C124.059 327.19 124.374 327.973 124.79 328.709C125.098 329.187 125.497 329.627 125.759 330.144C126.087 330.906 126.275 331.715 126.314 332.537C126.704 335.223 127.266 337.884 127.999 340.505L129.119 344.869L129.23 345.305L130.213 348.98C130.239 349.113 130.285 349.242 130.35 349.363C130.467 349.543 130.626 349.697 130.814 349.813C132.77 351.172 135.069 352.018 137.48 352.265C139.891 352.512 142.328 352.152 144.545 351.219C144.717 351.152 144.875 351.058 145.014 350.942C145.259 350.625 145.369 350.232 145.322 349.841C145.266 348.662 145.51 347.486 146.033 346.415C146.32 346.02 146.552 345.592 146.724 345.142C146.916 344.434 146.608 343.706 146.306 343.032L143.99 337.887C143.733 337.279 143.763 336.968 143.344 336.442Z" fill="#3F3D56"/>
<path d="M137.906 122.273C137.821 123.413 137.585 124.538 137.205 125.623C136.92 126.404 136.425 127.1 135.768 127.642C134.688 126.259 132.741 125.786 131.308 124.771C130.042 123.886 129.149 122.618 128.206 121.421C126.349 119.067 124.17 116.932 122.152 114.683C121.85 114.344 121.552 114.004 121.259 113.654C120.233 112.47 119.304 111.212 118.48 109.893C116.805 107.161 115.66 104.016 113.143 101.944C111.77 100.82 110.05 100.073 108.829 98.7955C109.657 97.6422 109.964 96.2449 110.257 94.8762C110.567 93.555 110.806 92.2197 110.973 90.8756C111.019 90.5215 111.044 90.1625 111.059 89.8036C111.059 89.6505 111.059 89.4974 111.084 89.3251C111.084 88.2292 110.338 86.3437 111.518 85.7264C112.608 85.1569 114.389 85.1522 115.66 85.1665H115.867C118.835 85.1946 121.731 86.0463 124.195 87.6167C124.755 87.9431 125.244 88.3669 125.638 88.8657C126.299 89.8228 126.334 90.9713 126.284 92.115C126.284 92.3782 126.258 92.6366 126.238 92.8903C126.238 93.0147 126.238 93.1439 126.238 93.2731C126.193 94.546 126.324 95.9099 127.247 96.7904C128.256 97.7475 129.86 97.7906 131.227 98.1974C131.454 98.2644 131.671 98.3409 131.883 98.4223C133.389 99.0669 134.674 100.1 135.591 101.404C136.62 102.899 137.349 104.562 137.74 106.309C138.125 107.881 138.365 109.482 138.456 111.094C138.719 114.793 138.315 118.564 137.906 122.273Z" fill="#FBBEBE"/>
<path opacity="0.1" d="M126.263 92.8902C126.263 93.0146 126.263 93.1439 126.263 93.2731C124.589 93.8521 120.513 92.225 118.626 92.225C114.883 92.225 113.728 92.9285 111.019 90.8564C111.079 90.3491 111.115 89.8371 111.13 89.3251C111.13 88.2292 110.383 86.3437 111.564 85.7264C112.744 85.1091 114.636 85.1521 115.912 85.1665C118.881 85.1946 121.776 86.0463 124.241 87.6166C124.8 87.9431 125.29 88.3669 125.683 88.8657C126.475 90.0142 126.349 91.5216 126.263 92.8902Z" fill="black"/>
<path d="M136.63 78.0887C136.631 80.0513 136.224 81.9947 135.432 83.808C134.641 85.6212 133.48 87.2687 132.017 88.6562C130.554 90.0437 128.817 91.1441 126.905 91.8944C124.994 92.6447 122.945 93.0302 120.876 93.029C116.7 93.0264 112.695 91.4516 109.742 88.6503C106.789 85.849 105.129 82.0504 105.127 78.0887C105.201 74.172 106.893 70.4394 109.839 67.6943C112.785 64.9492 116.749 63.4111 120.878 63.4111C125.008 63.4111 128.972 64.9492 131.918 67.6943C134.864 70.4394 136.556 74.172 136.63 78.0887Z" fill="#FBBEBE"/>
<path d="M110.131 95.7473C109.635 95.3536 109.028 95.1073 108.385 95.0391C107.457 95.0391 106.695 95.7617 106.312 96.5608C105.929 97.36 105.808 98.2501 105.48 99.0732C105.031 100.186 104.213 101.13 103.149 101.763C102.408 102.203 101.525 102.509 101.015 103.198C100.213 104.275 100.702 105.778 101.378 106.931C103.901 111.238 108.441 114.042 112.835 116.684L117.778 119.66C119.76 120.904 121.812 122.047 123.923 123.082C127.353 124.685 131.061 125.714 134.471 127.351C136.04 128.102 137.578 128.997 139.314 129.265C139.679 128.158 139.909 127.014 140 125.858C140.842 118.722 141.675 111.434 140 104.433C139.687 103.098 139.248 101.734 138.26 100.743C137.612 100.159 136.871 99.6744 136.065 99.3077C134.064 98.2878 132.007 97.3724 129.901 96.5656C128.914 96.1113 127.829 95.8834 126.733 95.9004C126.824 96.6815 127.069 97.4394 127.454 98.1353L135.399 114.913C135.904 115.966 136.408 117.067 136.368 118.225C136.307 119.871 135.137 121.474 135.616 123.058C131.004 116.672 125.709 110.754 119.816 105.4C119.556 105.195 119.342 104.943 119.186 104.658C119.042 104.21 119.011 103.736 119.095 103.275C119.151 102.394 118.959 101.217 118.182 100.628C117.642 100.217 116.845 100.097 116.25 99.7384C114.161 98.4894 112.164 97.0777 110.131 95.7473Z" fill="#6C63FF"/>
<path opacity="0.1" d="M152.238 185.346C148.318 187.327 143.899 188.293 139.475 188.695C135.051 189.097 130.602 188.93 126.163 188.767C122.793 188.652 119.428 188.523 116.073 188.408C111.493 188.236 106.993 187.887 102.614 186.575C102.993 185.709 103.427 184.857 103.876 184.025C116.476 181.208 129.444 180.156 142.366 180.9C144.422 180.94 146.461 181.262 148.419 181.857C149.762 182.304 150.973 183.049 151.95 184.03C152.021 184.475 152.132 184.915 152.238 185.346Z" fill="black"/>
<path d="M151.527 138.644C149.781 144.238 150.977 150.359 152.067 156.097C152.717 156.408 152.919 157.236 152.778 157.915C152.56 158.576 152.28 159.217 151.94 159.829C151.771 160.138 151.679 160.479 151.67 160.826C151.661 161.174 151.736 161.519 151.89 161.835C152.046 162.098 152.293 162.313 152.455 162.552C152.668 162.968 152.775 163.425 152.768 163.888C152.914 166.055 153.05 168.261 152.435 170.348C152.077 171.563 151.466 172.827 151.87 174.023C152.107 174.746 152.697 175.358 152.783 176.114C152.869 176.871 152.369 177.655 152.077 178.416C151.385 180.206 151.759 182.359 152.238 184.211C148.318 186.193 143.899 187.159 139.475 187.561C135.051 187.963 130.602 187.796 126.163 187.638L116.073 187.274C111.458 187.102 106.917 186.748 102.513 185.413C102.09 182.541 101.732 179.359 103.432 176.952C103.764 176.568 104.031 176.136 104.224 175.674C104.526 174.688 103.87 173.688 103.659 172.678C103.23 170.616 104.668 168.678 105.939 166.936C106.126 166.703 106.273 166.443 106.373 166.165C106.605 165.371 106.1 164.495 106.09 163.696C106.086 163.464 106.141 163.234 106.252 163.026C106.438 162.691 106.786 162.461 106.978 162.126C107.174 161.692 107.234 161.214 107.149 160.748C106.917 157.759 106.537 154.784 106.009 151.823C105.959 151.555 105.908 151.283 105.843 151.015C105.747 150.605 105.591 150.21 105.379 149.842C105.086 149.364 104.657 148.976 104.37 148.493C104.228 148.223 104.154 147.926 104.154 147.624C104.154 147.323 104.228 147.025 104.37 146.756C104.657 146.253 103.865 145.822 103.638 145.32C103.531 144.918 103.507 144.5 103.568 144.09C103.479 143.395 103.199 142.735 102.756 142.176C102.206 141.348 101.651 140.53 101.086 139.711C98.5737 136.02 95.9622 132.394 93.2516 128.834C91.9299 127.121 90.5965 125.423 89.2512 123.742C88.1666 122.388 87.0518 121.01 86.507 119.387C86.4112 119.105 86.3354 118.818 86.28 118.526C85.9793 116.969 86.2164 115.361 86.9559 113.942C87.6017 112.716 88.5854 111.697 89.448 110.592C90.4064 109.367 91.2287 108.027 92.3284 106.916C93.4281 105.806 94.9113 104.916 96.5205 104.916C97.4537 104.916 98.5383 105.165 99.1891 104.533C99.4262 104.304 99.5523 103.997 99.7944 103.782C100.481 103.165 101.6 103.586 102.423 104.026L118.197 112.482L120.755 113.86C121.219 114.123 121.693 114.382 122.157 114.65C124.362 115.864 126.474 117.223 128.478 118.717C131.404 120.938 134.637 122.986 137.185 125.589C137.422 125.829 137.659 126.068 137.886 126.331C138.347 123.288 138.806 120.239 139.263 117.186C139.432 116.309 139.493 115.416 139.445 114.525C139.322 113.649 139.096 112.788 138.769 111.96C138.668 111.668 138.557 111.367 138.456 111.07L136.756 106.232C135.924 103.863 135.036 101.399 133.154 99.6521C132.699 99.2828 132.28 98.8743 131.903 98.4318V98.4079C131.727 98.1862 131.607 97.9284 131.553 97.6552C131.5 97.3819 131.514 97.1006 131.596 96.8335L144.883 100.767C145.509 100.954 146.139 101.14 146.739 101.384C147.464 101.684 148.143 102.075 148.757 102.547C149.758 103.302 150.536 104.29 151.014 105.415C151.492 106.539 151.655 107.762 151.486 108.965C151.355 109.749 151.063 110.506 150.891 111.281C150.588 112.688 150.109 114.315 150.755 115.616C151.401 116.918 151.981 118.081 152.586 119.311C153.087 120.249 153.502 121.225 153.827 122.23C154.187 123.603 154.331 125.019 154.256 126.432C154.178 129.586 153.603 132.712 152.551 135.706C152.233 136.692 151.839 137.658 151.527 138.644Z" fill="#454B69"/>
<path d="M124.407 145.732L155.916 142.918L161.419 142.329L156.359 144.028L124.407 145.732Z" fill="#3F3D56"/>
<path d="M123.701 147.177V144.928L157.101 143.363L158.725 144.688L123.701 147.177Z" fill="#3F3D56"/>
<path d="M123.807 142.889C124.508 142.712 125.26 142.745 125.971 142.587C126.889 142.377 127.716 141.841 128.655 141.731C129.234 141.692 129.817 141.732 130.385 141.85L134.708 142.568C135.041 142.621 135.435 142.721 135.551 143.023C135.581 143.16 135.573 143.303 135.526 143.436C135.479 143.569 135.395 143.687 135.283 143.779C134.511 144.559 133.265 144.669 132.145 144.736L129.119 144.908C128.532 144.895 127.951 145.02 127.429 145.272C127.167 145.406 126.965 145.625 126.86 145.889C126.756 146.152 126.755 146.443 126.859 146.708C127.022 146.965 127.263 147.17 127.55 147.296C128.752 147.924 130.134 148.172 131.495 148.005C132.591 147.806 133.667 147.515 134.708 147.134C137.362 146.328 140.163 146.048 142.936 146.31C143.652 146.377 144.495 146.574 144.752 147.215C144.82 147.44 144.829 147.678 144.778 147.907C144.727 148.137 144.618 148.351 144.459 148.531C143.385 149.967 141.241 150.005 139.415 150.388C137.703 150.76 136.12 151.539 134.814 152.651C135.213 153.431 134.88 154.355 134.481 155.135C134.025 156.027 133.483 156.878 132.862 157.676C132.528 158.171 132.059 158.572 131.505 158.834C131.138 158.956 130.753 159.019 130.365 159.021C126.622 159.24 122.866 159.046 119.171 158.442C118.773 158.416 118.395 158.266 118.096 158.016C117.906 157.772 117.786 157.485 117.748 157.183C117.365 155.396 117.028 153.6 116.739 151.795C116.558 150.656 116.482 149.459 117.072 148.411C117.531 147.588 118.258 147.32 118.999 146.765C120.654 145.53 121.683 143.425 123.807 142.889Z" fill="#FBBEBE"/>
<path d="M164.501 105.725L156.677 142.535C156.619 142.811 156.63 143.097 156.709 143.369C156.788 143.64 156.934 143.891 157.133 144.1C157.333 144.309 157.581 144.47 157.859 144.572C158.136 144.673 158.435 144.711 158.73 144.683L188.221 141.922C188.626 141.885 189.007 141.726 189.309 141.467C189.611 141.209 189.817 140.865 189.896 140.487L197.125 106.433C197.18 106.172 197.173 105.902 197.105 105.643C197.038 105.384 196.91 105.143 196.732 104.937C196.554 104.73 196.33 104.564 196.076 104.449C195.822 104.335 195.545 104.275 195.263 104.275H166.363C165.924 104.277 165.499 104.422 165.16 104.686C164.821 104.95 164.589 105.317 164.501 105.725Z" fill="#3F3D56"/>
<path d="M179.176 149.522C181.033 148.392 181.588 146.129 182.45 144.205C183.136 142.788 183.927 141.419 184.816 140.109C185.568 138.931 186.329 137.5 185.724 136.247C185.252 135.447 184.476 134.848 183.555 134.572C182.72 134.198 181.781 134.089 180.876 134.261C179.867 134.524 179.116 135.318 178.43 136.074L175.998 138.749C174.888 139.975 173.748 141.219 172.285 142.047C171.398 142.517 170.459 142.894 169.486 143.171C167.74 143.72 165.975 144.199 164.189 144.607C163.162 144.794 162.161 145.088 161.202 145.483C161.009 145.55 160.831 145.653 160.681 145.786C160.53 145.919 160.409 146.079 160.325 146.258C160.284 146.478 160.29 146.704 160.342 146.922C160.395 147.14 160.494 147.345 160.632 147.526C161.248 148.617 161.949 150.833 163.24 151.22C164.453 151.508 165.691 151.692 166.938 151.771C168.169 151.895 169.137 151.417 170.247 150.976C171.641 150.471 173.13 150.245 174.621 150.311C175.933 150.306 178.162 150.483 179.176 149.522Z" fill="#FBBEBE"/>
<path d="M163.029 144.53C163.029 144.53 164.118 151.613 171.1 150.852C171.1 150.852 167.402 152.254 167.791 153.034C168.179 153.814 159.215 151.512 159.215 151.512L158.751 147.818C158.751 147.818 158.453 145.784 158.751 145.727C159.048 145.669 163.029 144.53 163.029 144.53Z" fill="#454B69"/>
<path opacity="0.1" d="M163.029 144.53C163.029 144.53 164.118 151.613 171.1 150.852C171.1 150.852 167.402 152.254 167.791 153.034C168.179 153.814 159.215 151.512 159.215 151.512L158.751 147.818C158.751 147.818 158.453 145.784 158.751 145.727C159.048 145.669 163.029 144.53 163.029 144.53Z" fill="black"/>
<path opacity="0.1" d="M130.889 114.97C131.574 115.3 132.137 115.819 132.504 116.459C133.086 117.34 133.528 118.298 133.815 119.301C134.158 120.522 134.32 121.885 135.268 122.766" fill="black"/>
<path opacity="0.1" d="M101.646 134.557C102.156 136.279 101.944 138.12 101.056 139.697C98.5434 136.006 95.9319 132.38 93.2213 128.82C91.9198 127.116 90.5964 125.423 89.2512 123.742C88.1666 122.388 87.0518 121.01 86.5069 119.387C86.4112 119.105 86.3353 118.818 86.2799 118.526C86.9532 117.591 87.9542 116.913 89.1049 116.612C90.9361 121.646 95.5771 125.254 98.8914 129.557C100.141 131.039 101.077 132.737 101.646 134.557Z" fill="black"/>
<path opacity="0.1" d="M125.002 160.313L114.03 160.667C113.092 160.696 111.937 160.873 111.644 161.715C111.553 161.983 111.574 162.275 111.483 162.538C111.175 163.495 109.838 163.6 108.794 163.596C107.886 163.596 106.978 163.629 106.075 163.696C106.071 163.464 106.126 163.234 106.236 163.026C106.423 162.691 106.771 162.462 106.963 162.127C107.159 161.692 107.219 161.214 107.134 160.748C106.902 157.759 106.522 154.784 105.994 151.823C105.944 151.555 105.893 151.283 105.828 151.015C106.751 150.57 107.684 150.149 108.688 150.249C109.591 150.34 110.418 150.847 111.321 150.799C112.89 150.728 113.97 149.067 115.534 148.971C115.875 148.996 116.217 148.957 116.543 148.856C117.047 148.617 117.118 147.995 117.37 147.531C117.748 146.847 118.808 146.679 119.6 146.856C119.579 148.43 119.686 150.002 119.917 151.56C119.996 152.245 120.165 152.917 120.422 153.561C120.72 154.212 121.094 154.83 121.537 155.403C122.697 157.054 123.827 158.667 125.002 160.313Z" fill="black"/>
<path d="M88.53 116.028C86.5777 116.507 85.1955 118.229 84.6255 120.062C84.0554 121.895 84.1563 123.843 84.2067 125.747C84.4021 132.829 83.8954 139.912 82.6934 146.904C82.1183 150.254 81.3818 153.604 81.5987 157.006C81.7198 158.844 82.1586 160.739 83.4046 162.15C85.3619 164.38 88.7721 164.835 91.8291 164.725C97.3176 164.519 102.705 162.997 108.199 163.026C109.243 163.026 110.575 162.916 110.888 161.973C110.978 161.705 110.958 161.418 111.049 161.15C111.337 160.308 112.492 160.131 113.43 160.097L124.407 159.748C123.232 158.102 122.102 156.484 120.926 154.838C120.485 154.264 120.109 153.646 119.806 152.996C119.552 152.35 119.383 151.676 119.302 150.991C119.069 149.434 118.965 147.863 118.989 146.291C118.197 146.114 117.138 146.291 116.76 146.966C116.502 147.445 116.422 148.052 115.927 148.292C115.602 148.394 115.259 148.431 114.918 148.402C113.354 148.498 112.27 150.163 110.706 150.235C109.803 150.282 108.971 149.756 108.073 149.684C106.65 149.546 105.379 150.436 104.072 150.981C103.004 151.424 101.851 151.652 100.685 151.652C99.5191 151.652 98.3659 151.424 97.2975 150.981C96.9746 150.847 96.6215 150.469 96.8838 150.244C97.0604 150.096 97.3529 150.211 97.5648 150.11C97.9684 149.924 97.6758 149.359 97.4488 148.99C96.8132 147.928 97.2621 146.598 97.8776 145.507C98.493 144.415 99.28 143.358 99.2951 142.157C99.2597 141.767 99.2597 141.374 99.2951 140.984C99.4921 140.426 99.8042 139.91 100.213 139.467C101.338 137.907 101.5 135.845 101.01 134.007C100.464 132.182 99.555 130.473 98.3316 128.973C95.0022 124.675 90.3611 121.067 88.53 116.028Z" fill="#454B69"/>
<path opacity="0.1" d="M118.217 112.496L120.775 113.875C119.991 114.218 119.187 114.522 118.369 114.784C112.608 116.621 114.661 119.167 108.582 119.091C104.441 119.048 99.7137 118.746 96.8181 121.55C95.446 122.871 94.7599 124.68 94.1092 126.427C93.8116 127.216 93.5139 128.016 93.2213 128.82C91.9198 127.116 90.5965 125.423 89.2512 123.742C88.1667 122.388 87.0518 121.01 86.507 119.387C85.9147 117.585 86.0754 115.635 86.956 113.942C87.6017 112.716 88.5854 111.697 89.448 110.592C90.4065 109.367 91.2287 108.027 92.3284 106.916C93.4282 105.806 94.9113 104.916 96.5205 104.916C97.4537 104.916 98.5383 105.165 99.1891 104.533C99.4262 104.304 99.5523 103.997 99.7945 103.782C100.481 103.165 101.6 103.586 102.423 104.026L118.217 112.496Z" fill="black"/>
<path d="M133.467 67.068C133.384 66.3552 133.199 65.6564 132.917 64.9911C132.654 64.4799 132.314 64.0076 131.908 63.589C130.58 62.1652 128.949 61.0232 127.124 60.2374C125.299 59.4516 123.319 59.0396 121.315 59.0284C120.971 59.0109 120.627 59.0631 120.306 59.1815C120.226 59.2171 120.15 59.2604 120.079 59.3108C117.193 57.4683 113.839 55.6499 110.711 54.932C108.537 54.4506 106.272 54.4801 104.113 55.0182C101.489 55.7647 100.581 57.7507 99.4565 59.9185C97.6574 63.4035 94.9266 66.3801 91.5365 68.5515C89.3522 69.9441 86.7693 71.15 85.7201 73.4375C84.7414 75.5718 85.4073 78.0172 85.6343 80.3381C85.9076 83.4708 85.3597 86.619 84.0394 89.5021C82.7191 92.3852 80.6675 94.9138 78.0674 96.8624C75.0861 99.0493 71.1059 100.887 70.4703 104.409C70.0162 106.921 71.5044 109.324 72.6293 111.635C75.0003 116.526 75.8125 122.489 73.0279 127.174C72.2359 128.509 71.1664 129.724 70.7427 131.198C70.0011 133.816 71.58 136.668 73.946 138.19C76.3119 139.711 79.2832 140.104 82.1384 140.104C84.2168 140.104 86.4667 139.807 87.9397 138.424C88.9486 137.496 89.4228 136.204 89.8869 134.964C91.0942 131.736 92.2982 128.507 93.4988 125.278C94.1546 123.537 94.8407 121.728 96.2078 120.407C99.1033 117.603 103.835 117.899 107.972 117.947C114.056 118.019 112.007 115.473 117.758 113.64C121.143 112.559 124.821 110.716 125.608 107.419C126.379 104.194 124.054 101.121 122.006 98.4463C120.472 96.4524 119.021 94.4026 117.652 92.297C116.326 90.2488 115.049 88.0954 114.681 85.717C114.071 81.7642 124.175 79.5581 125.688 75.8302C126.122 74.7775 126.486 73.7003 126.778 72.6048C127.504 72.5569 128.18 72.4899 128.65 72.4708C130.582 72.3894 132.761 71.6716 133.422 69.9441C133.78 69.03 133.644 68.0251 133.467 67.068Z" fill="#3F3D56"/>
<g opacity="0.1">
<path d="M116.457 57.8701C116.778 57.7517 117.122 57.6995 117.466 57.717H117.607C115.46 56.4361 113.129 55.4576 110.686 54.8122C110.499 54.7691 110.297 54.7356 110.101 54.7021C112.242 55.6372 114.293 56.7485 116.23 58.0233C116.301 57.9664 116.377 57.9152 116.457 57.8701Z" fill="black"/>
<path d="M133.467 66.953C133.384 66.2418 133.199 65.5447 132.917 64.8809C132.654 64.3681 132.315 63.8942 131.908 63.4739C129.768 61.184 126.873 59.6491 123.696 59.1191C125.361 59.8858 126.847 60.9595 128.07 62.2776C128.476 62.6979 128.815 63.1718 129.078 63.6845C129.36 64.3483 129.545 65.0454 129.628 65.7566C129.87 66.7014 129.858 67.6887 129.593 68.6279C128.932 70.3506 126.753 71.0732 124.821 71.1498C124.352 71.1498 123.676 71.236 122.949 71.2886C122.656 72.3824 122.292 73.4579 121.86 74.5092C120.346 78.2371 110.257 80.4432 110.852 84.396C111.221 86.7887 112.497 88.9326 113.824 90.976C115.15 93.0194 116.644 95.1298 118.177 97.1254C120.225 99.8004 122.551 102.868 121.779 106.103C121.007 109.338 117.314 111.247 113.929 112.324C108.169 114.166 110.227 116.712 104.143 116.631C100.006 116.583 95.2746 116.286 92.379 119.091C91.0119 120.416 90.3259 122.22 89.6701 123.967C88.4694 127.192 87.2655 130.419 86.0581 133.648C85.594 134.892 85.0997 136.18 84.1109 137.108C82.6379 138.491 80.388 138.778 78.3096 138.788C77.1271 138.799 75.9457 138.714 74.7784 138.534C76.9879 139.668 79.6111 139.97 82.1435 139.97C84.2219 139.97 86.4718 139.673 87.9448 138.29C88.9537 137.362 89.4279 136.074 89.892 134.83C91.0994 131.601 92.3033 128.374 93.5039 125.149C94.1597 123.402 94.8458 121.598 96.2129 120.273C99.1085 117.468 103.84 117.765 107.977 117.813C114.061 117.885 112.013 115.339 117.763 113.506C121.148 112.425 124.826 110.582 125.613 107.285C126.385 104.06 124.059 100.982 122.011 98.3074C120.477 96.3134 119.026 94.2636 117.657 92.158C116.331 90.1146 115.054 87.9564 114.686 85.578C114.076 81.6252 124.18 79.4191 125.693 75.6912C126.126 74.6399 126.49 73.5644 126.783 72.4706C127.51 72.418 128.186 72.351 128.655 72.3318C130.587 72.2553 132.766 71.5327 133.427 69.8099C133.691 68.8756 133.705 67.8936 133.467 66.953Z" fill="black"/>
</g>
</g>
<defs>
<filter id="filter0_d_3_982" x="0" y="0" width="565" height="373" filterUnits="userSpaceOnUse" color-interpolation-filters="sRGB">
<feFlood flood-opacity="0" result="BackgroundImageFix"/>
<feColorMatrix in="SourceAlpha" type="matrix" values="0 0 0 0 0 0 0 0 0 0 0 0 0 0 0 0 0 0 127 0" result="hardAlpha"/>
<feOffset dx="9" dy="8"/>
<feGaussianBlur stdDeviation="5.5"/>
<feComposite in2="hardAlpha" operator="out"/>
<feColorMatrix type="matrix" values="0 0 0 0 0 0 0 0 0 0 0 0 0 0 0 0 0 0 0.12 0"/>
<feBlend mode="normal" in2="BackgroundImageFix" result="effect1_dropShadow_3_982"/>
<feBlend mode="normal" in="SourceGraphic" in2="effect1_dropShadow_3_982" result="shape"/>
</filter>
<linearGradient id="paint0_linear_3_982" x1="330.171" y1="353.067" x2="330.171" y2="29.7652" gradientUnits="userSpaceOnUse">
<stop stop-color="#808080" stop-opacity="0.25"/>
<stop offset="0.54" stop-color="#808080" stop-opacity="0.12"/>
<stop offset="1" stop-color="#808080" stop-opacity="0.1"/>
</linearGradient>
<linearGradient id="paint1_linear_3_982" x1="134.496" y1="352.344" x2="134.496" y2="53.0273" gradientUnits="userSpaceOnUse">
<stop stop-color="#808080" stop-opacity="0.25"/>
<stop offset="0.54" stop-color="#808080" stop-opacity="0.12"/>
<stop offset="1" stop-color="#808080" stop-opacity="0.1"/>
</linearGradient>
<clipPath id="clip0_3_982">
<rect width="543" height="351" fill="white" transform="matrix(-1 0 0 1 545 3)"/>
</clipPath>
</defs>
</svg>
