<svg width="595" height="357" viewBox="0 0 595 357" fill="none" xmlns="http://www.w3.org/2000/svg">
<g clip-path="url(#clip0_2_76)">
<path d="M231.012 319.864C227.81 320.991 224.373 321.273 221.031 320.684C217.689 320.094 214.554 318.653 211.93 316.498C205.247 310.881 203.151 301.627 201.446 293.059L196.403 267.714L206.961 274.994C214.554 280.229 222.318 285.631 227.575 293.214C232.833 300.797 235.127 311.148 230.903 319.353" fill="#E6E6E6"/>
<path d="M230.109 350.549C231.178 342.754 232.277 334.86 231.527 326.982C230.862 319.986 228.73 313.153 224.39 307.55C222.087 304.582 219.284 302.038 216.107 300.034C215.279 299.511 214.517 300.825 215.341 301.346C220.837 304.825 225.088 309.96 227.481 316.014C230.125 322.745 230.549 330.083 230.093 337.234C229.818 341.558 229.234 345.854 228.646 350.145C228.6 350.339 228.629 350.543 228.727 350.717C228.825 350.89 228.986 351.02 229.176 351.079C229.37 351.132 229.577 351.105 229.752 351.006C229.926 350.907 230.055 350.742 230.109 350.549Z" fill="#F2F2F2"/>
<path d="M219.816 336.757C218.443 338.846 216.556 340.547 214.336 341.694C212.116 342.841 209.639 343.397 207.142 343.307C200.726 343.002 195.377 338.518 190.562 334.261L176.321 321.67L185.746 321.219C192.525 320.894 199.478 320.591 205.934 322.684C212.39 324.777 218.345 329.814 219.525 336.506" fill="#E6E6E6"/>
<path d="M233.129 355.029C227.986 345.916 222.02 335.788 211.36 332.551C208.396 331.654 205.288 331.333 202.203 331.604C201.231 331.688 201.474 333.189 202.444 333.105C207.615 332.675 212.775 334.042 217.057 336.976C221.177 339.784 224.385 343.688 227.1 347.828C228.763 350.364 230.253 353.008 231.743 355.648C232.219 356.492 233.611 355.883 233.129 355.029V355.029Z" fill="#F2F2F2"/>
<path d="M370.99 172.471L258.853 265.533C257.442 266.701 255.626 267.261 253.803 267.09C251.98 266.92 250.3 266.032 249.13 264.621L201.859 207.512C200.692 206.099 200.133 204.28 200.303 202.455C200.474 200.63 201.361 198.947 202.769 197.775L314.906 104.714C316.317 103.546 318.133 102.985 319.956 103.156C321.779 103.327 323.459 104.215 324.629 105.625L371.9 162.735C373.067 164.148 373.626 165.967 373.456 167.792C373.285 169.617 372.398 171.3 370.99 172.471Z" fill="#CCCCCC"/>
<path d="M366.496 169.669L256.937 260.591C256.211 261.193 255.275 261.482 254.336 261.394C253.397 261.306 252.531 260.848 251.928 260.122L206.794 205.593C206.193 204.865 205.905 203.929 205.993 202.988C206.081 202.048 206.537 201.181 207.263 200.578L316.822 109.655C317.549 109.054 318.484 108.765 319.423 108.853C320.362 108.941 321.228 109.398 321.831 110.125L366.965 164.654C367.566 165.381 367.854 166.318 367.766 167.259C367.679 168.199 367.222 169.066 366.496 169.669Z" fill="white"/>
<path d="M371.547 188.702L349.013 186.59L365.141 173.88L373.829 184.376C374.168 184.777 374.378 185.271 374.432 185.793C374.486 186.315 374.381 186.841 374.131 187.303C373.967 187.616 373.743 187.894 373.472 188.12C373.205 188.34 372.898 188.505 372.567 188.604C372.237 188.704 371.89 188.737 371.547 188.702Z" fill="#CCCCCC"/>
<path d="M326.296 148.287L270.872 194.283C270.533 194.564 270.143 194.776 269.723 194.905C269.302 195.035 268.861 195.081 268.423 195.04C267.985 194.999 267.56 194.872 267.171 194.666C266.782 194.461 266.438 194.18 266.157 193.841C265.877 193.502 265.666 193.111 265.536 192.691C265.406 192.27 265.361 191.828 265.402 191.39C265.443 190.951 265.569 190.525 265.775 190.136C265.98 189.747 266.26 189.402 266.599 189.121L322.022 143.125C322.361 142.844 322.751 142.632 323.172 142.503C323.592 142.373 324.033 142.327 324.471 142.368C324.909 142.409 325.334 142.536 325.723 142.742C326.112 142.947 326.456 143.228 326.737 143.567C327.017 143.906 327.229 144.297 327.358 144.717C327.488 145.138 327.534 145.58 327.493 146.019C327.452 146.457 327.325 146.883 327.119 147.272C326.914 147.661 326.634 148.006 326.296 148.287Z" fill="#CCCCCC"/>
<path d="M299.17 152.292L261.791 183.313C261.108 183.88 260.227 184.153 259.343 184.07C258.459 183.987 257.644 183.556 257.077 182.871C256.51 182.186 256.238 181.305 256.321 180.419C256.404 179.534 256.835 178.718 257.518 178.15L294.897 147.13C295.581 146.563 296.462 146.29 297.346 146.373C298.23 146.456 299.045 146.887 299.612 147.572C300.178 148.256 300.45 149.138 300.367 150.024C300.285 150.909 299.854 151.725 299.17 152.292Z" fill="#CCCCCC"/>
<path d="M241.252 215.734C247.03 215.734 251.715 211.043 251.715 205.257C251.715 199.471 247.03 194.78 241.252 194.78C235.473 194.78 230.789 199.471 230.789 205.257C230.789 211.043 235.473 215.734 241.252 215.734Z" fill="#FF07F5"/>
<path d="M324.48 184.257C326.329 184.257 327.828 182.756 327.828 180.904C327.828 179.053 326.329 177.552 324.48 177.552C322.631 177.552 321.132 179.053 321.132 180.904C321.132 182.756 322.631 184.257 324.48 184.257Z" fill="#E6E6E6"/>
<path d="M333.503 176.769C335.352 176.769 336.851 175.268 336.851 173.416C336.851 171.565 335.352 170.064 333.503 170.064C331.654 170.064 330.155 171.565 330.155 173.416C330.155 175.268 331.654 176.769 333.503 176.769Z" fill="#E6E6E6"/>
<path d="M342.525 169.281C344.374 169.281 345.873 167.78 345.873 165.929C345.873 164.077 344.374 162.576 342.525 162.576C340.676 162.576 339.177 164.077 339.177 165.929C339.177 167.78 340.676 169.281 342.525 169.281Z" fill="#E6E6E6"/>
<path d="M289.16 349.191L296.847 349.19L300.503 319.503L289.159 319.504L289.16 349.191Z" fill="#FFB8B8"/>
<path d="M287.199 346.678L302.337 346.677H302.338C303.605 346.677 304.859 346.927 306.029 347.413C307.2 347.898 308.263 348.61 309.159 349.507C310.055 350.404 310.766 351.468 311.25 352.64C311.735 353.812 311.985 355.068 311.985 356.337V356.651L287.2 356.652L287.199 346.678Z" fill="#2F2E41"/>
<path d="M261.573 349.191L269.26 349.19L272.916 319.503L261.572 319.504L261.573 349.191Z" fill="#FFB8B8"/>
<path d="M259.613 346.678L274.75 346.677H274.751C276.018 346.677 277.272 346.927 278.442 347.413C279.613 347.898 280.676 348.61 281.572 349.507C282.468 350.404 283.179 351.468 283.663 352.64C284.148 353.812 284.398 355.068 284.398 356.337V356.651L259.613 356.652L259.613 346.678Z" fill="#2F2E41"/>
<path d="M269.287 340.107H269.285L262.749 340.106C262.017 340.108 261.314 339.825 260.788 339.317C260.262 338.808 259.954 338.114 259.931 337.382L259.725 331.656C258.072 285.864 256.364 238.513 266.946 217.23L267.029 217.063L302.064 215.793L309.098 280.401C309.398 283.157 309.288 285.942 308.772 288.665L299.474 337.727C299.348 338.392 298.988 338.99 298.459 339.411C297.93 339.833 297.267 340.05 296.591 340.023L289.249 339.785C288.865 339.77 288.487 339.676 288.14 339.509C287.793 339.343 287.484 339.107 287.232 338.816C286.979 338.525 286.788 338.186 286.672 337.819C286.555 337.452 286.514 337.065 286.552 336.681L292.32 291.305C292.516 289.346 292.339 287.368 291.796 285.476L284.623 260.368C284.564 260.16 284.435 259.979 284.259 259.855C284.082 259.731 283.868 259.672 283.653 259.687C283.438 259.702 283.235 259.791 283.077 259.938C282.919 260.086 282.817 260.283 282.787 260.497L272.081 337.671C271.985 338.345 271.65 338.963 271.137 339.41C270.624 339.857 269.967 340.105 269.287 340.107Z" fill="#2F2E41"/>
<path d="M273.476 151.2C281.981 151.2 288.876 144.297 288.876 135.781C288.876 127.265 281.981 120.362 273.476 120.362C264.972 120.362 258.077 127.265 258.077 135.781C258.077 144.297 264.972 151.2 273.476 151.2Z" fill="#FFB8B8"/>
<path d="M300.422 220.562H268.557C268.152 220.562 267.752 220.475 267.384 220.306C267.015 220.138 266.688 219.892 266.423 219.585C266.158 219.278 265.962 218.918 265.849 218.529C265.735 218.139 265.707 217.73 265.765 217.329L267.339 206.533L258.095 181.074C257.141 178.445 256.786 175.636 257.057 172.853C257.329 170.07 258.219 167.382 259.662 164.988C261.106 162.594 263.066 160.554 265.4 159.017C267.733 157.481 270.381 156.487 273.148 156.108C277.091 155.558 281.106 156.285 284.606 158.185C288.106 160.085 290.906 163.056 292.597 166.665L294.628 170.991L303.196 217.222C303.272 217.63 303.257 218.049 303.152 218.451C303.048 218.852 302.856 219.225 302.591 219.544C302.327 219.863 301.995 220.119 301.62 220.295C301.245 220.471 300.836 220.562 300.422 220.562H300.422Z" fill="#FF07F5"/>
<path d="M233.156 247.643C234.115 247.42 235.014 246.989 235.789 246.381C236.563 245.772 237.196 245.001 237.641 244.122C238.086 243.242 238.333 242.276 238.364 241.29C238.396 240.305 238.211 239.324 237.824 238.418L262.653 182.248L248.449 178.665L228.509 235.006C227.032 235.759 225.881 237.028 225.276 238.574C224.671 240.119 224.654 241.833 225.227 243.391C225.799 244.949 226.923 246.242 228.384 247.026C229.846 247.81 231.544 248.029 233.156 247.643H233.156Z" fill="#FFB8B8"/>
<path d="M259.292 192.293L245.477 185.818C245.084 185.634 244.736 185.367 244.455 185.036C244.174 184.705 243.968 184.317 243.851 183.898C243.733 183.48 243.707 183.041 243.774 182.612C243.841 182.182 244 181.773 244.24 181.41L252.635 168.714C253.589 166.707 255.298 165.161 257.388 164.413C259.479 163.666 261.78 163.778 263.787 164.727C265.795 165.675 267.345 167.381 268.098 169.472C268.852 171.562 268.747 173.867 267.807 175.88L263.465 190.421C263.341 190.838 263.128 191.222 262.842 191.549C262.556 191.876 262.203 192.137 261.807 192.314C261.411 192.492 260.981 192.582 260.547 192.578C260.113 192.575 259.685 192.478 259.292 192.293H259.292Z" fill="#FF07F5"/>
<path d="M336.733 103.1C337.033 104.039 337.124 105.032 336.998 106.01C336.873 106.988 336.536 107.927 336.009 108.76C335.482 109.593 334.78 110.301 333.951 110.832C333.122 111.364 332.186 111.708 331.21 111.838L295.743 161.958L285.396 151.577L323.513 105.575C323.402 103.918 323.902 102.279 324.918 100.967C325.934 99.6556 327.395 98.7625 329.025 98.4574C330.655 98.1524 332.339 98.4564 333.76 99.312C335.181 100.168 336.238 101.515 336.733 103.1Z" fill="#FFB8B8"/>
<path d="M303.945 156.075C303.995 156.507 303.952 156.944 303.819 157.358C303.685 157.771 303.464 158.151 303.17 158.471L292.92 169.652C291.675 171.493 289.752 172.765 287.572 173.188C285.392 173.611 283.133 173.152 281.291 171.91C279.449 170.669 278.174 168.747 277.745 166.565C277.316 164.383 277.769 162.121 279.004 160.273L285.595 146.551C285.783 146.159 286.053 145.813 286.387 145.535C286.721 145.257 287.111 145.055 287.53 144.942C287.949 144.829 288.387 144.807 288.815 144.879C289.243 144.951 289.651 145.114 290.01 145.358L302.639 153.923C302.998 154.167 303.301 154.485 303.526 154.856C303.752 155.228 303.894 155.644 303.945 156.075Z" fill="#FF07F5"/>
<path d="M293.71 129.327C293.7 127.931 293.506 126.543 293.134 125.198C290.653 116.018 281.494 110.509 272.303 111.891C270.515 111.378 268.665 111.119 266.805 111.121C262.074 111.121 257.5 112.814 253.907 115.896C250.314 118.978 247.941 123.244 247.214 127.925L239.79 175.784H279.916L286.396 134.019C286.636 132.467 286.693 130.892 286.564 129.327H293.71Z" fill="#2F2E41"/>
<path d="M343.583 357H211.291C211.125 357 210.965 356.934 210.847 356.816C210.73 356.698 210.664 356.539 210.664 356.372C210.664 356.206 210.73 356.046 210.847 355.928C210.965 355.811 211.125 355.744 211.291 355.744H343.583C343.749 355.744 343.908 355.811 344.026 355.928C344.144 356.046 344.21 356.206 344.21 356.372C344.21 356.539 344.144 356.698 344.026 356.816C343.908 356.934 343.749 357 343.583 357Z" fill="#CCCCCC"/>
<path d="M476.859 48.7596C477.777 48.6712 478.702 48.7853 479.571 49.0939C480.44 49.4025 481.23 49.898 481.887 50.5456C482.544 51.1931 483.051 51.977 483.372 52.842C483.693 53.707 483.822 54.632 483.747 55.5519L504.254 64.5891L494.472 70.9116L476.498 61.3604C474.963 61.1332 473.565 60.3499 472.568 59.1591C471.571 57.9684 471.045 56.4528 471.089 54.8995C471.134 53.3463 471.746 51.8634 472.809 50.7318C473.872 49.6002 475.314 48.8985 476.859 48.7596V48.7596Z" fill="#A0616A"/>
<path d="M559.577 37.4863C568.082 37.4863 574.976 30.5828 574.976 22.0669C574.976 13.551 568.082 6.64752 559.577 6.64752C551.072 6.64752 544.178 13.551 544.178 22.0669C544.178 30.5828 551.072 37.4863 559.577 37.4863Z" fill="#A0616A"/>
<path d="M531.707 241.931L524.02 241.931L520.364 212.243L531.708 212.244L531.707 241.931Z" fill="#A0616A"/>
<path d="M533.667 249.392L508.882 249.391V249.077C508.882 247.809 509.132 246.553 509.617 245.381C510.101 244.209 510.812 243.144 511.708 242.247C512.604 241.35 513.667 240.638 514.838 240.153C516.008 239.668 517.262 239.418 518.529 239.418H518.53L533.667 239.418L533.667 249.392Z" fill="#2F2E41"/>
<path d="M563.683 241.931L555.996 241.931L552.339 212.243L563.684 212.244L563.683 241.931Z" fill="#A0616A"/>
<path d="M565.643 249.392L540.858 249.391V249.077C540.858 247.809 541.108 246.553 541.592 245.381C542.077 244.209 542.788 243.144 543.684 242.247C544.579 241.35 545.643 240.638 546.813 240.153C547.984 239.668 549.238 239.418 550.505 239.418H550.506L565.643 239.418L565.643 249.392Z" fill="#2F2E41"/>
<path d="M563.318 235.608C563.203 235.608 563.088 235.601 562.974 235.587L551.722 234.2C551.063 234.12 550.454 233.809 550.001 233.322C549.549 232.836 549.283 232.205 549.249 231.541L545.971 157.609C545.96 157.399 545.879 157.199 545.741 157.041C545.603 156.882 545.416 156.775 545.21 156.735C545.005 156.695 544.791 156.725 544.604 156.82C544.417 156.916 544.268 157.071 544.179 157.261L535.756 185.377L534.022 230.539C534.007 230.928 533.911 231.31 533.742 231.661C533.572 232.012 533.332 232.324 533.036 232.577C532.74 232.83 532.396 233.019 532.023 233.132C531.651 233.246 531.259 233.281 530.872 233.235L521.129 232.087C520.432 232.007 519.791 231.669 519.33 231.14C518.869 230.61 518.622 229.928 518.638 229.226L519.465 186.715L526.066 119.985L526.361 119.996L566.502 121.545L566.14 232.792C566.137 233.54 565.839 234.256 565.31 234.784C564.781 235.312 564.065 235.608 563.318 235.608H563.318Z" fill="#2F2E41"/>
<path d="M564.98 127.643C564.956 127.643 564.931 127.643 564.907 127.643L524.48 126.582C524.084 126.572 523.694 126.478 523.337 126.306C522.979 126.135 522.661 125.89 522.405 125.588C522.148 125.286 521.958 124.933 521.846 124.552C521.735 124.171 521.705 123.771 521.758 123.377L529.527 66.1274C530.012 62.2618 531.306 58.5421 533.324 55.2111C535.342 51.8801 538.039 49.0128 541.239 46.7962C544.053 44.856 547.25 43.5415 550.614 42.9408C553.978 42.3402 557.432 42.4674 560.743 43.3139C574.853 46.8943 583.319 62.0664 579.613 77.1348L567.72 125.494C567.567 126.106 567.214 126.649 566.718 127.038C566.222 127.428 565.611 127.64 564.98 127.643Z" fill="#3F3D56"/>
<path d="M511.944 82.1817C509.28 82.1849 506.673 81.4093 504.443 79.95L480.867 64.4623C480.522 64.2356 480.231 63.9359 480.014 63.5843C479.797 63.2327 479.66 62.8377 479.613 62.4272C479.565 62.0167 479.608 61.6008 479.738 61.2086C479.868 60.8165 480.083 60.4578 480.367 60.1578L483.918 56.4032C484.305 55.9917 484.808 55.7064 485.359 55.5847C485.911 55.463 486.486 55.5105 487.01 55.7209L513.344 66.2212L537.739 48.7771C538.88 47.9615 540.177 47.3918 541.549 47.1041C542.921 46.8165 544.338 46.8171 545.709 47.1059C547.081 47.3948 548.378 47.9655 549.518 48.7821C550.658 49.5987 551.616 50.6434 552.332 51.8499C553.048 53.0565 553.506 54.3988 553.678 55.7918C553.849 57.1848 553.729 58.5982 553.327 59.9427C552.924 61.2871 552.248 62.5332 551.339 63.6023C550.431 64.6713 549.311 65.5399 548.05 66.1532L517.9 80.8169C516.044 81.7173 514.007 82.1839 511.944 82.1817Z" fill="#3F3D56"/>
<path d="M564.913 36.8128C567.54 37.4339 570.71 37.9105 572.587 35.9685C572.92 35.6019 573.217 35.2046 573.475 34.7819L575.93 31.0293C577.81 28.1546 579.723 25.205 580.519 21.8622C580.977 19.9415 581.048 17.9488 580.73 16.0001C580.412 14.0514 579.71 12.1854 578.665 10.5106C577.621 8.83576 576.254 7.38546 574.645 6.24393C573.036 5.1024 571.217 4.29239 569.292 3.86096C565.627 3.03929 562.041 1.62551 558.294 1.8834C554.547 2.14129 550.153 2.05662 547.008 0C547.204 0.916876 548.264 4.96803 548.264 4.96803C548.264 4.96803 543.535 9.31157 542.587 10.3946C543.828 9.84362 545.179 9.58491 546.536 9.63838C547.893 9.69184 549.219 10.056 550.413 10.703C551.607 11.35 552.638 12.2625 553.425 13.3704C554.212 14.4783 554.734 15.7522 554.953 17.094C555.221 18.7425 555.064 20.5708 556.042 21.9238C556.972 23.2107 558.641 23.6615 560.043 24.4046C562.064 25.5577 563.608 27.3963 564.395 29.5886C565.182 31.7809 565.161 34.1827 564.336 36.3609L564.913 36.8128Z" fill="#2F2E41"/>
<path d="M546.424 133.166H418.778C417.174 133.164 415.635 132.525 414.501 131.389C413.366 130.253 412.728 128.712 412.726 127.105V62.097C412.728 60.4903 413.366 58.9499 414.501 57.8138C415.635 56.6777 417.174 56.0386 418.778 56.0368H546.424C548.028 56.0386 549.567 56.6777 550.701 57.8138C551.836 58.9499 552.474 60.4903 552.476 62.097V127.105C552.474 128.712 551.836 130.253 550.701 131.389C549.567 132.525 548.028 133.164 546.424 133.166Z" fill="#CCCCCC"/>
<path d="M544.957 128.758H420.245C419.419 128.757 418.626 128.428 418.042 127.843C417.457 127.258 417.128 126.464 417.128 125.636V63.5661C417.128 62.7384 417.457 61.9449 418.042 61.3596C418.626 60.7743 419.419 60.4451 420.245 60.4442H544.957C545.783 60.4451 546.576 60.7743 547.16 61.3596C547.745 61.9449 548.074 62.7384 548.074 63.5661V125.636C548.074 126.464 547.745 127.258 547.16 127.843C546.576 128.428 545.783 128.757 544.957 128.758Z" fill="white"/>
<path d="M537.734 144.43L523.709 130.386L541.69 130.841V142.789C541.695 143.249 541.561 143.7 541.306 144.082C541.051 144.465 540.686 144.761 540.26 144.933C539.974 145.052 539.668 145.114 539.358 145.115C539.056 145.114 538.756 145.053 538.478 144.935C538.199 144.818 537.946 144.646 537.734 144.43Z" fill="#CCCCCC"/>
<path d="M529.772 91.8178H466.683C465.905 91.8178 465.158 91.5082 464.608 90.9572C464.058 90.4061 463.749 89.6588 463.749 88.8795C463.749 88.1002 464.058 87.3529 464.608 86.8019C465.158 86.2508 465.905 85.9413 466.683 85.9413H529.772C530.551 85.9413 531.297 86.2508 531.847 86.8019C532.398 87.3529 532.707 88.1002 532.707 88.8795C532.707 89.6588 532.398 90.4061 531.847 90.9572C531.297 91.5082 530.551 91.8178 529.772 91.8178Z" fill="#CCCCCC"/>
<path d="M509.232 79.3302H466.683C466.297 79.3308 465.915 79.2552 465.559 79.1078C465.202 78.9604 464.878 78.7441 464.605 78.4712C464.332 78.1983 464.116 77.8741 463.968 77.5174C463.82 77.1606 463.744 76.7782 463.744 76.392C463.744 76.0058 463.82 75.6233 463.968 75.2666C464.116 74.9098 464.332 74.5857 464.605 74.3128C464.878 74.0399 465.202 73.8236 465.559 73.6762C465.915 73.5288 466.297 73.4532 466.683 73.4537H509.232C510.01 73.4537 510.756 73.7633 511.306 74.3143C511.857 74.8654 512.166 75.6127 512.166 76.392C512.166 77.1712 511.857 77.9186 511.306 78.4696C510.756 79.0206 510.01 79.3302 509.232 79.3302Z" fill="#CCCCCC"/>
<path d="M440.567 91.8177C445.631 91.8177 449.737 87.7068 449.737 82.6357C449.737 77.5647 445.631 73.4537 440.567 73.4537C435.502 73.4537 431.397 77.5647 431.397 82.6357C431.397 87.7068 435.502 91.8177 440.567 91.8177Z" fill="#FF07F5"/>
<path d="M510.33 115.749C511.951 115.749 513.264 114.433 513.264 112.81C513.264 111.188 511.951 109.872 510.33 109.872C508.709 109.872 507.396 111.188 507.396 112.81C507.396 114.433 508.709 115.749 510.33 115.749Z" fill="#E6E6E6"/>
<path d="M520.6 115.749C522.221 115.749 523.535 114.433 523.535 112.81C523.535 111.188 522.221 109.872 520.6 109.872C518.98 109.872 517.666 111.188 517.666 112.81C517.666 114.433 518.98 115.749 520.6 115.749Z" fill="#E6E6E6"/>
<path d="M530.871 115.749C532.491 115.749 533.805 114.433 533.805 112.81C533.805 111.188 532.491 109.872 530.871 109.872C529.25 109.872 527.936 111.188 527.936 112.81C527.936 114.433 529.25 115.749 530.871 115.749Z" fill="#E6E6E6"/>
<path d="M544.447 125.435C544.549 124.517 544.85 123.633 545.329 122.845C545.808 122.057 546.455 121.383 547.222 120.872C547.989 120.361 548.859 120.025 549.771 119.887C550.682 119.749 551.613 119.812 552.497 120.073L565.527 101.824L569.706 112.705L556.691 128.367C556.155 129.825 555.103 131.035 553.735 131.769C552.367 132.502 550.778 132.708 549.269 132.346C547.759 131.985 546.435 131.082 545.546 129.808C544.658 128.534 544.267 126.978 544.447 125.435H544.447Z" fill="#A0616A"/>
<path d="M559.374 124.45C559.169 124.467 558.963 124.462 558.759 124.434C558.35 124.38 557.957 124.235 557.61 124.012C557.263 123.788 556.969 123.491 556.749 123.141L553.996 118.766C553.693 118.289 553.541 117.731 553.56 117.166C553.578 116.6 553.767 116.054 554.101 115.597L570.78 92.6489L559.939 64.6642C558.971 62.2019 559.007 59.4573 560.041 57.0217C561.074 54.5862 563.022 52.6549 565.465 51.644C566.845 51.0644 568.336 50.7983 569.831 50.8647C571.326 50.9312 572.788 51.3285 574.111 52.0282C575.435 52.7279 576.587 53.7126 577.485 54.9114C578.383 56.1102 579.004 57.4934 579.304 58.9614L586.03 91.8414C586.498 94.1602 586.36 96.5607 585.63 98.8104C584.899 101.06 583.601 103.083 581.861 104.683L561.039 123.721C560.58 124.142 559.994 124.398 559.374 124.45Z" fill="#3F3D56"/>
<path d="M594.373 250.902H462.081C461.915 250.902 461.755 250.836 461.638 250.718C461.52 250.6 461.454 250.441 461.454 250.274C461.454 250.108 461.52 249.948 461.638 249.83C461.755 249.712 461.915 249.646 462.081 249.646H594.373C594.539 249.646 594.699 249.712 594.816 249.83C594.934 249.948 595 250.108 595 250.274C595 250.441 594.934 250.6 594.816 250.718C594.699 250.836 594.539 250.902 594.373 250.902Z" fill="#CCCCCC"/>
<path d="M160.893 94.6572H33.2474C31.6428 94.6554 30.1044 94.0164 28.9698 92.8803C27.8352 91.7442 27.197 90.2038 27.1952 88.5971V23.5886C27.197 21.9819 27.8352 20.4415 28.9698 19.3054C30.1044 18.1693 31.6428 17.5302 33.2474 17.5284H160.893C162.498 17.5303 164.036 18.1693 165.171 19.3054C166.305 20.4415 166.943 21.9819 166.945 23.5886V88.5971C166.943 90.2038 166.305 91.7442 165.171 92.8803C164.036 94.0164 162.498 94.6554 160.893 94.6572Z" fill="#CCCCCC"/>
<path d="M159.426 90.2499H34.7146C33.888 90.249 33.0955 89.9198 32.511 89.3345C31.9265 88.7492 31.5977 87.9557 31.5968 87.128V25.0577C31.5977 24.23 31.9265 23.4365 32.511 22.8512C33.0955 22.266 33.888 21.9368 34.7146 21.9359H159.426C160.252 21.9368 161.045 22.266 161.629 22.8512C162.214 23.4365 162.543 24.23 162.544 25.0577V87.128C162.543 87.9557 162.214 88.7492 161.629 89.3345C161.045 89.9198 160.252 90.249 159.426 90.2499Z" fill="white"/>
<path d="M152.203 105.921L138.178 91.8773L156.159 92.3324V104.28C156.164 104.741 156.03 105.191 155.775 105.574C155.52 105.956 155.155 106.253 154.729 106.424C154.443 106.544 154.137 106.606 153.827 106.607C153.525 106.606 153.226 106.545 152.947 106.427C152.668 106.309 152.415 106.137 152.203 105.921Z" fill="#CCCCCC"/>
<path d="M144.241 53.3094H81.1522C80.3739 53.3094 79.6275 52.9998 79.0772 52.4488C78.5269 51.8978 78.2178 51.1504 78.2178 50.3712C78.2178 49.5919 78.5269 48.8445 79.0772 48.2935C79.6275 47.7425 80.3739 47.4329 81.1522 47.4329H144.241C145.02 47.4329 145.766 47.7425 146.316 48.2935C146.867 48.8445 147.176 49.5919 147.176 50.3712C147.176 51.1504 146.867 51.8978 146.316 52.4488C145.766 52.9998 145.02 53.3094 144.241 53.3094Z" fill="#CCCCCC"/>
<path d="M123.701 40.8219H81.1522C80.3739 40.8219 79.6275 40.5123 79.0772 39.9613C78.5269 39.4102 78.2178 38.6629 78.2178 37.8836C78.2178 37.1043 78.5269 36.357 79.0772 35.806C79.6275 35.2549 80.3739 34.9454 81.1522 34.9454H123.701C124.479 34.9454 125.225 35.2549 125.776 35.806C126.326 36.357 126.635 37.1043 126.635 37.8836C126.635 38.6629 126.326 39.4102 125.776 39.9613C125.225 40.5123 124.479 40.8219 123.701 40.8219Z" fill="#CCCCCC"/>
<path d="M55.036 53.3094C60.1005 53.3094 64.206 49.1984 64.206 44.1274C64.206 39.0563 60.1005 34.9454 55.036 34.9454C49.9716 34.9454 45.8661 39.0563 45.8661 44.1274C45.8661 49.1984 49.9716 53.3094 55.036 53.3094Z" fill="#FF07F5"/>
<path d="M124.799 77.2404C126.42 77.2404 127.734 75.9249 127.734 74.3021C127.734 72.6794 126.42 71.3639 124.799 71.3639C123.179 71.3639 121.865 72.6794 121.865 74.3021C121.865 75.9249 123.179 77.2404 124.799 77.2404Z" fill="#E6E6E6"/>
<path d="M135.07 77.2404C136.69 77.2404 138.004 75.9249 138.004 74.3021C138.004 72.6794 136.69 71.3639 135.07 71.3639C133.449 71.3639 132.135 72.6794 132.135 74.3021C132.135 75.9249 133.449 77.2404 135.07 77.2404Z" fill="#E6E6E6"/>
<path d="M145.34 77.2404C146.961 77.2404 148.274 75.9249 148.274 74.3021C148.274 72.6794 146.961 71.3639 145.34 71.3639C143.719 71.3639 142.406 72.6794 142.406 74.3021C142.406 75.9249 143.719 77.2404 145.34 77.2404Z" fill="#E6E6E6"/>
<path d="M155.599 11.2825C154.732 11.5951 153.944 12.0943 153.29 12.7449C152.637 13.3955 152.133 14.1818 151.816 15.0483C151.498 15.9147 151.375 16.8404 151.453 17.7599C151.532 18.6795 151.81 19.5706 152.27 20.3706L137.586 37.315L149.128 38.8461L161.303 22.5206C162.594 21.6584 163.524 20.3519 163.917 18.8487C164.31 17.3456 164.139 15.7503 163.436 14.365C162.733 12.9798 161.547 11.9009 160.103 11.3327C158.658 10.7646 157.056 10.7467 155.599 11.2825Z" fill="#FFB8B8"/>
<path d="M57.5551 18.0661C57.8683 18.9341 57.9877 19.8603 57.9047 20.7795C57.8218 21.6987 57.5385 22.5885 57.075 23.3862C56.6115 24.1839 55.9789 24.8702 55.2219 25.3966C54.4648 25.923 53.6017 26.2769 52.6933 26.4332L49.0392 48.5671L40.4951 40.6477L45.275 20.8431C45.1139 19.2976 45.5246 17.7467 46.4292 16.4842C47.3338 15.2217 48.6695 14.3353 50.1832 13.993C51.6969 13.6507 53.2834 13.8762 54.6421 14.627C56.0008 15.3777 57.0373 16.6013 57.5551 18.0661V18.0661Z" fill="#FFB8B8"/>
<path d="M80.5031 241.931L88.1898 241.931L91.8463 212.243L80.5018 212.244L80.5031 241.931Z" fill="#FFB8B8"/>
<path d="M78.5422 239.418L93.6798 239.418H93.6804C94.9473 239.418 96.2017 239.668 97.3722 240.153C98.5426 240.638 99.6061 241.35 100.502 242.247C101.398 243.144 102.108 244.209 102.593 245.381C103.078 246.553 103.327 247.809 103.327 249.077V249.391L78.5427 249.392L78.5422 239.418Z" fill="#2F2E41"/>
<path d="M41.0036 241.931L48.6903 241.931L52.3468 212.243L41.0023 212.244L41.0036 241.931Z" fill="#FFB8B8"/>
<path d="M39.0428 239.418L54.1804 239.418H54.1811C55.4479 239.418 56.7024 239.668 57.8728 240.153C59.0432 240.638 60.1067 241.35 61.0025 242.247C61.8983 243.144 62.6089 244.209 63.0937 245.381C63.5785 246.553 63.828 247.809 63.828 249.077V249.391L39.0433 249.392L39.0428 239.418Z" fill="#2F2E41"/>
<path d="M78.8984 39.2426C87.4032 39.2426 94.2976 32.3391 94.2976 23.8232C94.2976 15.3073 87.4032 8.40375 78.8984 8.40375C70.3937 8.40375 63.4993 15.3073 63.4993 23.8232C63.4993 32.3391 70.3937 39.2426 78.8984 39.2426Z" fill="#FFB8B8"/>
<path d="M77.0525 232.069L75.7793 150.828C75.7761 150.598 75.6891 150.378 75.5348 150.208C75.3805 150.038 75.1695 149.93 74.9414 149.905C74.7134 149.88 74.4841 149.939 74.2968 150.072C74.1094 150.204 73.9768 150.401 73.9239 150.624L53.0513 230.089C52.8942 230.725 52.5239 231.287 52.0023 231.682C51.4806 232.078 50.8392 232.282 50.1854 232.26L38.718 231.769C38.3282 231.752 37.946 231.655 37.5957 231.483C37.2455 231.31 36.9347 231.067 36.683 230.769C36.4312 230.47 36.2441 230.123 36.1334 229.748C36.0226 229.373 35.9907 228.98 36.0396 228.592L53.7509 126.475L53.7871 126.187L103.119 128.524L103.441 128.539L92.8621 232.239C92.8066 232.949 92.4864 233.612 91.9652 234.096C91.444 234.581 90.7599 234.851 90.0487 234.854H79.8736C79.1331 234.851 78.4233 234.558 77.896 234.038C77.3687 233.517 77.0659 232.81 77.0525 232.069Z" fill="#2F2E41"/>
<path d="M116.016 135.406L44.4292 129.524C43.9971 129.488 43.579 129.354 43.2073 129.13C42.8356 128.907 42.5204 128.6 42.2861 128.235C42.0518 127.87 41.9047 127.455 41.8563 127.024C41.8078 126.593 41.8594 126.156 42.0068 125.748L53.2803 94.5386L53.929 57.4966C53.9525 56.1519 54.2425 54.8253 54.782 53.5937C55.3216 52.3621 56.0999 51.2501 57.072 50.322C58.0441 49.394 59.1906 48.6685 60.4449 48.1876C61.6992 47.7066 63.0363 47.4799 64.3788 47.5204L69.1395 43.1994H86.5817L88.1004 45.1932L100.237 47.0606C102.399 47.4023 104.393 48.431 105.926 49.9947C107.46 51.5585 108.45 53.5745 108.751 55.745L119.043 132.214C119.096 132.613 119.064 133.019 118.948 133.404C118.833 133.79 118.636 134.146 118.372 134.449C118.107 134.752 117.781 134.995 117.415 135.162C117.049 135.329 116.652 135.415 116.25 135.416C116.172 135.416 116.094 135.413 116.016 135.406Z" fill="#2F2E41"/>
<path d="M102.068 50.6515L132.591 41.6967L146.405 23.4856C146.786 22.984 147.323 22.6241 147.931 22.463C148.539 22.3019 149.183 22.349 149.761 22.5966L158.386 26.288C158.754 26.4454 159.084 26.6792 159.354 26.974C159.625 27.2689 159.83 27.6179 159.956 27.998C160.081 28.3782 160.125 28.7807 160.083 29.179C160.042 29.5772 159.916 29.9621 159.715 30.308L149.391 48.047C147.71 50.9488 145.151 53.2403 142.085 54.5905L106.183 70.4817L102.068 50.6515Z" fill="#2F2E41"/>
<path d="M43.5076 64.0468C41.6835 62.7309 40.2289 60.9666 39.284 58.924C38.3391 56.8814 37.9359 54.6294 38.1133 52.3853L39.4528 34.6138C39.508 33.9039 39.8282 33.241 40.3496 32.7569C40.871 32.2728 41.5553 32.0031 42.2664 32.0014H42.2913L52.4056 32.0915C52.82 32.0953 53.2284 32.1904 53.6019 32.3701C53.9754 32.5498 54.3048 32.8096 54.5667 33.1311C54.8286 33.4526 55.0165 33.828 55.1172 34.2304C55.2179 34.6329 55.2288 35.0526 55.1493 35.4598L53.2726 45.0473L66.6649 50.7134L55.3874 72.6821L43.5076 64.0468Z" fill="#2F2E41"/>
<path d="M87.8567 5.33382C87.8567 5.33382 71.7528 -3.34878 62.9752 6.89854C54.1975 17.1459 66.3194 33.1704 66.3194 33.1704L83.5913 35.3517C83.5913 35.3517 84.2183 23.5952 88.3306 23.8234C92.443 24.0517 105.215 9.21675 87.8567 5.33382Z" fill="#2F2E41"/>
<path d="M132.919 250.274H0.626976C0.460691 250.274 0.301217 250.208 0.183636 250.09C0.0660557 249.972 0 249.813 0 249.646C0 249.48 0.0660557 249.32 0.183636 249.202C0.301217 249.085 0.460691 249.018 0.626976 249.018H132.919C133.085 249.018 133.245 249.085 133.362 249.202C133.48 249.32 133.546 249.48 133.546 249.646C133.546 249.813 133.48 249.972 133.362 250.09C133.245 250.208 133.085 250.274 132.919 250.274Z" fill="#CCCCCC"/>
</g>
<defs>
<clipPath id="clip0_2_76">
<rect width="595" height="357" fill="white"/>
</clipPath>
</defs>
</svg>
