<svg width="430" height="289" viewBox="0 0 430 289" fill="none" xmlns="http://www.w3.org/2000/svg">
<g clip-path="url(#clip0_2_228)" filter="url(#filter0_d_2_228)">
<path opacity="0.1" d="M312.624 216.244C357.276 216.244 393.474 209.893 393.474 202.06C393.474 194.226 357.276 187.876 312.624 187.876C267.972 187.876 231.775 194.226 231.775 202.06C231.775 209.893 267.972 216.244 312.624 216.244Z" fill="#C326D0"/>
<g opacity="0.5">
<path d="M243.373 35.7563C242.282 36.036 240.947 36.7645 240.289 38.7567C239 42.6617 241.996 45.3169 241.009 49.3876C240.735 50.4675 240.214 51.4836 239.479 52.3708C238.274 53.8451 236.965 54.5425 235.695 55.5749C234.085 56.8938 232.93 58.6048 232.371 60.5019C231.759 62.5959 231.708 64.7914 232.222 66.9067C232.674 68.6745 233.442 69.9624 234.116 71.3953C234.953 73.2229 235.607 75.1145 236.07 77.0474C236.325 77.9886 236.468 78.9515 236.499 79.92C236.48 81.2067 236.352 82.4903 236.116 83.7594L234.284 95.2984C234.006 96.8071 233.838 98.3308 233.783 99.8595C233.807 101.391 234.003 102.917 234.368 104.414C235.011 107.466 235.703 110.628 237.176 112.244C238.648 113.86 241.158 113.28 242.699 110.01C244.164 106.882 244.199 102.708 245.492 99.3657C247.531 94.1003 251.582 93.3925 253.831 88.3688C255.988 83.535 255.326 77.6378 256.42 72.141C257.185 68.2015 258.872 64.6107 259.863 60.7194C261.286 55.1157 261.145 49.2979 260.008 44.9889C259.144 41.4484 257.275 38.1716 254.584 35.4801C253.632 34.5306 252.61 33.6847 251.413 33.5984C250.139 33.5086 249.026 34.9553 247.768 35.3903C246.314 35.9048 244.853 35.3765 243.373 35.7563Z" fill="#C326D0"/>
<path d="M250.269 33.8918C250.269 33.8918 248.112 83.7284 239.039 113.114" stroke="#535461" stroke-width="2" stroke-miterlimit="10"/>
<path d="M240.236 38.9915C240.236 38.9915 249.933 46.9603 248.093 62.1247" stroke="#535461" stroke-width="2" stroke-miterlimit="10"/>
<path d="M232.1 61.6689C232.1 61.6689 248.016 64.5589 246.834 73.1527" stroke="#535461" stroke-width="2" stroke-miterlimit="10"/>
<path d="M260.035 44.8853C260.035 44.8853 253.594 49.9746 247.856 64.3896" stroke="#535461" stroke-width="2" stroke-miterlimit="10"/>
<path d="M253.743 88.4516C253.743 88.4516 249.348 91.5591 245.821 80.6796" stroke="#535461" stroke-width="2" stroke-miterlimit="10"/>
<path d="M234.777 94.8081C234.777 94.8081 243.74 93.7515 244.566 88.6864" stroke="#535461" stroke-width="2" stroke-miterlimit="10"/>
</g>
<path d="M265.039 2.33058C262.82 2.62751 260.15 3.5563 259.052 6.4186C256.899 12.0327 263.443 16.283 261.936 22.1492C261.487 23.7635 260.54 25.2299 259.205 26.3788C256.91 28.4193 254.286 29.3101 251.8 30.6946C249.313 32.0792 246.731 34.2579 245.564 37.6001C244.444 40.8146 244.929 44.364 246.096 47.0156C247.263 49.6673 249.026 51.6457 250.602 53.8279C252.517 56.5137 254.119 59.3718 255.38 62.3561C256.016 63.7163 256.443 65.1486 256.65 66.6133C256.853 68.4087 256.596 70.3388 256.34 72.2274L254.064 89.0559C253.762 91.2933 253.456 93.5652 253.628 95.7197C253.823 98.2022 254.638 100.37 255.441 102.487C257.17 107.051 259.022 111.809 262.284 114.323C265.547 116.836 270.665 116.298 273.423 111.623C276.048 107.172 275.566 101.03 277.803 96.2479C281.33 88.7107 289.623 88.0995 293.613 80.9455C297.438 74.0815 295.3 65.3012 296.838 57.3255C297.939 51.6112 300.923 46.5012 302.453 40.8767C304.66 32.7732 303.6 24.1932 300.686 17.7435C297.771 11.2938 293.161 6.69481 288.216 3.16269C286.119 1.66075 283.897 0.303836 281.407 0.0552399C278.76 -0.210619 276.644 1.79886 274.1 2.30641C271.14 2.8623 268.049 1.92661 265.039 2.33058Z" fill="#C326D0"/>
<path d="M279.069 0.321045C279.069 0.321045 281.158 73.4807 266.232 115.787" stroke="#535461" stroke-width="2" stroke-miterlimit="10"/>
<path d="M258.968 6.77075C258.968 6.77075 280.083 19.5458 278.274 41.6984" stroke="#535461" stroke-width="2" stroke-miterlimit="10"/>
<path d="M245.109 39.285C245.109 39.285 278.435 45.2444 277.119 57.7709" stroke="#535461" stroke-width="2" stroke-miterlimit="10"/>
<path d="M300.724 17.557C300.724 17.557 288.059 24.3623 278.083 44.975" stroke="#535461" stroke-width="2" stroke-miterlimit="10"/>
<path d="M293.414 81.0422C293.414 81.0422 284.731 85.1855 275.998 68.7471" stroke="#535461" stroke-width="2" stroke-miterlimit="10"/>
<path d="M254.997 88.3654C254.997 88.3654 273.408 87.768 274.456 80.3965" stroke="#535461" stroke-width="2" stroke-miterlimit="10"/>
<path d="M26.7245 199.771C26.7245 199.771 29.93 203.569 25.2441 209.266C20.5582 214.963 16.6871 219.803 18.2593 223.367C18.2593 223.367 25.3283 212.756 31.0814 212.608C36.8345 212.46 33.0552 206.151 26.7245 199.771Z" fill="#C326D0"/>
<path opacity="0.1" d="M26.7245 199.771C27.0105 200.136 27.2373 200.536 27.3977 200.958C33.0131 206.911 36.0006 212.466 30.6071 212.608C25.5808 212.739 19.5523 220.85 18.1063 222.901C18.154 223.059 18.2115 223.214 18.2785 223.367C18.2785 223.367 25.3474 212.756 31.1005 212.608C36.8537 212.46 33.0552 206.151 26.7245 199.771Z" fill="white"/>
<path d="M32.6842 204.594C32.6842 205.927 32.5197 207.011 32.3017 207.011C32.0837 207.011 31.9192 205.93 31.9192 204.594C31.9192 203.258 32.1257 203.904 32.3285 203.904C32.5312 203.904 32.6842 203.261 32.6842 204.594Z" fill="#B69C48"/>
<path d="M34.7307 206.182C33.434 206.821 32.3055 207.218 32.2099 207.042C32.1143 206.866 33.082 206.231 34.3788 205.596C35.6755 204.96 35.1629 205.423 35.2624 205.596C35.3619 205.768 36.0236 205.544 34.7307 206.182Z" fill="#B69C48"/>
<path d="M9.80177 199.771C9.80177 199.771 6.59625 203.569 11.2821 209.266C15.968 214.963 19.8315 219.8 18.2669 223.363C18.2669 223.363 11.198 212.753 5.44486 212.605C-0.308251 212.456 3.4634 206.151 9.80177 199.771Z" fill="#C326D0"/>
<path opacity="0.1" d="M9.80177 199.771C9.52243 200.137 9.30219 200.537 9.14766 200.958C3.53226 206.911 0.54477 212.466 5.93831 212.608C10.9646 212.739 16.9932 220.85 18.4391 222.901C18.3914 223.059 18.3339 223.214 18.2669 223.367C18.2669 223.367 11.198 212.756 5.44486 212.608C-0.308251 212.46 3.4634 206.151 9.80177 199.771Z" fill="white"/>
<path d="M3.83447 204.594C3.83447 205.927 3.99896 207.011 4.21699 207.011C4.43503 207.011 4.59951 205.93 4.59951 204.594C4.59951 203.258 4.39295 203.904 4.19022 203.904C3.98748 203.904 3.83447 203.261 3.83447 204.594Z" fill="#B69C48"/>
<path d="M1.78812 206.182C3.08487 206.821 4.2133 207.218 4.30893 207.042C4.40456 206.866 3.43679 206.231 2.14004 205.596C0.843298 204.96 1.35588 205.423 1.25642 205.596C1.15697 205.768 0.495205 205.544 1.78812 206.182Z" fill="#B69C48"/>
<path d="M4.85583 222.869C4.85583 222.869 13.8183 222.621 16.5189 220.884C19.2195 219.147 30.2896 217.086 30.9743 219.848C31.659 222.611 44.4429 233.697 34.3252 233.77C24.2075 233.842 10.8155 232.347 8.11873 230.866C5.42196 229.385 4.85583 222.869 4.85583 222.869Z" fill="#A8A8A8"/>
<path opacity="0.2" d="M34.505 232.81C24.3873 232.882 10.9953 231.387 8.29852 229.906C6.24438 228.777 5.42579 224.727 5.1542 222.859H4.85583C4.85583 222.859 5.42196 229.385 8.11873 230.866C10.8155 232.347 24.2076 233.846 34.3252 233.77C37.2477 233.749 38.2537 232.81 38.2002 231.422C37.7947 232.271 36.6815 232.796 34.505 232.81Z" fill="white"/>
<path d="M376.773 198.2C377.474 197.684 377.985 196.988 378.238 196.204C378.429 195.41 378.054 194.46 377.213 194.17C376.272 193.846 375.266 194.433 374.505 195.03C373.743 195.627 372.867 196.304 371.869 196.176C372.382 195.757 372.766 195.224 372.983 194.63C373.2 194.037 373.244 193.402 373.108 192.789C373.065 192.535 372.946 192.296 372.764 192.099C372.24 191.595 371.295 191.812 370.668 192.209C368.679 193.473 368.124 195.911 368.113 198.107C367.914 197.316 368.082 196.491 368.074 195.69C368.067 194.889 367.822 193.963 367.065 193.542C366.595 193.314 366.067 193.201 365.534 193.214C364.639 193.183 363.645 193.266 363.033 193.856C362.268 194.588 362.47 195.821 363.132 196.618C363.794 197.416 364.796 197.93 365.722 198.49C366.464 198.888 367.097 199.432 367.573 200.081C367.629 200.172 367.675 200.266 367.711 200.365H373.315C374.571 199.787 375.734 199.059 376.773 198.2Z" fill="#C326D0"/>
<path opacity="0.1" d="M57.1273 165.841C69.2991 179.811 64.5711 200.22 56.8366 216.561C54.2469 222.034 51.3168 227.824 52.4108 233.69C53.7458 240.865 60.8263 246.12 68.2931 248.882C81.8725 253.951 98.1297 252.742 110.604 245.737C121.387 239.681 129.11 229.834 140.077 224.054C158.438 214.386 181.795 218.036 201.724 224.696C215.824 229.409 231.239 235.541 245.251 230.614C255.108 227.161 261.925 218.712 265.639 209.77C267.433 205.45 268.734 200.793 272.142 197.34C274.177 195.306 276.832 193.86 279.555 192.644C304.419 181.523 335.786 187.465 359.915 175.146C376.214 166.818 386.65 151.105 391.282 134.722C395.914 118.338 395.363 101.158 394.189 84.2877C393.355 72.2965 391.859 59.4972 383.371 50.2405C374.394 40.452 358.982 36.8094 345.054 38.6704C331.127 40.5315 318.496 47.1952 307.403 55.0052C293.521 64.7661 280.649 76.9231 263.604 80.8799C251.999 83.573 239.788 82.0987 227.816 81.5912C207.802 80.7383 187.785 82.627 167.882 84.6986C148.829 86.6874 129.63 88.8764 111.487 94.4698C98.6422 98.4301 88.3448 105.615 76.2151 110.635C68.3084 113.909 59.6864 114.813 52.2043 118.981C42.9817 124.115 34.5318 133.047 36.9034 143.495C39.1297 153.442 50.6627 158.428 57.1273 165.841Z" fill="#110012"/>
<path opacity="0.1" d="M212.285 165.834C302.635 165.834 375.878 159.484 375.878 151.65C375.878 143.817 302.635 137.466 212.285 137.466C121.936 137.466 48.6926 143.817 48.6926 151.65C48.6926 159.484 121.936 165.834 212.285 165.834Z" fill="#C326D0"/>
<path opacity="0.1" d="M86.5545 247.663C131.206 247.663 167.404 241.313 167.404 233.48C167.404 225.646 131.206 219.296 86.5545 219.296C41.9025 219.296 5.70496 225.646 5.70496 233.48C5.70496 241.313 41.9025 247.663 86.5545 247.663Z" fill="#C326D0"/>
<path d="M169.202 147.227L167.921 148.909C167.921 148.909 169.317 150.59 169.451 150.801C169.584 151.011 173.524 150.697 173.524 150.697L173.873 149.437L173.291 147.966L169.202 147.227Z" fill="#7F7FAE"/>
<path d="M126.119 146.281L123.556 146.699L125.185 149.541L126.933 150.38L128.563 151.429L129.03 150.276L127.863 148.066L126.119 146.281Z" fill="#FDC2CC"/>
<path d="M168.039 118.953C168.039 118.953 181.665 121.895 184.224 125.168C184.224 125.168 186.553 126.956 184.224 130.212C181.894 133.468 178.635 140.829 178.635 140.829C178.635 140.829 176.305 147.977 175.376 148.501C174.446 149.026 169.087 149.447 168.621 147.466C168.621 147.466 171.646 143.157 171.646 141.157C171.646 139.158 176.654 129.701 176.654 129.701C176.654 129.701 165.243 128.545 161.632 129.28C158.021 130.016 163.265 117.796 168.039 118.953Z" fill="#565171"/>
<path opacity="0.1" d="M168.039 118.953C168.039 118.953 181.665 121.895 184.224 125.168C184.224 125.168 186.553 126.956 184.224 130.212C181.894 133.468 178.635 140.829 178.635 140.829C178.635 140.829 176.305 147.977 175.376 148.501C174.446 149.026 169.087 149.447 168.621 147.466C168.621 147.466 171.646 143.157 171.646 141.157C171.646 139.158 176.654 129.701 176.654 129.701C176.654 129.701 165.243 128.545 161.632 129.28C158.021 130.016 163.265 117.796 168.039 118.953Z" fill="white"/>
<path d="M165.243 121.791C165.216 122.402 165.143 123.089 165.04 123.828C164.294 129.18 161.865 137.139 161.865 137.139C161.865 137.139 159.421 141.869 158.721 144.918C158.021 147.966 153.247 148.715 153.247 148.715C153.247 148.715 140.203 150.097 137.525 149.558C134.848 149.019 130.64 151.136 128.559 150.818C126.478 150.501 125.182 146.088 125.182 146.088C128.793 146.107 132.367 145.427 135.663 144.092C141.018 141.886 148.707 142.936 148.707 142.936C149.28 142.785 149.813 142.531 150.274 142.188C150.734 141.844 151.112 141.42 151.384 140.94C152.199 139.362 152.199 129.798 151.966 129.166C150.436 125.023 150.562 122.364 151.002 120.814C151.149 120.137 151.48 119.503 151.966 118.97L165.243 121.791Z" fill="#565171"/>
<path opacity="0.1" d="M165.243 121.791C165.216 122.402 165.143 123.089 165.04 123.828C163.87 123.911 160.588 123.991 158.155 122.634C155.86 121.363 152.52 120.931 151.017 120.797C151.164 120.12 151.495 119.486 151.981 118.953L165.243 121.791Z" fill="white"/>
<path d="M166.853 120.476C166.31 121.857 165.476 123.476 165.476 123.476C165.476 123.476 161.169 124.001 158.139 122.319C155.11 120.638 150.221 120.427 150.221 120.427C151.013 119.989 151.549 118.656 151.881 117.489C152.067 116.829 152.213 116.161 152.318 115.486C152.318 115.486 166.639 118.114 167.236 118.535C167.458 118.701 167.221 119.536 166.853 120.476Z" fill="#7F7FAE"/>
<path d="M192.375 76.1738L175.005 85.6377L173.28 86.5768V81.9536L174.477 81.4357L189.116 75.1207C189.116 75.1207 189.816 63.6646 191.679 65.4531C193.542 67.2416 192.375 76.1738 192.375 76.1738Z" fill="#FDC2CC"/>
<path opacity="0.1" d="M175.005 85.6378L173.28 86.5769V81.9537L174.477 81.4358C174.556 82.845 174.733 84.2483 175.005 85.6378Z" fill="white"/>
<path d="M161.636 87.3296L174.094 80.8143C174.094 80.8143 174.328 87.1224 175.724 88.065C175.724 88.065 170.602 89.4461 168.621 92.374L161.636 87.3296Z" fill="#B45181"/>
<path opacity="0.1" d="M161.636 87.3296L174.094 80.8143C174.094 80.8143 174.328 87.1224 175.724 88.065C175.724 88.065 170.602 89.4461 168.621 92.374L161.636 87.3296Z" fill="white"/>
<path d="M192.264 92.8849C192.264 92.8849 186.339 95.2155 182.414 96.0718C181.531 96.3122 180.607 96.4081 179.687 96.3549C177.009 95.9337 180.387 92.9022 180.387 92.9022L181.794 92.7054L189.353 91.6419C189.353 91.6419 190.168 81.1319 191.564 81.9743C192.96 82.8168 192.264 92.8849 192.264 92.8849Z" fill="#FDC2CC"/>
<path d="M167.224 83.4246C167.224 83.4246 162.217 86.7875 164.08 90.9929C165.943 95.1983 154.414 88.469 154.414 88.469C154.414 88.469 158.139 83.4246 158.954 79.6404C159.769 75.8562 167.224 83.4246 167.224 83.4246Z" fill="#FDC2CC"/>
<path opacity="0.1" d="M166.853 120.476C164.688 119.739 162.424 119.263 160.121 119.06C156.755 118.715 153.672 118.131 151.885 117.489C152.071 116.829 152.217 116.161 152.321 115.486C152.321 115.486 166.643 118.114 167.24 118.535C167.458 118.701 167.221 119.536 166.853 120.476Z" fill="white"/>
<path opacity="0.1" d="M182.41 96.0718C181.527 96.3123 180.604 96.4081 179.683 96.355C177.005 95.9337 180.383 92.9023 180.383 92.9023L181.791 92.7054C182.38 93.5237 182.98 94.8012 182.41 96.0718Z" fill="white"/>
<path d="M159.073 85.3166C159.073 85.3166 154.532 85.213 152.903 86.8945C151.273 88.5759 151.621 93.1093 151.621 93.1093C151.621 93.1093 151.281 102.187 153.832 107.265C153.916 107.429 153.926 107.617 153.859 107.787C153.832 107.849 153.832 107.811 153.832 107.811C153.832 107.811 152.203 114.433 150.573 115.59C148.944 116.747 154.066 118.114 160.136 118.742C166.207 119.371 168.636 120.949 168.636 120.949C168.636 120.949 169.684 119.913 169.783 117.586C169.883 115.259 168.165 98.3506 168.165 98.3506C168.165 98.3506 174.569 99.8214 178.413 98.0364C178.413 98.0364 180.161 98.8788 181.791 96.5655C183.42 94.2522 180.643 91.7317 180.643 91.7317C180.643 91.7317 178.08 94.045 170.977 90.9963C163.873 87.9475 161.28 85.213 159.073 85.3166Z" fill="#B45181"/>
<path d="M124.256 146.492H122.86V148.28L124.256 151.119C124.256 151.119 126.119 151.433 126.237 151.433C126.356 151.433 127.867 151.119 127.867 151.119L128.333 150.383C128.333 150.383 123.208 148.591 124.256 146.492Z" fill="#7F7FAE"/>
<path d="M168.039 148.173L165.943 152.379L174.794 156.177L181.783 156.387C181.783 156.387 182.364 154.917 180.035 154.181L178.172 153.867C178.172 153.867 175.728 149.872 175.494 147.997C175.494 147.997 173.165 148.419 172.817 149.993C172.813 149.958 169.554 151.429 168.039 148.173Z" fill="#B45181"/>
<path d="M123.208 146.071L122.496 146.595L119.367 148.909L126.585 157.541C126.585 157.541 130.659 159.118 132.526 157.541C132.526 157.541 133.673 156.505 131.13 155.649C131.13 155.649 129.148 155.963 129.148 154.178C129.148 152.393 129.615 150.501 130.296 150.079C130.296 150.079 128.548 149.554 128.085 149.976C127.729 150.33 127.416 150.718 127.151 151.132C127.151 151.132 122.974 149.644 123.208 146.071Z" fill="#B45181"/>
<path opacity="0.1" d="M158.725 79.851C158.606 80.3842 158.451 80.9101 158.258 81.4254C158.863 82.7387 160.011 83.7876 161.459 84.3491C162.907 84.9106 164.54 84.9406 166.012 84.4327C166.319 84.1468 166.647 83.8804 166.995 83.6351C166.995 83.6351 159.54 76.0668 158.725 79.851Z" fill="white"/>
<path opacity="0.1" d="M158.082 93.8898C158.082 93.8898 161.693 98.1988 166.934 98.3058L158.082 93.8898Z" fill="white"/>
<g opacity="0.1">
<path d="M179.664 98.109C179.59 98.0905 179.519 98.0662 179.45 98.0365C179.337 98.0894 179.223 98.1389 179.105 98.185C179.294 98.1816 179.482 98.1561 179.664 98.109Z" fill="white"/>
<path d="M180.903 92.1634C180.776 92.0166 180.641 91.8759 180.498 91.7422C180.498 91.7422 179.733 92.4327 177.843 92.5639C178.884 92.6572 179.934 92.5197 180.903 92.1634Z" fill="white"/>
<path d="M169.202 98.3506L169.225 98.575C170.761 98.8318 172.322 98.9475 173.884 98.9203C172.306 98.8684 170.738 98.6776 169.202 98.3506Z" fill="white"/>
<path d="M161.169 118.749C155.114 118.117 149.992 116.754 151.606 115.597C153.22 114.44 154.865 107.818 154.865 107.818C154.865 107.818 154.865 107.856 154.892 107.794C154.959 107.624 154.949 107.436 154.865 107.272C152.314 102.18 152.654 93.1163 152.654 93.1163C152.654 93.1163 152.306 88.5967 153.936 86.9014C155.148 85.6481 157.975 85.3892 159.341 85.3374C159.213 85.3285 159.085 85.3285 158.958 85.3374C158.958 85.3374 154.417 85.2338 152.788 86.9153C151.158 88.5967 151.507 93.1301 151.507 93.1301C151.507 93.1301 151.166 102.207 153.717 107.286C153.802 107.45 153.811 107.637 153.744 107.808C153.717 107.87 153.717 107.832 153.717 107.832C153.717 107.832 152.099 114.433 150.455 115.59C148.81 116.747 153.947 118.114 160.018 118.742C166.088 119.371 168.517 120.949 168.517 120.949C168.639 120.817 168.747 120.674 168.839 120.524C167.657 120.01 165.224 119.164 161.169 118.749Z" fill="white"/>
</g>
<path d="M164.08 84.5812C167.424 84.5812 170.135 82.1342 170.135 79.1156C170.135 76.097 167.424 73.6499 164.08 73.6499C160.736 73.6499 158.025 76.097 158.025 79.1156C158.025 82.1342 160.736 84.5812 164.08 84.5812Z" fill="#FDC2CC"/>
<path opacity="0.1" d="M172.698 76.671C172.197 77.8035 170.701 78.2316 169.389 78.5251C167.515 78.9394 165.495 79.3468 163.701 78.7046C163.469 78.5869 163.201 78.5397 162.936 78.57C162.723 78.6471 162.545 78.7871 162.431 78.967C160.454 81.5082 160.775 84.8954 160.262 87.9683C160.102 88.9247 159.83 89.9122 159.115 90.6269C157.723 92.008 155.095 91.9562 153.813 93.4236C152.968 94.3903 152.96 95.7334 152.968 96.9661C152.968 98.2804 152.955 99.5959 152.93 100.913C152.907 101.776 152.861 102.67 152.428 103.436C151.694 104.735 150.057 105.353 148.546 105.853C147.605 106.171 146.633 106.492 145.623 106.406C144.614 106.319 143.604 105.715 143.474 104.804C143.294 103.568 144.705 102.704 145.677 101.814C147.23 100.395 147.869 98.3299 147.926 96.3342C147.981 95.5282 147.851 94.7207 147.544 93.9622C147.188 93.1784 146.553 92.519 146.17 91.7456C144.992 89.3632 146.446 86.6079 148.186 84.5225C149.927 82.437 152.065 80.4034 152.436 77.8173C152.468 77.2577 152.557 76.7018 152.7 76.1565C152.968 75.4038 153.603 73.3253 154.303 72.8488C155.423 72.0868 156.739 71.5928 158.128 71.4125C159.203 71.2709 160.301 71.3227 161.368 71.1363C162.615 70.9188 163.774 70.3836 165.021 70.1833C167.718 69.7517 170.644 72.5795 171.826 74.81C172.151 75.4936 173.004 75.977 172.698 76.671Z" fill="white"/>
<path d="M172.698 76.4604C172.197 77.5929 170.701 78.021 169.389 78.3145C167.515 78.7289 165.495 79.1363 163.701 78.4941C163.469 78.3763 163.201 78.3291 162.936 78.3594C162.723 78.4365 162.545 78.5765 162.431 78.7565C160.454 81.2977 160.775 84.6848 160.262 87.7577C160.102 88.7141 159.83 89.7016 159.115 90.4163C157.723 91.7974 155.095 91.7456 153.813 93.213C152.968 94.1798 152.96 95.5229 152.968 96.7555C152.968 98.0698 152.955 99.3853 152.93 100.702C152.907 101.565 152.861 102.459 152.428 103.226C151.694 104.524 150.057 105.142 148.546 105.643C147.605 105.96 146.633 106.282 145.623 106.195C144.614 106.109 143.604 105.505 143.474 104.593C143.294 103.357 144.705 102.494 145.677 101.603C147.23 100.184 147.869 98.1193 147.926 96.1236C147.981 95.3176 147.851 94.5101 147.544 93.7516C147.188 92.9679 146.553 92.3084 146.17 91.535C144.992 89.1526 146.446 86.3973 148.186 84.3119C149.927 82.2265 152.065 80.1928 152.436 77.6067C152.468 77.0471 152.557 76.4912 152.7 75.946C152.968 75.1933 153.603 73.1147 154.303 72.6383C155.423 71.8763 156.739 71.3822 158.128 71.2019C159.203 71.0604 160.301 71.1122 161.368 70.9257C162.615 70.7082 163.774 70.173 165.021 69.9728C167.718 69.5412 170.644 72.3689 171.826 74.5994C172.151 75.283 173.004 75.7664 172.698 76.4604Z" fill="#F569BC"/>
<path d="M192.264 65.9539H292.932V156.812H192.264V65.9539Z" fill="url(#paint0_linear_2_228)"/>
<path d="M218.738 141.883L226.442 137.674C227.93 140.053 229.281 142.066 232.524 142.066C235.634 142.066 237.593 140.968 237.593 136.7V107.666H247.053V136.817C247.053 145.66 241.315 149.686 232.93 149.686C225.364 149.686 220.972 146.147 218.742 141.879M252.19 140.964L259.89 136.938C261.917 139.928 264.553 142.117 269.216 142.117C273.137 142.117 275.635 140.35 275.635 137.908C275.635 134.981 273.068 133.945 268.749 132.236L266.385 131.321C259.561 128.7 255.032 125.406 255.032 118.452C255.032 112.048 260.437 107.169 268.883 107.169C274.896 107.169 279.211 109.061 282.329 113.998L274.965 118.269C273.343 115.645 271.587 114.61 268.883 114.61C266.114 114.61 264.354 116.194 264.354 118.269C264.354 120.831 266.11 121.867 270.164 123.449L272.528 124.363C280.561 127.471 285.098 130.644 285.098 137.781C285.098 145.466 278.408 149.675 269.415 149.675C260.617 149.675 254.955 145.877 252.201 140.954" fill="white"/>
<path d="M337.09 207.236C337.09 207.236 333.162 207.484 330.737 203.686C330.263 202.921 329.702 202.203 329.065 201.542C328.282 200.383 327.875 199.049 327.891 197.692C328.024 194.878 324.773 179.465 324.773 179.465C324.773 179.465 325.178 173.596 321.927 169.925C319.785 167.509 316.706 160.603 314.85 156.142C314.975 156.242 315.125 156.313 315.286 156.349L315.21 155.966H315.286L314.326 151.205C312.928 149.754 311.75 148.143 310.822 146.412L311.041 146.371L313.917 145.826C313.917 145.826 318.591 139.828 318.89 136.88H319.272H319.812C324.139 136.858 328.463 137.062 332.764 137.491C332.764 137.473 332.733 137.397 332.695 137.277C332.513 136.683 332.372 136.08 332.274 135.471H332.542L335.22 135.312C335.22 135.312 344.435 126.017 341.045 124.305C337.656 122.592 334.133 132.011 334.133 132.011L332.986 132.198L332.676 132.249C332.706 132.208 332.737 132.17 332.772 132.132C332.806 132.094 317.731 131.524 315.409 128.217C315.409 128.217 308.768 123.445 308.497 120.275C308.448 119.618 308.199 118.985 307.778 118.447C307.357 117.908 306.78 117.485 306.11 117.223C305.289 116.87 304.381 116.716 303.474 116.778L300.364 116.971L300.582 117.316H300.494C300.299 116.913 300.136 116.498 300.005 116.073H300.07C300.047 115.987 300.028 115.901 300.009 115.814C300.962 115.612 301.86 115.238 302.65 114.716C303.44 114.194 304.107 113.534 304.609 112.776C305.112 112.017 305.441 111.175 305.576 110.3C305.712 109.425 305.651 108.534 305.398 107.68C305.703 107.715 306.011 107.707 306.313 107.656C307.46 107.445 308.267 106.395 308.298 105.346C308.298 105.277 308.298 105.208 308.298 105.142C308.298 105.142 308.298 105.115 308.298 105.101C308.286 104.573 308.145 104.055 307.883 103.583C307.622 103.111 307.247 102.698 306.787 102.373C306.167 101.907 305.425 101.575 304.874 101.058C304.205 100.44 303.838 99.6109 303.317 98.8824C302.446 97.6773 301.154 96.7695 299.645 96.3032C298.524 95.9579 297.147 95.9234 296.287 96.6484C295.843 97.0248 295.587 97.5703 295.089 97.888C294.374 98.3506 293.403 98.2125 292.527 98.3058C291.733 98.4159 290.982 98.7006 290.34 99.1348C289.697 99.5689 289.183 100.139 288.843 100.795C288.413 101.617 288.206 102.518 288.238 103.426C288.229 104.049 288.311 104.67 288.483 105.273C288.652 105.874 288.9 106.454 289.084 107.055C289.466 108.298 289.554 109.607 289.994 110.832C290.29 111.742 290.88 112.551 291.689 113.156L291.559 113.66C291.475 113.66 289.363 114.085 287.906 116.961C286.758 119.229 282.853 121.57 281.135 122.516C280.815 122.693 280.537 122.926 280.317 123.201C280.098 123.476 279.942 123.788 279.857 124.118C279.692 124.785 279.619 125.469 279.639 126.152C279.609 127.626 279.949 129.667 281.261 132.253C284.241 138.122 286.41 140.691 286.41 140.691C286.41 140.691 286.575 142.49 286.586 144.386C286.586 145.798 286.471 147.203 286.138 147.907C285.855 148.501 285.756 150.017 285.779 151.75C285.779 155.072 286.138 159.405 286.138 159.405C286.138 159.405 287.175 159.585 288.778 159.795L289.776 175.65C289.902 177.57 289.219 179.462 287.864 180.947C287.163 181.727 286.355 182.424 285.458 183.018C282.612 184.852 276.514 204.18 276.514 204.18C276.514 204.18 276.813 204.18 277.302 204.232L275.428 208.952C275.428 208.952 282.918 214.131 287.473 212.715C287.967 212.57 288.485 212.504 289.004 212.522C289.902 212.522 291.827 211.879 290.755 211.034C288.687 209.314 286.737 207.483 284.914 205.551C285.061 205.615 285.202 205.69 285.335 205.775V205.737L285.4 205.775C285.4 205.775 285.4 205.585 285.45 205.274L285.385 205.254C285.523 203.983 285.959 200.765 286.823 200.392C287.906 199.902 295.904 185.59 295.904 185.59L303.899 166.998C303.899 166.998 310.268 176.907 315.688 178.616V182.759C315.688 182.759 318.668 194.992 319.754 196.335C320.841 197.678 319.754 203.061 319.754 203.061C319.969 203.283 320.214 203.478 320.485 203.641L319.617 208.075C319.617 208.075 325.852 207.829 336.421 210.764C336.413 210.781 340.479 209.193 337.09 207.236ZM312.157 143.264L310.838 143.561L310.578 143.619C310.551 143.471 310.532 143.384 310.532 143.384C310.229 143.508 309.903 143.579 309.572 143.595C309.104 142.258 308.834 140.87 308.768 139.469C308.324 137.792 308.054 136.081 307.961 134.359C307.961 133.468 308.126 132.691 308.497 132.253L308.937 132.284L309.243 132.546L309.266 132.564L309.422 132.691L309.587 132.823L309.614 132.843L309.79 132.985L309.82 133.009L310 133.147L310.203 133.299L310.249 133.334L310.463 133.489L310.673 133.641L310.723 133.675L310.956 133.834L311.006 133.865L311.228 134.014L311.266 134.038L311.519 134.2L311.58 134.238L311.848 134.404H311.871L312.131 134.559L312.192 134.597L312.471 134.76L312.532 134.794L312.792 134.939L312.842 134.967L313.141 135.126L313.213 135.164L313.523 135.319H313.546L313.848 135.464L313.921 135.498L314.242 135.643L314.307 135.671L314.606 135.795L314.663 135.82L315 135.951L315.08 135.982L315.428 136.11C313.267 138.257 312.157 143.264 312.157 143.264Z" fill="url(#paint1_linear_2_228)"/>
<path d="M278.733 201.324L276.22 207.653C276.22 207.653 283.105 212.418 287.581 211.431C288.255 211.279 288.942 211.179 289.635 211.13C290.56 211.068 292.156 210.457 291.165 209.683C287.99 207.177 283.755 202.519 283.755 202.519L278.733 201.324Z" fill="#4F4D59"/>
<path d="M320.539 200.727L319.349 206.818C319.349 206.818 325.435 206.579 335.755 209.445C335.755 209.445 339.726 207.892 336.417 205.993C336.417 205.993 332.592 206.231 330.201 202.54C327.81 198.849 326.376 199.315 326.376 199.315L320.539 200.727Z" fill="#4F4D59"/>
<path d="M289.042 156.546L290.189 175.08C290.315 177.055 289.59 178.998 288.166 180.501C287.522 181.191 286.789 181.809 285.982 182.341C283.205 184.133 277.249 202.999 277.249 202.999C277.249 202.999 283.996 203.344 285.848 204.553C285.848 204.553 286.23 199.778 287.301 199.298C288.372 198.818 296.164 184.848 296.164 184.848L303.972 166.697C303.972 166.697 310.188 176.365 315.482 178.043V182.103C315.482 182.103 318.393 194.046 319.452 195.358C320.512 196.67 319.452 201.918 319.452 201.918C319.452 201.918 322.512 205.371 329.505 201.68C329.505 201.68 327.256 199.412 327.389 196.663C327.523 193.915 324.329 178.871 324.329 178.871C324.329 178.871 324.712 173.14 321.552 169.549C318.393 165.958 313.141 152.241 313.141 152.241L309.499 145.169L289.042 156.546Z" fill="#C48C96"/>
<g opacity="0.1">
<path d="M278.534 202.996C278.534 202.996 284.486 184.13 287.267 182.338C288.12 181.774 288.891 181.115 289.562 180.377C290.92 178.894 291.603 177.001 291.475 175.08L290.308 156.543L309.817 145.687L309.553 145.173L289.118 156.546L290.285 175.084C290.414 177.004 289.73 178.897 288.372 180.38C287.701 181.118 286.93 181.777 286.077 182.341C283.304 184.13 277.344 202.996 277.344 202.996C277.344 202.996 284.092 203.341 285.943 204.549C285.943 204.549 285.943 204.363 285.993 204.063C283.388 203.255 278.534 202.996 278.534 202.996Z" fill="white"/>
<path d="M320.737 201.922C320.737 201.922 321.797 196.667 320.737 195.362C319.678 194.057 316.767 182.107 316.767 182.107V178.039C311.477 176.368 305.257 166.694 305.257 166.694L304.798 167.778C306.592 170.347 311.377 176.72 315.581 178.046V182.107C315.581 182.107 318.492 194.05 319.552 195.362C320.611 196.674 319.552 201.922 319.552 201.922C319.552 201.922 321.028 203.6 324.287 203.372C321.851 203.189 320.737 201.922 320.737 201.922Z" fill="white"/>
</g>
<path d="M334.562 135.768L331.964 135.923L330.595 136.006V133.019L332.393 132.726L333.506 132.543C333.506 132.543 336.949 123.348 340.254 125.019C343.559 126.691 334.562 135.768 334.562 135.768Z" fill="#714B4F"/>
<path d="M292.89 111.153C292.89 111.153 291.169 117.123 290.641 120.821C290.113 124.519 302.943 121.539 302.943 121.539C302.943 121.539 298.046 116.167 300.827 113.301L292.89 111.153Z" fill="#714B4F"/>
<path d="M306.779 136.013L307.043 138.281L302.943 138.043L298.842 134.818L294.741 124.426L292.102 120.721L290.117 118.452L290.912 115.69C290.912 115.69 291.276 115.977 291.888 116.398C293.904 117.779 298.628 120.683 302.082 119.882C302.242 119.845 302.399 119.8 302.552 119.747L307.713 127.747L306.779 136.013Z" fill="#7F7FAE"/>
<path opacity="0.1" d="M291.964 114.989C291.964 114.989 289.849 115.335 288.391 118.214C287.275 120.417 283.495 122.703 281.808 123.625C281.487 123.802 281.207 124.036 280.987 124.312C280.767 124.588 280.611 124.902 280.527 125.234C280.186 126.594 280.056 129.132 281.908 132.781C284.819 138.513 286.934 141.019 286.934 141.019C286.934 141.019 287.462 146.751 286.67 148.422C285.878 150.093 286.67 159.288 286.67 159.288C286.67 159.288 300.559 161.677 305.192 159.288C309.824 156.898 309.162 147.704 309.162 147.704C309.162 147.704 313.527 156.063 315.114 156.301L314.189 151.643C314.189 151.643 309.028 146.627 308.765 140.18C308.765 140.18 307.177 134.328 308.501 132.778C308.501 132.778 330.859 134.449 332.182 133.016C332.182 133.016 317.497 132.419 315.248 129.194C315.248 129.194 308.765 124.536 308.501 121.432C308.462 120.849 308.26 120.285 307.912 119.793C307.565 119.3 307.084 118.896 306.515 118.618C305.615 118.156 304.583 117.948 303.551 118.021L300.563 118.207C300.563 118.207 305.724 126.445 305.46 127.53C305.196 128.614 305.724 137.321 305.724 137.321C305.724 137.321 299.752 125.738 297.124 124.426C294.497 123.114 291.433 117.713 291.433 117.713L291.96 114.986" fill="white"/>
<path opacity="0.1" d="M306.779 136.013L307.043 138.281L302.943 138.043L298.842 134.818L294.741 124.426L292.102 120.721L290.117 118.452L290.912 115.69C290.912 115.69 291.276 115.977 291.888 116.398L291.704 117.341C291.704 117.341 294.764 122.734 297.392 124.049C300.02 125.365 305.991 136.945 305.991 136.945C305.991 136.945 305.463 128.227 305.727 127.153C305.907 126.425 303.589 122.399 302.082 119.882C302.242 119.845 302.399 119.8 302.552 119.747L307.713 127.747L306.779 136.013Z" fill="white"/>
<path opacity="0.1" d="M331.964 135.923L330.595 136.006V133.019L332.393 132.726C331.765 133.475 331.788 134.801 331.964 135.923Z" fill="white"/>
<path d="M291.964 114.634C291.964 114.634 289.849 114.979 288.391 117.859C287.275 120.061 283.495 122.347 281.808 123.269C281.487 123.446 281.207 123.68 280.987 123.956C280.767 124.233 280.611 124.546 280.527 124.878C280.186 126.238 280.056 128.776 281.908 132.426C284.819 138.157 286.934 140.664 286.934 140.664C286.934 140.664 287.462 146.395 286.67 148.066C285.878 149.737 286.67 158.932 286.67 158.932C286.67 158.932 300.559 161.321 305.192 158.932C309.824 156.543 309.162 147.348 309.162 147.348C309.162 147.348 313.523 155.693 315.114 155.949L314.189 151.291C314.189 151.291 309.028 146.274 308.765 139.828C308.765 139.828 307.177 133.976 308.501 132.426C308.501 132.426 313.661 137.442 319.483 137.321C323.725 137.298 327.966 137.498 332.182 137.919C332.182 137.919 330.859 134.097 332.182 132.664C332.182 132.664 317.497 132.066 315.248 128.842C315.248 128.842 308.765 124.184 308.501 121.08C308.462 120.497 308.26 119.933 307.912 119.441C307.565 118.948 307.084 118.544 306.515 118.266C305.615 117.804 304.583 117.596 303.551 117.669L300.563 117.855C300.563 117.855 305.724 126.093 305.46 127.177C305.196 128.262 305.724 136.969 305.724 136.969C305.724 136.969 299.752 125.379 297.124 124.066C294.497 122.754 291.433 117.368 291.433 117.368L291.96 114.641" fill="#C48C96"/>
<path opacity="0.1" d="M289.042 127.17C289.042 127.17 292.217 136.838 294.068 138.036C295.92 139.234 307.166 145.321 310.474 143.888C310.474 143.888 311.27 147.472 310.092 148.308C310.092 148.308 297.756 147.873 297.656 147.831C297.656 147.831 289.585 146.875 288.261 143.295C286.938 139.714 285.35 133.627 285.35 133.627L289.042 127.17Z" fill="white"/>
<path d="M305.988 138.098C306.243 138.098 306.45 137.831 306.45 137.501C306.45 137.171 306.243 136.904 305.988 136.904C305.732 136.904 305.525 137.171 305.525 137.501C305.525 137.831 305.732 138.098 305.988 138.098Z" fill="#BA7855"/>
<path d="M307.307 142.276C307.563 142.276 307.77 142.009 307.77 141.679C307.77 141.349 307.563 141.081 307.307 141.081C307.051 141.081 306.844 141.349 306.844 141.679C306.844 142.009 307.051 142.276 307.307 142.276Z" fill="#BA7855"/>
<g opacity="0.1">
<path d="M287.6 158.801C287.6 158.801 286.804 149.606 287.6 147.935C288.395 146.264 287.864 140.532 287.864 140.532C287.864 140.532 285.748 138.026 282.837 132.294C280.982 128.645 281.116 126.107 281.456 124.747C281.54 124.415 281.697 124.101 281.917 123.825C282.137 123.549 282.416 123.315 282.738 123.138C284.425 122.205 288.2 119.93 289.321 117.727C290.143 116.111 291.172 115.293 291.915 114.886L291.964 114.623C291.964 114.623 289.849 114.969 288.391 117.848C287.275 120.051 283.495 122.337 281.808 123.259C281.487 123.436 281.207 123.67 280.987 123.946C280.767 124.222 280.611 124.536 280.527 124.868C280.186 126.228 280.056 128.766 281.908 132.415C284.819 138.147 286.934 140.653 286.934 140.653C286.934 140.653 287.462 146.385 286.67 148.056C285.878 149.727 286.67 158.922 286.67 158.922C286.67 158.922 296.593 160.627 302.461 159.712C296.535 160.351 287.6 158.801 287.6 158.801Z" fill="white"/>
<path d="M305.456 127.17C305.276 127.906 305.456 132.232 305.605 134.884C306.244 136.061 306.645 136.845 306.645 136.845C306.645 136.845 306.117 128.127 306.381 127.053C306.634 126.017 301.986 118.539 301.523 117.8L300.559 117.859C300.559 117.859 305.723 126.097 305.456 127.17Z" fill="white"/>
<path d="M320.408 137.201C314.587 137.321 309.426 132.305 309.426 132.305C309.272 132.499 309.159 132.718 309.094 132.95C310.624 134.235 314.831 137.415 319.483 137.318C323.725 137.295 327.966 137.494 332.182 137.915C332.182 137.915 332.156 137.836 332.114 137.701C328.225 137.338 324.317 137.171 320.408 137.201Z" fill="white"/>
<path d="M310.08 147.231C310.08 147.231 310.134 147.977 310.103 149.095C311.48 151.56 313.986 155.776 315.107 155.945L314.912 154.965C312.988 152.783 310.08 147.231 310.08 147.231Z" fill="white"/>
</g>
<path d="M313.791 146.026L310.979 146.561L308.761 146.982L309.95 143.996L310.78 143.809L312.07 143.519C312.07 143.519 313.921 135.16 317.628 135.757C321.334 136.355 313.791 146.026 313.791 146.026Z" fill="#714B4F"/>
<path opacity="0.1" d="M310.983 146.571L308.765 146.993L309.954 144.006L310.784 143.819C310.968 144.727 311.035 145.65 310.983 146.571Z" fill="white"/>
<path d="M289.042 126.932C289.042 126.932 292.217 136.6 294.068 137.798C295.92 138.996 307.166 145.083 310.474 143.65C310.474 143.65 311.27 147.234 310.092 148.07C310.092 148.07 297.756 147.635 297.656 147.593C297.656 147.593 289.585 146.637 288.261 143.056C286.938 139.476 285.35 133.389 285.35 133.389L289.042 126.932Z" fill="#C48C96"/>
<path opacity="0.1" d="M293.02 111.409C293.02 111.409 292.752 112.345 292.393 113.705C293.125 114.957 294.294 115.957 295.719 116.55C297.144 117.143 298.746 117.296 300.276 116.985C299.959 115.759 300.028 114.52 300.957 113.56L293.02 111.409Z" fill="white"/>
<path d="M298.578 116.902C302.524 116.902 305.724 114.014 305.724 110.452C305.724 106.89 302.524 104.003 298.578 104.003C294.632 104.003 291.433 106.89 291.433 110.452C291.433 114.014 294.632 116.902 298.578 116.902Z" fill="#714B4F"/>
<path opacity="0.1" d="M304.783 108.678C305.3 108.808 305.842 108.839 306.374 108.767C306.924 108.633 307.411 108.34 307.761 107.933C308.11 107.526 308.303 107.028 308.309 106.513C308.299 105.998 308.162 105.492 307.907 105.031C307.652 104.571 307.287 104.167 306.837 103.851C306.232 103.395 305.509 103.074 304.955 102.566C304.301 101.962 303.941 101.154 303.425 100.443C302.574 99.2668 301.312 98.3809 299.84 97.9259C298.746 97.5806 297.404 97.553 296.562 98.2712C296.13 98.6406 295.877 99.1689 295.395 99.4831C294.695 99.9319 293.747 99.8007 292.894 99.8905C292.121 99.9966 291.389 100.272 290.762 100.694C290.135 101.115 289.632 101.669 289.298 102.307C288.645 103.608 288.521 105.075 288.946 106.451C289.111 107.038 289.355 107.604 289.531 108.177C289.914 109.392 289.99 110.666 290.419 111.865C290.847 113.063 291.731 114.237 293.07 114.596C292.964 113.251 293.259 111.905 293.923 110.698C294.032 110.433 294.248 110.216 294.527 110.09C294.766 110.035 295.016 110.035 295.254 110.09C296.932 110.314 298.644 110.001 300.093 109.206C300.602 108.93 301.393 107.977 301.933 107.884C302.629 107.777 304.056 108.533 304.783 108.678Z" fill="white"/>
<path d="M304.783 108.44C305.3 108.57 305.842 108.601 306.374 108.529C306.924 108.395 307.411 108.102 307.761 107.695C308.11 107.288 308.303 106.789 308.309 106.275C308.299 105.76 308.162 105.254 307.907 104.793C307.652 104.332 307.287 103.929 306.837 103.613C306.232 103.157 305.509 102.836 304.955 102.328C304.301 101.724 303.941 100.916 303.425 100.205C302.574 99.0287 301.312 98.1428 299.84 97.6877C298.746 97.3425 297.404 97.3149 296.562 98.033C296.13 98.4025 295.877 98.9307 295.395 99.2449C294.695 99.6938 293.747 99.5626 292.894 99.6523C292.121 99.7584 291.389 100.034 290.762 100.456C290.135 100.877 289.632 101.431 289.298 102.069C288.645 103.37 288.521 104.837 288.946 106.213C289.111 106.799 289.355 107.366 289.531 107.939C289.914 109.154 289.99 110.428 290.419 111.626C290.847 112.824 291.731 113.998 293.07 114.357C292.967 113.013 293.264 111.669 293.93 110.463C294.04 110.199 294.256 109.982 294.535 109.855C294.773 109.8 295.023 109.8 295.262 109.855C296.939 110.079 298.651 109.766 300.1 108.971C300.609 108.695 301.401 107.742 301.94 107.649C302.629 107.538 304.056 108.295 304.783 108.44Z" fill="#503F43"/>
<path d="M376.065 87.1534L370.236 146.091L344.033 152.651L317.903 146.091L312.081 87.1534H376.065Z" fill="url(#paint2_linear_2_228)"/>
<path d="M344.071 147.638L365.244 142.342L370.217 91.9735H344.071V147.638Z" fill="url(#paint3_linear_2_228)"/>
<path d="M332.741 106.433H344.071V99.2035H323.989L324.18 101.144L326.15 121.066H344.075V113.836H333.475L332.741 106.433ZM334.562 124.681H326.529L327.65 136.034L344.037 140.156H344.075V132.612H344.041L335.12 130.437L334.562 124.681Z" fill="#EBEBEB"/>
<path d="M318.037 71.1328H322.107V74.7616H325.829V71.1328H329.899V82.1263H325.829V78.4457H322.107V82.1263H318.037V71.1328ZM335.25 74.7789H331.666V71.1328H342.905V74.7789H339.32V82.1263H335.254V74.7789H335.25ZM344.691 71.1328H348.937L351.549 74.9964L354.158 71.1328H358.404V82.1263H354.35V76.6779L351.549 80.5864H351.481L348.677 76.6779V82.1263H344.691V71.1328ZM360.428 71.1328H364.498V78.4906H370.236V82.1228H360.439V71.1328H360.428Z" fill="white"/>
<path d="M344.044 121.066H353.906L352.976 130.444L344.044 132.619V140.156L360.466 136.047L360.585 134.825L362.467 115.79L362.662 113.85H344.044V121.08V121.066ZM344.044 106.416V106.434H363.392L363.553 104.807L363.936 101.14L364.127 99.2001H344.044V106.413V106.416Z" fill="white"/>
<path d="M141.282 130.665C140.536 128.693 139.461 126.176 138.604 125.603C138.553 125.566 138.496 125.534 138.436 125.51H138.329V123.076L136.317 123.366C135.994 122.486 135.749 121.584 135.586 120.669C135.78 120.844 136.027 120.963 136.296 121.012C136.565 121.06 136.843 121.036 137.097 120.942C137.063 120.893 137.036 120.842 137.005 120.79L137.097 120.755C136.78 120.251 136.613 119.681 136.611 119.101C136.628 118.572 136.722 118.048 136.89 117.541C137.25 116.419 137.858 115.369 138.199 114.243C138.416 113.517 138.519 112.766 138.505 112.013C138.515 110.738 138.193 109.478 137.564 108.336C137.408 108.007 137.163 107.719 136.852 107.497C136.569 107.355 136.278 107.227 135.98 107.114C135.481 106.81 135.051 106.424 134.714 105.974C133.285 104.404 131.372 103.252 129.217 102.663C128.656 102.475 128.048 102.432 127.461 102.539C126.111 102.884 125.618 104.379 124.524 105.17C123.556 105.86 122.228 105.94 121.02 106.174C119.779 106.365 118.637 106.905 117.757 107.718C117.185 108.308 116.873 109.067 116.881 109.852C116.848 110.218 116.92 110.585 117.089 110.919C117.258 111.252 117.52 111.541 117.849 111.758C118.223 111.979 118.646 112.124 119.089 112.181C119.532 112.237 119.984 112.205 120.411 112.086C120.077 113.127 119.985 114.219 120.141 115.294C120.297 116.369 120.697 117.404 121.317 118.333C121.936 119.261 122.762 120.065 123.742 120.692C124.721 121.319 125.834 121.757 127.01 121.978L127.247 122.357C127.971 123.575 128.519 124.871 128.88 126.214C127.029 127.164 125.006 128.051 123.785 128.134C123.737 128.564 123.649 128.991 123.521 129.408C123.236 130.456 122.688 131.43 121.919 132.256C120.258 133.941 112.788 146.682 112.788 146.682C112.788 146.682 112.551 147.189 112.168 148.063C107.528 148.577 99.9581 149.32 97.8428 148.936L89.5421 141.817C89.5421 141.817 86.8644 143.664 87.0939 145.908L85.5983 144.624C85.5983 144.624 77.7107 150.055 90.1656 153.601L109.116 155.586C107.31 160.503 105.627 166.224 106.147 169.338H106.304C106.667 169.338 107.028 169.313 107.387 169.263L107.352 169.815L105.528 199.312C105.528 199.312 105.111 204.743 110.715 207.18C110.715 207.18 117.566 225.352 114.865 227.413C114.865 227.413 115.186 227.565 115.726 227.779L110.091 232.268C110.091 232.268 105.941 233.203 103.657 233.017C103.256 232.968 102.848 233.053 102.512 233.258C102.177 233.462 101.936 233.771 101.836 234.125C101.836 234.163 101.836 234.201 101.813 234.243V234.291C101.813 234.329 101.813 234.37 101.813 234.412C101.813 234.453 101.813 234.443 101.813 234.457C101.813 234.471 101.813 234.526 101.813 234.56V234.605C101.813 234.647 101.813 234.685 101.84 234.726V234.771C101.853 234.815 101.868 234.857 101.886 234.899V234.94C101.905 234.982 101.928 235.023 101.951 235.064V235.092C101.978 235.133 102.005 235.175 102.035 235.216L102.062 235.251C102.095 235.295 102.132 235.338 102.173 235.382L102.203 235.417C102.246 235.461 102.291 235.503 102.341 235.548H102.364L102.517 235.665L102.552 235.689L102.739 235.81L102.785 235.838L103.003 235.952H103.037L103.271 236.055H103.305L103.577 236.155L103.634 236.176L103.936 236.266H103.986L104.311 236.342H104.338L104.72 236.408H104.793L105.176 236.459H105.248L105.688 236.497C106.541 236.556 107.693 236.577 109.024 236.573C109.024 236.573 109.024 236.604 109.024 236.618C109.024 236.632 109.024 236.687 109.024 236.722V236.767C109.024 236.808 109.024 236.846 109.051 236.887V236.932C109.063 236.976 109.079 237.019 109.097 237.06V237.102C109.116 237.143 109.139 237.184 109.162 237.226V237.253C109.188 237.295 109.215 237.336 109.246 237.378L109.272 237.412C109.306 237.456 109.343 237.5 109.383 237.543L109.414 237.578C109.456 237.623 109.502 237.664 109.552 237.709H109.571L109.724 237.827L109.758 237.851L109.946 237.972L109.992 237.999L110.206 238.113H110.24L110.474 238.217H110.508L110.78 238.317L110.837 238.338L111.139 238.427H111.189L111.514 238.503H111.541L111.923 238.569H111.996L112.379 238.621H112.451L112.891 238.659C118.288 239.035 135.513 237.909 135.513 237.909V237.865V237.809C135.686 237.084 136.512 232.868 133.574 229.751C133.662 229.668 133.746 229.581 133.826 229.492C133.826 229.492 131.531 225.932 132.79 224.81C134.048 223.688 126.712 204.377 126.712 204.377C126.712 204.377 122.768 198.756 125.051 192.385C127.335 186.015 124.845 179.085 124.845 179.085C124.845 179.085 130.296 177.628 130.395 171.576C130.395 171.393 130.395 171.203 130.395 171.013C130.509 171.028 130.624 171.035 130.74 171.034C130.816 171.039 130.893 171.039 130.969 171.034C130.969 171.034 129.932 167.66 131.176 165.226C132.419 162.792 135.119 165.04 137.61 155.11C139.411 147.925 140.995 139.662 141.737 135.64C142.042 133.973 141.885 132.264 141.282 130.665ZM93.9181 151.726L92.0246 150.103C92.652 150.338 93.3481 150.566 94.1247 150.794L101.259 151.55C98.0761 151.809 95.1039 151.954 93.9181 151.737V151.726Z" fill="url(#paint4_linear_2_228)"/>
<path d="M111.984 150.78C111.984 150.78 97.3034 152.62 94.2432 152.068L86.0878 145.073C86.0878 145.073 78.338 150.411 90.5748 153.908L113.411 156.301L111.984 150.78Z" fill="#FDC2CC"/>
<path opacity="0.05" d="M111.984 150.78C111.984 150.78 97.3034 152.62 94.2432 152.068L86.0878 145.073C86.0878 145.073 78.338 150.411 90.5748 153.908L113.411 156.301L111.984 150.78Z" fill="white"/>
<path d="M83.2458 155.424L51.5195 147.483L44.4506 75.908H122.137L115.06 147.472L83.2458 155.424Z" fill="#DF37C4"/>
<path d="M109.001 142.918L115.049 81.7638H83.2993V149.337L109.001 142.918Z" fill="#F800D0" fill-opacity="0.55"/>
<path d="M60.6771 108.298L61.5492 117.075H83.3146V108.298H60.6771ZM58.9251 90.5303L59.8088 99.3071H83.3108V90.5303H58.906H58.9251ZM83.3108 131.096H83.2687L72.4358 128.455L71.7434 121.453H61.9623L63.3241 135.236L83.2458 140.239H83.2917L83.3108 131.096Z" fill="#EBEBEB"/>
<path d="M62.735 56.4485H74.5128V60.8956H67.658V65.3427H74.5128V69.7898H62.735V56.4485ZM76.8882 56.4485H88.6661V60.3155H81.796V61.0889H88.6508V69.9831H76.8691V65.9227H83.7239V65.1493H76.8691V56.4485H76.8882ZM91.0415 56.4485H102.819V60.3155H95.9301V61.0889H102.785V69.9831H91.0033V65.9227H97.858V65.1493H91.0033V56.4485H91.0415Z" fill="white"/>
<path d="M105.868 108.298L107.624 90.5303H83.2457V99.3071H96.9514L96.0678 108.284H83.2457V117.061H95.2224L94.0749 128.455L83.2457 131.103V140.236L103.183 135.246L103.328 133.762L105.623 110.649L105.86 108.291L105.868 108.298Z" fill="white"/>
<path d="M117.29 225.504L110.152 231.208C110.152 231.208 106.075 232.13 103.833 231.943C101.591 231.757 100.57 235.071 105.872 235.441C111.174 235.81 128.096 234.705 128.096 234.705C128.096 234.705 129.726 228.815 124.833 225.504H117.29Z" fill="#47465A"/>
<path opacity="0.05" d="M117.29 225.504L110.152 231.208C110.152 231.208 106.075 232.13 103.833 231.943C101.591 231.757 100.57 235.071 105.872 235.441C111.174 235.81 128.096 234.705 128.096 234.705C128.096 234.705 129.726 228.815 124.833 225.504H117.29Z" fill="white"/>
<path opacity="0.3" d="M128.349 232.161C128.337 232.832 128.251 233.5 128.092 234.156C128.092 234.156 111.17 235.261 105.868 234.892C103.317 234.716 102.234 233.856 102.043 233.034C101.809 233.98 102.735 235.227 105.868 235.451C111.17 235.821 128.092 234.716 128.092 234.716C128.292 233.876 128.378 233.019 128.349 232.161Z" fill="white"/>
<path d="M125.644 121.166C125.644 121.166 130.131 126.87 128.498 130.737C126.865 134.604 137.063 126.687 137.063 126.687C137.063 126.687 133.8 121.511 135.433 115.987L125.644 121.166Z" fill="#FDC2CC"/>
<path d="M124.42 227.714L117.29 233.417C117.29 233.417 113.212 234.339 110.971 234.153C108.729 233.966 107.708 237.281 113.01 237.651C118.311 238.02 135.234 236.915 135.234 236.915C135.234 236.915 136.864 231.025 131.971 227.714H124.42Z" fill="#47465A"/>
<path d="M126.471 226.426C125.407 227.61 123.908 228.066 122.339 228.135C118.774 228.287 114.85 226.426 114.85 226.426C117.5 224.402 110.772 206.548 110.772 206.548C105.267 204.156 105.673 198.818 105.673 198.818L107.455 169.849L107.907 162.571L113.618 159.443L118.116 162.55L122.385 165.506C122.663 166.446 122.843 167.408 122.921 168.379C123.418 175.142 117.493 176.734 117.493 176.734C117.493 176.734 119.941 183.543 117.696 189.803C115.45 196.063 119.325 201.583 119.325 201.583C119.325 201.583 126.666 220.725 125.445 221.83C124.225 222.935 126.471 226.426 126.471 226.426Z" fill="#565171"/>
<path opacity="0.05" d="M126.471 226.426C125.407 227.61 123.908 228.066 122.339 228.135C118.774 228.287 114.85 226.426 114.85 226.426C117.5 224.402 110.772 206.548 110.772 206.548C105.267 204.156 105.673 198.818 105.673 198.818L107.455 169.849L107.907 162.571L113.618 159.443L118.116 162.55L122.385 165.506C122.663 166.446 122.843 167.408 122.921 168.379C123.418 175.142 117.493 176.734 117.493 176.734C117.493 176.734 119.941 183.543 117.696 189.803C115.45 196.063 119.325 201.583 119.325 201.583C119.325 201.583 126.666 220.725 125.445 221.83C124.225 222.935 126.471 226.426 126.471 226.426Z" fill="white"/>
<path d="M133.597 228.632C130.131 232.496 121.976 228.632 121.976 228.632C122.14 228.495 122.263 228.323 122.332 228.131C123.827 224.461 117.286 206.914 117.286 206.914C111.782 204.522 111.166 198.818 111.166 198.818L109.724 169.325L109.536 165.506L118.116 162.55L120.752 161.642L129.531 167.716C129.908 168.974 130.093 170.272 130.082 171.576C129.971 177.518 124.627 178.954 124.627 178.954C124.627 178.954 127.075 185.763 124.83 192.023C122.584 198.283 126.471 203.786 126.471 203.786C126.471 203.786 133.811 222.928 132.591 224.033C131.371 225.138 133.597 228.632 133.597 228.632Z" fill="#565171"/>
<path opacity="0.1" d="M130.082 171.576C128.318 171.348 124.749 169.432 122.917 168.393C122.217 167.995 121.769 167.73 121.769 167.73C121.769 167.73 119.933 163.127 115.041 166.625C113.449 167.792 111.652 168.709 109.724 169.339C108.987 169.574 108.228 169.746 107.455 169.853L107.907 162.575L113.618 159.447L118.116 162.554L120.752 161.646L129.531 167.716C129.908 168.974 130.093 170.273 130.082 171.576Z" fill="white"/>
<path d="M141.117 136.258C140.39 140.208 138.822 148.343 137.063 155.383C134.614 165.137 131.964 162.927 130.743 165.32C129.523 167.712 130.541 171.023 130.541 171.023C128.502 171.206 121.773 167.16 121.773 167.16C121.773 167.16 119.937 162.557 115.045 166.055C110.152 169.553 106.277 169.366 106.277 169.366C105.256 163.293 112.803 147.096 112.803 147.096C112.803 147.096 120.144 134.58 121.773 132.94C122.529 132.129 123.069 131.172 123.349 130.143C123.474 129.734 123.561 129.316 123.609 128.893C126.26 128.71 132.79 124.66 132.79 124.66L137.889 123.925V126.318C137.949 126.342 138.006 126.373 138.057 126.411C138.895 126.987 139.97 129.446 140.685 131.383C141.271 132.951 141.419 134.626 141.117 136.258Z" fill="#E1A0A7"/>
<path d="M117.29 153.542L114.654 153.266L94.4536 151.15C82.2129 147.652 89.9666 142.314 89.9666 142.314L98.122 149.309C100.474 149.734 109.705 148.743 113.84 148.273C115.079 148.128 115.863 148.032 115.863 148.032L117.29 153.542Z" fill="#FDC2CC"/>
<path opacity="0.1" d="M137.063 128.697C137.063 128.697 131.761 124.833 123.793 137.346C115.825 149.858 114.004 147.835 114.004 147.835C114.004 147.835 115.634 153.359 114.819 154.461C114.819 154.461 120.324 154.091 122.362 154.461C124.401 154.83 137.043 140.474 137.043 140.474C137.043 140.474 143.588 132.377 137.063 128.697Z" fill="white"/>
<path opacity="0.1" d="M136.86 127.961C136.86 127.961 131.558 124.098 123.605 136.61C115.653 149.123 113.817 147.099 113.817 147.099C113.817 147.099 120.136 153.356 122.175 153.725C124.214 154.095 136.856 139.738 136.856 139.738C136.856 139.738 143.386 131.642 136.86 127.961Z" fill="white"/>
<path opacity="0.1" d="M114.651 153.276C114.735 151.913 114.165 149.516 113.836 148.273C115.075 148.128 115.859 148.032 115.859 148.032L117.286 153.556L114.651 153.276Z" fill="white"/>
<path d="M137.063 128.327C137.063 128.327 131.761 124.464 123.793 136.98C115.825 149.496 114.004 147.469 114.004 147.469C114.004 147.469 115.634 152.993 114.819 154.095C114.819 154.095 120.324 153.725 122.362 154.095C124.401 154.464 137.043 140.108 137.043 140.108C137.043 140.108 143.588 132.008 137.063 128.327Z" fill="#E1A0A7"/>
<path opacity="0.1" d="M135.651 116.364L125.847 121.512C126.262 122.055 126.645 122.617 126.995 123.196C127.559 123.3 128.133 123.352 128.708 123.352C131.321 123.352 132.534 120.876 134.113 119.209C133.999 117.883 135.2 117.848 135.651 116.364Z" fill="white"/>
<path d="M128.498 122.993C133.228 122.993 137.063 119.532 137.063 115.262C137.063 110.992 133.228 107.531 128.498 107.531C123.768 107.531 119.933 110.992 119.933 115.262C119.933 119.532 123.768 122.993 128.498 122.993Z" fill="#FDC2CC"/>
<path opacity="0.1" d="M117.673 109.009C118.536 108.21 119.659 107.678 120.878 107.49C122.068 107.259 123.372 107.19 124.321 106.503C125.396 105.726 125.878 104.248 127.205 103.916C127.782 103.812 128.379 103.855 128.93 104.041C131.048 104.618 132.927 105.75 134.331 107.293C134.664 107.736 135.087 108.117 135.578 108.415C135.871 108.527 136.157 108.653 136.435 108.792C136.74 109.01 136.979 109.294 137.131 109.617C138.087 111.359 138.307 113.356 137.751 115.234C137.418 116.343 136.822 117.372 136.466 118.477C136.11 119.581 136.022 120.831 136.669 121.819C136.041 122.109 135.249 121.743 134.855 121.215C134.461 120.686 134.343 120.037 134.136 119.426C133.73 118.226 132.965 117.151 131.925 116.319C131.283 115.808 130.135 115.462 129.688 116.122C129.515 116.377 129.527 116.705 129.378 116.971C129.087 117.493 128.23 117.596 127.683 117.316C127.145 116.981 126.766 116.474 126.624 115.897C125.786 113.332 124.351 111.72 121.314 112.814C120.167 113.221 118.847 113.505 117.757 112.814C116.361 111.889 116.64 110.055 117.673 109.009Z" fill="white"/>
<path d="M117.673 108.823C118.536 108.023 119.659 107.491 120.878 107.304C122.068 107.072 123.372 107.003 124.321 106.316C125.396 105.539 125.878 104.061 127.205 103.73C127.782 103.626 128.379 103.669 128.93 103.854C131.048 104.432 132.927 105.564 134.331 107.107C134.664 107.549 135.087 107.93 135.578 108.229C135.871 108.341 136.157 108.466 136.435 108.605C136.74 108.824 136.979 109.107 137.131 109.43C138.087 111.173 138.307 113.17 137.751 115.048C137.418 116.156 136.822 117.185 136.466 118.29C136.11 119.395 136.022 120.645 136.669 121.632C136.041 121.922 135.249 121.556 134.855 121.028C134.461 120.5 134.343 119.851 134.136 119.24C133.73 118.04 132.965 116.965 131.925 116.132C131.283 115.621 130.135 115.276 129.688 115.935C129.515 116.191 129.527 116.519 129.378 116.785C129.087 117.306 128.23 117.41 127.683 117.13C127.145 116.794 126.766 116.288 126.624 115.711C125.786 113.146 124.351 111.533 121.314 112.628C120.167 113.035 118.847 113.318 117.757 112.628C116.361 111.706 116.64 109.872 117.673 108.823Z" fill="#8F5A6A"/>
<path opacity="0.05" d="M138.046 126.397H133.903C133.903 126.397 125.748 130.078 125.545 129.895C125.407 129.77 124.145 129.984 123.345 130.133C123.471 129.724 123.558 129.305 123.605 128.883C126.256 128.7 132.786 124.65 132.786 124.65L137.885 123.915V126.307C137.942 126.331 137.996 126.361 138.046 126.397Z" fill="white"/>
<path opacity="0.3" d="M135.483 234.367C135.471 235.038 135.385 235.707 135.226 236.363C135.226 236.363 118.304 237.467 113.002 237.098C110.451 236.922 109.368 236.062 109.177 235.24C108.943 236.187 109.869 237.433 113.002 237.657C118.304 238.027 135.226 236.922 135.226 236.922C135.426 236.083 135.512 235.225 135.483 234.367Z" fill="white"/>
<g opacity="0.05">
<path d="M113.105 165.872C110.355 167.84 107.922 168.634 106.323 168.979C106.323 169.118 106.354 169.252 106.377 169.383C106.377 169.383 110.252 169.566 115.144 166.072C115.902 165.486 116.798 165.063 117.764 164.836C116.697 164.363 115.175 164.394 113.105 165.872Z" fill="white"/>
<path d="M140.777 131.366C140.046 129.429 138.987 126.974 138.149 126.394C138.098 126.356 138.041 126.325 137.981 126.3C137.981 126.3 136.294 126.352 136.351 126.394C137.189 126.97 138.007 129.246 138.738 131.179C139.33 132.751 139.483 134.43 139.182 136.068C138.455 140.018 136.887 148.153 135.127 155.193C132.679 164.947 130.028 162.737 128.808 165.13C127.806 167.091 128.307 169.667 128.525 170.533C129.184 170.831 129.907 170.997 130.644 171.02C130.644 171.02 129.623 167.709 130.847 165.316C132.071 162.923 134.722 165.133 137.166 155.379C138.937 148.322 140.494 140.187 141.221 136.255C141.521 134.617 141.369 132.937 140.777 131.366Z" fill="white"/>
</g>
<path d="M164.474 165.744C165.175 165.228 165.686 164.532 165.939 163.749C166.13 162.954 165.755 162.005 164.914 161.715C163.973 161.39 162.967 161.977 162.206 162.575C161.444 163.172 160.568 163.849 159.57 163.721C160.083 163.301 160.467 162.768 160.684 162.175C160.901 161.581 160.945 160.947 160.809 160.334C160.766 160.08 160.647 159.841 160.465 159.643C159.941 159.139 158.996 159.357 158.369 159.754C156.38 161.017 155.825 163.455 155.814 165.651C155.615 164.86 155.783 164.035 155.775 163.234C155.768 162.433 155.523 161.508 154.766 161.086C154.296 160.859 153.768 160.746 153.235 160.758C152.34 160.727 151.346 160.81 150.734 161.401C149.969 162.133 150.172 163.365 150.833 164.163C151.495 164.96 152.497 165.475 153.423 166.034C154.165 166.432 154.798 166.976 155.274 167.626C155.33 167.716 155.377 167.811 155.412 167.909H161.016C162.272 167.332 163.435 166.603 164.474 165.744Z" fill="#C326D0"/>
<path d="M174.768 230.576C175.659 229.827 176.497 228.943 176.757 227.869C177.017 226.795 176.508 225.504 175.368 225.107C174.094 224.665 172.729 225.452 171.696 226.27C170.663 227.089 169.477 227.997 168.127 227.824C168.822 227.255 169.343 226.533 169.637 225.728C169.931 224.923 169.99 224.063 169.806 223.232C169.747 222.889 169.586 222.567 169.34 222.3C168.632 221.609 167.347 221.91 166.501 222.448C163.824 224.175 163.059 227.465 163.039 230.441C162.768 229.367 162.997 228.249 162.99 227.147C162.982 226.046 162.649 224.827 161.62 224.233C160.979 223.922 160.259 223.77 159.532 223.791C158.319 223.75 156.969 223.86 156.143 224.661C155.114 225.656 155.378 227.323 156.277 228.418C157.175 229.512 158.533 230.2 159.784 230.956C160.788 231.496 161.645 232.234 162.29 233.114C162.366 233.237 162.429 233.366 162.477 233.5H170.078C171.78 232.721 173.357 231.737 174.768 230.576Z" fill="#C326D0"/>
</g>
<defs>
<filter id="filter0_d_2_228" x="0" y="0" width="430" height="289" filterUnits="userSpaceOnUse" color-interpolation-filters="sRGB">
<feFlood flood-opacity="0" result="BackgroundImageFix"/>
<feColorMatrix in="SourceAlpha" type="matrix" values="0 0 0 0 0 0 0 0 0 0 0 0 0 0 0 0 0 0 127 0" result="hardAlpha"/>
<feOffset dx="17" dy="19"/>
<feGaussianBlur stdDeviation="9"/>
<feComposite in2="hardAlpha" operator="out"/>
<feColorMatrix type="matrix" values="0 0 0 0 0 0 0 0 0 0 0 0 0 0 0 0 0 0 0.5 0"/>
<feBlend mode="normal" in2="BackgroundImageFix" result="effect1_dropShadow_2_228"/>
<feBlend mode="normal" in="SourceGraphic" in2="effect1_dropShadow_2_228" result="shape"/>
</filter>
<linearGradient id="paint0_linear_2_228" x1="242.598" y1="65.9539" x2="242.598" y2="156.812" gradientUnits="userSpaceOnUse">
<stop stop-color="#FF00F5"/>
<stop offset="1" stop-color="#931C7A"/>
</linearGradient>
<linearGradient id="paint1_linear_2_228" x1="308.6" y1="212.957" x2="308.6" y2="96.0649" gradientUnits="userSpaceOnUse">
<stop stop-color="#808080" stop-opacity="0.25"/>
<stop offset="0.54" stop-color="#808080" stop-opacity="0.12"/>
<stop offset="1" stop-color="#808080" stop-opacity="0.1"/>
</linearGradient>
<linearGradient id="paint2_linear_2_228" x1="344.073" y1="87.1534" x2="344.073" y2="152.651" gradientUnits="userSpaceOnUse">
<stop stop-color="#FF07F5"/>
<stop offset="1" stop-color="#851E75"/>
</linearGradient>
<linearGradient id="paint3_linear_2_228" x1="357.144" y1="91.9735" x2="357.144" y2="147.638" gradientUnits="userSpaceOnUse">
<stop stop-color="#C326D0"/>
<stop offset="1" stop-color="#FF07F5"/>
</linearGradient>
<linearGradient id="paint4_linear_2_228" x1="112.52" y1="238.925" x2="112.52" y2="102.47" gradientUnits="userSpaceOnUse">
<stop stop-color="#808080" stop-opacity="0.25"/>
<stop offset="0.54" stop-color="#808080" stop-opacity="0.12"/>
<stop offset="1" stop-color="#808080" stop-opacity="0.1"/>
</linearGradient>
<clipPath id="clip0_2_228">
<rect width="394" height="252" fill="white" transform="translate(1)"/>
</clipPath>
</defs>
</svg>
